{
classes = (
{
code = "";
name = "@KERN_RIGHT__empty_lu.0_st.1_cl.0";
},
{
code = "uni021A T Tcaron";
name = "@KERN_RIGHT_T";
},
{
code = "Y Ydieresis Yacute";
name = "@KERN_RIGHT_Y";
},
{
code = "A Aring Adieresis Aacute uni0202 Amacron Agrave Atilde Acircumflex uni0200 Aogonek Abreve";
name = "@KERN_LEFT_A";
},
{
code = "";
name = "@KERN_LEFT__empty_lu.0_st.1_cl.0";
},
{
code = "Y Ydieresis Yacute";
name = "@KERN_LEFT_Y";
},
{
code = "Oslash Omacron G C Ccaron Otilde Q Gcircumflex O uni020E uni020C Gcommaaccent Oacute Gdotaccent Gbreve Cdotaccent uni01F4 Odieresis Ohungarumlaut Ograve OE Cacute Ccircumflex Obreve Ccedilla Ocircumflex";
name = "@KERN_RIGHT_C";
},
{
code = "cdotaccent ograve ocircumflex edieresis uni020F obreve ccedilla edotaccent egrave eogonek otilde ccaron dcaron oslash cacute ecircumflex odieresis ohungarumlaut ebreve omacron uni020D emacron ccircumflex eacute ecaron c e d uni0207 uni0205 o q eth oe oacute";
name = "@KERN_RIGHT_c";
},
{
code = "ycircumflex y ydieresis yacute ygrave";
name = "@KERN_LEFT_y";
},
{
code = "Oslash Omacron D Otilde O Dcaron Q uni020E uni020C Eth Oacute Odieresis Ohungarumlaut Ograve Ocircumflex Obreve";
name = "@KERN_LEFT_D";
},
{
code = "racute r rcommaaccent uni0213 uni0211 rcaron";
name = "@KERN_LEFT_r";
},
{
code = "wgrave wcircumflex wdieresis w wacute";
name = "@KERN_RIGHT_w";
},
{
code = "a aring ae uni0203 aacute uni0201 amacron agrave atilde acircumflex adieresis aogonek abreve";
name = "@KERN_RIGHT_a";
},
{
code = "A Aring Adieresis uni0202 uni0200 Amacron Aacute Agrave Atilde Acircumflex Abreve Aogonek";
name = "@KERN_RIGHT_A";
}
);
copyright = "Copyright (c) 2011-12 by vernon adams. All rights reserved.";
customParameters = (
{
name = openTypeHeadFlags;
value = (
    0,
    1,
    3
);
},
{
name = openTypeHeadLowestRecPPEM;
value = 8;
},
{
name = openTypeHheaCaretOffset;
value = 0;
},
{
name = openTypeHheaCaretSlopeRise;
value = 1;
},
{
name = openTypeHheaCaretSlopeRun;
value = 0;
},
{

glyphs = (
{
glyphname = A;
lastChange = "2012-12-22 12:16:23 +0000";
layers = (
{
anchors = (
{
name = ogonek;
position = "{931, 10}";
},
{
name = top;
position = "{516, 1760}";
}
);
layerId = "DBFADC97-046A-4853-BE6B-B7E9D7A52A7E";
name = "Bold Condensed";
paths = (
{
closed = 1;
nodes = (
"32 0 LINE",
"258 1760 LINE",
"768 1760 LINE",
"999 0 LINE",
"667 0 LINE",
"521 1381 LINE",
"514 1381 LINE",
"380 0 LINE"
);
},
{
closed = 1;
nodes = (
"314 281 LINE",
"314 566 LINE",
"720 566 LINE",
"720 281 LINE"
);
}
);
width = 1031;
}
);
unicode = 0041;
},
{
glyphname = AE;
layers = (
{
anchors = (
{
name = top;
position = "{685, 0}";
}
);
layerId = "DBFADC97-046A-4853-BE6B-B7E9D7A52A7E";
name = "Bold Condensed";
paths = (
{
closed = 1;
nodes = (
"68 0 LINE",
"420 0 LINE",
"458 281 LINE",
"657 281 LINE",
"657 0 LINE",
"1282 0 LINE",
"1282 318 LINE",
"1017 318 LINE",
"1017 746 LINE",
"1245 746 LINE",
"1245 1065 LINE",
"1017 1065 LINE",
"1017 1440 LINE",
"1259 1440 LINE",
"1259 1761 LINE",
"324 1761 LINE"
);
},
{
closed = 1;
nodes = (
"488 535 LINE",
"610 1440 LINE",
"657 1440 LINE",
"657 535 LINE"
);
}
);
width = 1370;
}
);
unicode = 00C6;
},
{
glyphname = B;
lastChange = "2012-12-22 12:17:25 +0000";
layers = (
{
layerId = "DBFADC97-046A-4853-BE6B-B7E9D7A52A7E";
name = "Bold Condensed";
paths = (
{
closed = 1;
nodes = (
"114 0 LINE",
"570 0 LINE SMOOTH",
"868 0 OFFCURVE",
"1021 141 OFFCURVE",
"1021 508 CURVE SMOOTH",
"1021 564 LINE SMOOTH",
"1021 776 OFFCURVE",
"952 929 OFFCURVE",
"794 969 CURVE",
"915 1001 OFFCURVE",
"980 1116 OFFCURVE",
"980 1281 CURVE SMOOTH",
"980 1359 LINE SMOOTH",
"980 1646 OFFCURVE",
"848 1760 OFFCURVE",
"592 1760 CURVE SMOOTH",
"114 1760 LINE"
);
},
{
closed = 1;
nodes = (
"474 270 LINE",
"474 818 LINE",
"550 818 LINE SMOOTH",
"633 818 OFFCURVE",
"657 766 OFFCURVE",
"657 666 CURVE SMOOTH",
"657 400 LINE SMOOTH",
"657 314 OFFCURVE",
"611 270 OFFCURVE",
"520 270 CURVE SMOOTH"
);
},
{
closed = 1;
nodes = (
"474 1083 LINE",
"474 1490 LINE",
"548 1490 LINE SMOOTH",
"598 1490 OFFCURVE",
"626 1462 OFFCURVE",
"626 1405 CURVE SMOOTH",
"626 1214 LINE SMOOTH",
"626 1143 OFFCURVE",
"611 1083 OFFCURVE",
"546 1083 CURVE SMOOTH"
);
}
);
width = 1063;
}
);
unicode = 0042;
},
{
glyphname = C;
lastChange = "2012-12-22 13:05:10 +0000";
layers = (
{
anchors = (
{
name = bottom;
position = "{526, 0}";
},
{
name = top;
position = "{548, 1760}";
}
);
layerId = "DBFADC97-046A-4853-BE6B-B7E9D7A52A7E";
name = "Bold Condensed";
paths = (
{
closed = 1;
nodes = (
"94 151 OFFCURVE",
"277 -20 OFFCURVE",
"532 -20 CURVE SMOOTH",
"812 -20 OFFCURVE",
"975 116 OFFCURVE",
"975 425 CURVE SMOOTH",
"975 758 LINE",
"624 758 LINE",
"624 420 LINE SMOOTH",
"624 341 OFFCURVE",
"597 293 OFFCURVE",
"537 293 CURVE SMOOTH",
"483 293 OFFCURVE",
"458 339 OFFCURVE",
"458 414 CURVE SMOOTH",
"458 1326 LINE SMOOTH",
"458 1404 OFFCURVE",
"474 1467 OFFCURVE",
"544 1467 CURVE SMOOTH",
"600 1467 OFFCURVE",
"624 1429 OFFCURVE",
"624 1324 CURVE SMOOTH",
"624 1058 LINE",
"967 1058 LINE",
"967 1368 LINE SMOOTH",
"967 1645 OFFCURVE",
"790 1780 OFFCURVE",
"540 1780 CURVE SMOOTH",
"235 1780 OFFCURVE",
"94 1595 OFFCURVE",
"94 1254 CURVE SMOOTH",
"94 436 LINE SMOOTH"
);
}
);
width = 1029;
}
);
unicode = 0043;
},
{
glyphname = D;
lastChange = "2012-12-22 13:24:20 +0000";
layers = (
{
anchors = (
{
name = center;
position = "{303, 958}";
},
{
name = top;
position = "{545, 1760}";
}
);
layerId = "DBFADC97-046A-4853-BE6B-B7E9D7A52A7E";
name = "Bold Condensed";
paths = (
{
closed = 1;
nodes = (
"474 270 LINE",
"474 1490 LINE",
"513 1490 LINE SMOOTH",
"613 1490 OFFCURVE",
"636 1440 OFFCURVE",
"636 1323 CURVE SMOOTH",
"636 364 LINE SMOOTH",
"636 301 OFFCURVE",
"602 270 OFFCURVE",
"535 270 CURVE SMOOTH"
);
},
{
closed = 1;
nodes = (
"114 0 LINE",
"593 0 LINE SMOOTH",
"885 0 OFFCURVE",
"996 189 OFFCURVE",
"996 522 CURVE SMOOTH",
"996 1347 LINE SMOOTH",
"996 1617 OFFCURVE",
"858 1760 OFFCURVE",
"605 1760 CURVE SMOOTH",
"114 1760 LINE"
);
}
);
width = 1090;
}
);
unicode = 0044;
},
{
glyphname = E;
lastChange = "2012-12-22 13:05:48 +0000";
layers = (
{
anchors = (
{
name = bottom;
position = "{512, 22}";
},
{
name = ogonek;
position = "{801, 10}";
},
{
name = top;
position = "{475, 1760}";
}
);
layerId = "DBFADC97-046A-4853-BE6B-B7E9D7A52A7E";
name = "Bold Condensed";
paths = (
{
closed = 1;
nodes = (
"114 0 LINE",
"824 0 LINE",
"824 318 LINE",
"474 318 LINE",
"474 756 LINE",
"787 756 LINE",
"787 1065 LINE",
"474 1065 LINE",
"474 1440 LINE",
"801 1440 LINE",
"801 1760 LINE",
"114 1760 LINE"
);
}
);
width = 885;
}
);
unicode = 0045;
},
{
glyphname = F;
lastChange = "2012-12-22 13:34:29 +0000";
layers = (
{
anchors = (
{
name = top;
position = "{468, 1760}";
}
);
layerId = "DBFADC97-046A-4853-BE6B-B7E9D7A52A7E";
name = "Bold Condensed";
paths = (
{
closed = 1;
nodes = (
"114 0 LINE",
"474 0 LINE",
"474 778 LINE",
"797 778 LINE",
"797 1101 LINE",
"474 1101 LINE",
"474 1436 LINE",
"827 1436 LINE",
"827 1760 LINE",
"114 1760 LINE"
);
}
);
width = 870;
}
);
unicode = 0046;
},
{
glyphname = G;
lastChange = "2012-12-22 13:06:04 +0000";
layers = (
{
anchors = (
{
name = bottom;
position = "{546, 0}";
},
{
name = top;
position = "{546, 1760}";
}
);
layerId = "DBFADC97-046A-4853-BE6B-B7E9D7A52A7E";
name = "Bold Condensed";
paths = (
{
closed = 1;
nodes = (
"94 139 OFFCURVE",
"277 -20 OFFCURVE",
"501 -20 CURVE SMOOTH",
"632 -20 OFFCURVE",
"773 74 OFFCURVE",
"789 228 CURVE",
"849 0 LINE",
"986 0 LINE",
"986 1016 LINE",
"562 1016 LINE",
"562 768 LINE",
"684 768 LINE",
"684 519 LINE SMOOTH",
"684 355 OFFCURVE",
"640 293 OFFCURVE",
"559 293 CURVE SMOOTH",
"477 293 OFFCURVE",
"458 355 OFFCURVE",
"458 501 CURVE SMOOTH",
"458 1299 LINE SMOOTH",
"458 1427 OFFCURVE",
"485 1467 OFFCURVE",
"565 1467 CURVE SMOOTH",
"630 1467 OFFCURVE",
"660 1434 OFFCURVE",
"660 1295 CURVE SMOOTH",
"660 1181 LINE",
"986 1181 LINE",
"986 1288 LINE SMOOTH",
"986 1625 OFFCURVE",
"888 1780 OFFCURVE",
"555 1780 CURVE SMOOTH",
"267 1780 OFFCURVE",
"94 1632 OFFCURVE",
"94 1307 CURVE SMOOTH",
"94 502 LINE SMOOTH"
);
}
);
width = 1092;
}
);
unicode = 0047;
},
{
glyphname = H;
lastChange = "2012-12-22 13:06:22 +0000";
layers = (
{
anchors = (
{
name = center;
position = "{562, 1398}";
},
{
name = top;
position = "{562, 1760}";
}
);
layerId = "DBFADC97-046A-4853-BE6B-B7E9D7A52A7E";
name = "Bold Condensed";
paths = (
{
closed = 1;
nodes = (
"114 0 LINE",
"474 0 LINE",
"474 766 LINE",
"650 766 LINE",
"650 0 LINE",
"1010 0 LINE",
"1010 1760 LINE",
"650 1760 LINE",
"650 1087 LINE",
"474 1087 LINE",
"474 1760 LINE",
"114 1760 LINE"
);
}
);
width = 1124;
}
);
unicode = 0048;
},
{
glyphname = Hbar;
layers = (
{
layerId = "DBFADC97-046A-4853-BE6B-B7E9D7A52A7E";
name = "Bold Condensed";
paths = (
{
closed = 1;
nodes = (
"122 0 LINE",
"482 0 LINE",
"482 781 LINE",
"648 781 LINE",
"648 0 LINE",
"1008 0 LINE",
"1008 1761 LINE",
"648 1761 LINE",
"648 1083 LINE",
"482 1083 LINE",
"482 1761 LINE",
"122 1761 LINE"
);
},
{
closed = 1;
nodes = (
"55 1348 LINE",
"1087 1348 LINE",
"1087 1518 LINE",
"55 1518 LINE"
);
}
);
width = 1130;
}
);
unicode = 0126;
},
{
glyphname = I;
lastChange = "2012-12-22 13:06:29 +0000";
layers = (
{
anchors = (
{
name = ogonek;
position = "{529, 10}";
},
{
name = top;
position = "{294, 1760}";
}
);
layerId = "DBFADC97-046A-4853-BE6B-B7E9D7A52A7E";
name = "Bold Condensed";
paths = (
{
closed = 1;
nodes = (
"114 0 LINE",
"474 0 LINE",
"474 1760 LINE",
"114 1760 LINE"
);
}
);
width = 588;
}
);
unicode = 0049;
},
{
glyphname = J;
lastChange = "2012-12-22 13:06:48 +0000";
layers = (
{
anchors = (
{
name = top;
position = "{698, 1760}";
}
);
layerId = "DBFADC97-046A-4853-BE6B-B7E9D7A52A7E";
name = "Bold Condensed";
paths = (
{
closed = 1;
nodes = (
"48 124 OFFCURVE",
"239 -20 OFFCURVE",
"478 -20 CURVE SMOOTH",
"729 -20 OFFCURVE",
"908 160 OFFCURVE",
"908 440 CURVE SMOOTH",
"908 1760 LINE",
"548 1760 LINE",
"548 418 LINE SMOOTH",
"548 333 OFFCURVE",
"522 293 OFFCURVE",
"469 293 CURVE SMOOTH",
"414 293 OFFCURVE",
"390 340 OFFCURVE",
"390 402 CURVE SMOOTH",
"390 830 LINE",
"48 830 LINE",
"48 389 LINE SMOOTH"
);
}
);
width = 1018;
}
);
unicode = 004A;
},
{
glyphname = K;
lastChange = "2012-12-22 13:07:01 +0000";
layers = (
{
anchors = (
{
name = bottom;
position = "{542, 0}";
},
{
name = top;
position = "{580, 1760}";
}
);
layerId = "DBFADC97-046A-4853-BE6B-B7E9D7A52A7E";
name = "Bold Condensed";
paths = (
{
closed = 1;
nodes = (
"114 0 LINE",
"476 0 LINE",
"476 792 LINE",
"695 0 LINE",
"1077 0 LINE",
"816 892 LINE",
"1053 1760 LINE",
"674 1760 LINE",
"474 995 LINE",
"474 1760 LINE",
"114 1760 LINE"
);
}
);
width = 1084;
}
);
unicode = 004B;
},
{
glyphname = L;
lastChange = "2012-12-22 13:26:25 +0000";
layers = (
{
anchors = (
{
name = bottom;
position = "{417, 0}";
},
{
name = top;
position = "{417, 1760}";
}
);
layerId = "DBFADC97-046A-4853-BE6B-B7E9D7A52A7E";
name = "Bold Condensed";
paths = (
{
closed = 1;
nodes = (
"114 0 LINE",
"834 0 LINE",
"834 313 LINE",
"474 313 LINE",
"474 1760 LINE",
"114 1760 LINE"
);
}
);
width = 834;
}
);
unicode = 004C;
},
{
glyphname = Lcaron;
lastChange = "2012-12-22 13:29:20 +0000";
layers = (
{
components = (
{
name = L;
transform = "{1, 0, 0, 1, 0, 0}";
}
);
layerId = "DBFADC97-046A-4853-BE6B-B7E9D7A52A7E";
name = "Bold Condensed";
paths = (
{
closed = 1;
nodes = (
"784 1077 LINE",
"952 1077 LINE",
"1054 1414 LINE",
"1054 1723 LINE",
"723 1723 LINE",
"723 1405 LINE",
"850 1405 LINE"
);
}
);
width = 834;
}
);
unicode = 013D;
},
{
glyphname = Lslash;
lastChange = "2012-12-22 13:40:02 +0000";
layers = (
{
components = (
{
name = L;
transform = "{1, 0, 0, 1, 0, 0}";
}
);
layerId = "DBFADC97-046A-4853-BE6B-B7E9D7A52A7E";
name = "Bold Condensed";
paths = (
{
closed = 1;
nodes = (
"706 923 LINE",
"706 1155 LINE",
"-1 916 LINE",
"-1 684 LINE"
);
}
);
width = 864;
}
);
unicode = 0141;
},
{
glyphname = M;
lastChange = "2012-12-22 13:10:13 +0000";
layers = (
{
anchors = (
{
name = top;
position = "{814, 1760}";
}
);
layerId = "DBFADC97-046A-4853-BE6B-B7E9D7A52A7E";
name = "Bold Condensed";
paths = (
{
closed = 1;
nodes = (
"114 0 LINE",
"432 0 LINE",
"432 580 LINE",
"432 1099 LINE",
"677 15 LINE",
"929 15 LINE",
"1164 1099 LINE",
"1164 580 LINE",
"1164 0 LINE",
"1486 0 LINE",
"1486 1760 LINE",
"1035 1760 LINE",
"808 716 LINE",
"560 1760 LINE",
"114 1760 LINE"
);
}
);
width = 1600;
}
);
unicode = 004D;
},
{
glyphname = N;
lastChange = "2012-12-22 13:10:19 +0000";
layers = (
{
anchors = (
{
name = bottom;
position = "{576, 0}";
},
{
name = top;
position = "{576, 1760}";
}
);
layerId = "DBFADC97-046A-4853-BE6B-B7E9D7A52A7E";
name = "Bold Condensed";
paths = (
{
closed = 1;
nodes = (
"114 0 LINE",
"444 0 LINE",
"444 430 LINE",
"426 920 LINE",
"790 0 LINE",
"1038 0 LINE",
"1038 1760 LINE",
"708 1760 LINE",
"708 1354 LINE",
"725 917 LINE",
"406 1760 LINE",
"114 1760 LINE"
);
}
);
width = 1152;
}
);
unicode = 004E;
},
{
glyphname = O;
lastChange = "2012-12-22 13:10:28 +0000";
layers = (
{
anchors = (
{
name = top;
position = "{545, 1768}";
}
);
layerId = "DBFADC97-046A-4853-BE6B-B7E9D7A52A7E";
name = "Bold Condensed";
paths = (
{
closed = 1;
nodes = (
"632 380 OFFCURVE",
"625 293 OFFCURVE",
"548 293 CURVE SMOOTH",
"466 293 OFFCURVE",
"458 373 OFFCURVE",
"458 465 CURVE SMOOTH",
"458 1332 LINE SMOOTH",
"458 1407 OFFCURVE",
"480 1467 OFFCURVE",
"548 1467 CURVE SMOOTH",
"618 1467 OFFCURVE",
"632 1398 OFFCURVE",
"632 1331 CURVE SMOOTH",
"632 465 LINE SMOOTH"
);
},
{
closed = 1;
nodes = (
"94 158 OFFCURVE",
"260 -20 OFFCURVE",
"548 -20 CURVE SMOOTH",
"836 -20 OFFCURVE",
"996 158 OFFCURVE",
"996 471 CURVE SMOOTH",
"996 1320 LINE SMOOTH",
"996 1623 OFFCURVE",
"830 1780 OFFCURVE",
"548 1780 CURVE SMOOTH",
"266 1780 OFFCURVE",
"94 1623 OFFCURVE",
"94 1320 CURVE SMOOTH",
"94 471 LINE SMOOTH"
);
}
);
width = 1090;
}
);
unicode = 004F;
},
{
glyphname = Oslash;
layers = (
{
anchors = (
{
name = top;
position = "{548, 0}";
}
);
layerId = "DBFADC97-046A-4853-BE6B-B7E9D7A52A7E";
name = "Bold Condensed";
paths = (
{
closed = 1;
nodes = (
"631 385 OFFCURVE",
"628 294 OFFCURVE",
"551 294 CURVE SMOOTH",
"469 294 OFFCURVE",
"465 378 OFFCURVE",
"465 470 CURVE SMOOTH",
"465 1328 LINE SMOOTH",
"465 1403 OFFCURVE",
"483 1466 OFFCURVE",
"551 1466 CURVE SMOOTH",
"621 1466 OFFCURVE",
"631 1394 OFFCURVE",
"631 1327 CURVE SMOOTH",
"631 470 LINE SMOOTH"
);
},
{
closed = 1;
nodes = (
"105 162 OFFCURVE",
"263 -21 OFFCURVE",
"551 -21 CURVE SMOOTH",
"839 -21 OFFCURVE",
"991 162 OFFCURVE",
"991 475 CURVE SMOOTH",
"991 1316 LINE SMOOTH",
"991 1619 OFFCURVE",
"833 1781 OFFCURVE",
"551 1781 CURVE SMOOTH",
"269 1781 OFFCURVE",
"105 1619 OFFCURVE",
"105 1316 CURVE SMOOTH",
"105 475 LINE SMOOTH"
);
},
{
closed = 1;
nodes = (
"242 -206 LINE",
"978 1870 LINE",
"871 1906 LINE",
"143 -166 LINE"
);
}
);
width = 1096;
}
);
unicode = 00D8;
},
{
glyphname = OE;
layers = (
{
anchors = (
{
name = top;
position = "{656, 0}";
}
);
layerId = "DBFADC97-046A-4853-BE6B-B7E9D7A52A7E";
name = "Bold Condensed";
paths = (
{
closed = 1;
nodes = (
"105 162 OFFCURVE",
"263 0 OFFCURVE",
"551 0 CURVE SMOOTH",
"1224 0 LINE",
"1224 318 LINE",
"984 318 LINE",
"984 746 LINE",
"1187 746 LINE",
"1187 1065 LINE",
"984 1065 LINE",
"984 1440 LINE",
"1201 1440 LINE",
"1201 1761 LINE",
"551 1761 LINE SMOOTH",
"269 1761 OFFCURVE",
"105 1619 OFFCURVE",
"105 1316 CURVE SMOOTH",
"105 475 LINE SMOOTH"
);
},
{
closed = 1;
nodes = (
"551 317 LINE SMOOTH",
"469 317 OFFCURVE",
"465 378 OFFCURVE",
"465 470 CURVE SMOOTH",
"465 1322 LINE SMOOTH",
"465 1397 OFFCURVE",
"483 1440 OFFCURVE",
"551 1440 CURVE SMOOTH",
"624 1440 LINE",
"624 317 LINE"
);
}
);
width = 1312;
}
);
unicode = 0152;
},
{
glyphname = P;
lastChange = "2012-12-22 13:34:48 +0000";
layers = (
{
anchors = (
{
name = top;
position = "{501, 1760}";
}
);
layerId = "DBFADC97-046A-4853-BE6B-B7E9D7A52A7E";
name = "Bold Condensed";
paths = (
{
closed = 1;
nodes = (
"114 0 LINE",
"474 0 LINE",
"474 697 LINE",
"617 697 LINE SMOOTH",
"909 697 OFFCURVE",
"996 903 OFFCURVE",
"996 1224 CURVE SMOOTH",
"996 1241.51 OFFCURVE",
"995.759 1258.55 OFFCURVE",
"995.271 1275.14 CURVE SMOOTH",
"985.269 1614.65 OFFCURVE",
"871 1760 OFFCURVE",
"593 1760 CURVE SMOOTH",
"114 1760 LINE"
);
},
{
closed = 1;
nodes = (
"474 993 LINE",
"474 1490 LINE",
"513 1490 LINE SMOOTH",
"617.686 1490 OFFCURVE",
"633.971 1405.03 OFFCURVE",
"635.801 1264.51 CURVE SMOOTH",
"635.946 1253.35 OFFCURVE",
"636 1241.85 OFFCURVE",
"636 1230 CURVE SMOOTH",
"636 1061 OFFCURVE",
"628 993 OFFCURVE",
"514 993 CURVE SMOOTH"
);
}
);
width = 1025;
}
);
unicode = 0050;
},
{
glyphname = Thorn;
layers = (
{
layerId = "DBFADC97-046A-4853-BE6B-B7E9D7A52A7E";
name = "Bold Condensed";
paths = (
{
closed = 1;
nodes = (
"122 0 LINE",
"482 0 LINE",
"482 388 LINE",
"625 388 LINE SMOOTH",
"917 388 OFFCURVE",
"1004 616 OFFCURVE",
"1004 937 CURVE SMOOTH",
"1004 1313 OFFCURVE",
"893 1494 OFFCURVE",
"601 1494 CURVE SMOOTH",
"482 1494 LINE",
"482 1761 LINE",
"122 1761 LINE"
);
},
{
closed = 1;
nodes = (
"482 684 LINE",
"482 1223 LINE",
"521 1223 LINE SMOOTH",
"634 1223 OFFCURVE",
"644 1104 OFFCURVE",
"644 943 CURVE SMOOTH",
"644 774 OFFCURVE",
"636 684 OFFCURVE",
"522 684 CURVE SMOOTH"
);
}
);
width = 1064;
}
);
unicode = 00DE;
},
{
glyphname = Q;
layers = (
{
components = (
{
name = O;
transform = "{1, 0, 0, 1, 0, 0}";
}
);
layerId = "DBFADC97-046A-4853-BE6B-B7E9D7A52A7E";
name = "Bold Condensed";
paths = (
{
closed = 1;
nodes = (
"788 -327 LINE",
"967 -178 LINE",
"703 133 LINE",
"485 5 LINE"
);
}
);
width = 1110;
}
);
unicode = 0051;
},
{
glyphname = R;
lastChange = "2012-12-22 13:10:48 +0000";
layers = (
{
anchors = (
{
name = bottom;
position = "{548, 0}";
},
{
name = top;
position = "{548, 1760}";
}
);
layerId = "DBFADC97-046A-4853-BE6B-B7E9D7A52A7E";
name = "Bold Condensed";
paths = (
{
closed = 1;
nodes = (
"114 0 LINE",
"474 0 LINE",
"474 803 LINE",
"484.51 803 OFFCURVE",
"494.687 802.859 OFFCURVE",
"504.474 802.462 CURVE SMOOTH",
"581.287 799.339 OFFCURVE",
"634 780.36 OFFCURVE",
"634 689 CURVE SMOOTH",
"634 0 LINE",
"994 0 LINE",
"994 666 LINE SMOOTH",
"994 805 OFFCURVE",
"940 915 OFFCURVE",
"830 938 CURVE",
"964 982 OFFCURVE",
"988 1077 OFFCURVE",
"988 1269 CURVE SMOOTH",
"988 1566 OFFCURVE",
"938 1760 OFFCURVE",
"668 1760 CURVE SMOOTH",
"114 1760 LINE"
);
},
{
closed = 1;
nodes = (
"476 1094 LINE",
"476 1490 LINE",
"509 1490 LINE SMOOTH",
"624.244 1490 OFFCURVE",
"633.612 1444.22 OFFCURVE",
"633.987 1314.45 CURVE SMOOTH",
"633.996 1311.35 OFFCURVE",
"634 1308.2 OFFCURVE",
"634 1305 CURVE SMOOTH",
"634 1154 OFFCURVE",
"620 1094 OFFCURVE",
"544 1094 CURVE SMOOTH"
);
}
);
width = 1096;
}
);
unicode = 0052;
},
{
glyphname = S;
lastChange = "2012-12-22 13:11:05 +0000";
layers = (
{
anchors = (
{
name = bottom;
position = "{485, 0}";
},
{
name = top;
position = "{522, 1757}";
}
);
layerId = "DBFADC97-046A-4853-BE6B-B7E9D7A52A7E";
name = "Bold Condensed";
paths = (
{
closed = 1;
nodes = (
"73 128 OFFCURVE",
"203 -20 OFFCURVE",
"506 -20 CURVE SMOOTH",
"791 -20 OFFCURVE",
"913 131 OFFCURVE",
"913 484 CURVE SMOOTH",
"913 656 OFFCURVE",
"845 805 OFFCURVE",
"687 981 CURVE SMOOTH",
"504 1185 LINE SMOOTH",
"440 1257 OFFCURVE",
"412 1317 OFFCURVE",
"412 1383 CURVE SMOOTH",
"412 1447 OFFCURVE",
"436 1474 OFFCURVE",
"492 1474 CURVE SMOOTH",
"550 1474 OFFCURVE",
"575 1440 OFFCURVE",
"575 1361 CURVE SMOOTH",
"575 1224 LINE",
"894 1224 LINE",
"894 1339 LINE SMOOTH",
"894 1648 OFFCURVE",
"775 1781 OFFCURVE",
"497 1781 CURVE SMOOTH",
"204 1781 OFFCURVE",
"79 1653 OFFCURVE",
"79 1355 CURVE SMOOTH",
"79 1170 OFFCURVE",
"129 1036 OFFCURVE",
"247 909 CURVE SMOOTH",
"398 746 LINE SMOOTH",
"522 611 OFFCURVE",
"575 513 OFFCURVE",
"575 419 CURVE SMOOTH",
"575 327 OFFCURVE",
"549 288 OFFCURVE",
"490 288 CURVE SMOOTH",
"431 288 OFFCURVE",
"405 332 OFFCURVE",
"405 435 CURVE SMOOTH",
"405 610 LINE",
"73 610 LINE",
"73 473 LINE SMOOTH"
);
}
);
width = 963;
}
);
unicode = 0053;
},
{
glyphname = T;
lastChange = "2012-12-22 13:11:23 +0000";
layers = (
{
anchors = (
{
name = bottom;
position = "{404, 0}";
},
{
name = center;
position = "{404, 1005}";
},
{
name = top;
position = "{404, 1760}";
}
);
layerId = "DBFADC97-046A-4853-BE6B-B7E9D7A52A7E";
name = "Bold Condensed";
paths = (
{
closed = 1;
nodes = (
"224 0 LINE",
"584 0 LINE",
"584 1439 LINE",
"807 1439 LINE",
"807 1760 LINE",
"1 1760 LINE",
"1 1439 LINE",
"224 1439 LINE"
);
}
);
width = 808;
}
);
unicode = 0054;
},
{
glyphname = U;
lastChange = "2012-12-22 13:11:37 +0000";
layers = (
{
anchors = (
{
name = ogonek;
position = "{766, 10}";
},
{
name = top;
position = "{552, 1755}";
}
);
layerId = "DBFADC97-046A-4853-BE6B-B7E9D7A52A7E";
name = "Bold Condensed";
paths = (
{
closed = 1;
nodes = (
"103 132 OFFCURVE",
"260 -20 OFFCURVE",
"553 -20 CURVE SMOOTH",
"846 -20 OFFCURVE",
"1001 132 OFFCURVE",
"1001 452 CURVE SMOOTH",
"1001 1761 LINE",
"641 1761 LINE",
"641 457 LINE SMOOTH",
"641 368 OFFCURVE",
"632 293 OFFCURVE",
"551 293 CURVE SMOOTH",
"471 293 OFFCURVE",
"463 369 OFFCURVE",
"463 457 CURVE SMOOTH",
"463 1761 LINE",
"103 1761 LINE",
"103 452 LINE SMOOTH"
);
}
);
width = 1104;
}
);
unicode = 0055;
},
{
glyphname = V;
lastChange = "2012-12-22 12:21:26 +0000";
layers = (
{
layerId = "DBFADC97-046A-4853-BE6B-B7E9D7A52A7E";
name = "Bold Condensed";
paths = (
{
closed = 1;
nodes = (
"293 0 LINE",
"760 0 LINE",
"985 1760 LINE",
"652 1760 LINE",
"565 891 LINE",
"544 473 LINE",
"533 473 LINE",
"503 891 LINE",
"392 1760 LINE",
"50 1760 LINE"
);
}
);
width = 1035;
}
);
unicode = 0056;
},
{
glyphname = W;
lastChange = "2012-12-22 13:11:57 +0000";
layers = (
{
anchors = (
{
name = top;
position = "{716, 1760}";
}
);
layerId = "DBFADC97-046A-4853-BE6B-B7E9D7A52A7E";
name = "Bold Condensed";
paths = (
{
closed = 1;
nodes = (
"243 0 LINE",
"612 0 LINE",
"716 977 LINE",
"824 0 LINE",
"1186 0 LINE",
"1378 1760 LINE",
"1060 1760 LINE",
"966 649 LINE",
"862 1760 LINE",
"574 1760 LINE",
"465 649 LINE",
"368 1760 LINE",
"54 1760 LINE"
);
}
);
width = 1432;
}
);
unicode = 0057;
},
{
glyphname = X;
layers = (
{
layerId = "DBFADC97-046A-4853-BE6B-B7E9D7A52A7E";
name = "Bold Condensed";
paths = (
{
closed = 1;
nodes = (
"5 0 LINE",
"368 0 LINE",
"567 697 LINE",
"593 697 LINE",
"943 1760 LINE",
"594 1760 LINE",
"387 1053 LINE",
"331 1053 LINE"
);
},
{
closed = 1;
nodes = (
"675 0 LINE",
"982 0 LINE",
"290 1760 LINE",
"-5 1760 LINE"
);
}
);
width = 976;
}
);
unicode = 0058;
},
{
glyphname = Y;
lastChange = "2012-12-22 13:12:14 +0000";
layers = (
{
anchors = (
{
name = top;
position = "{451, 1760}";
}
);
layerId = "DBFADC97-046A-4853-BE6B-B7E9D7A52A7E";
name = "Bold Condensed";
paths = (
{
closed = 1;
nodes = (
"271 0 LINE",
"631 0 LINE",
"631 649 LINE",
"907 1760 LINE",
"574 1760 LINE",
"459 1196 LINE",
"454 1196 LINE",
"331 1760 LINE",
"-6 1760 LINE",
"271 649 LINE"
);
}
);
width = 901;
}
);
unicode = 0059;
},
{
glyphname = Z;
lastChange = "2012-12-22 13:12:23 +0000";
layers = (
{
anchors = (
{
name = top;
position = "{479, 1760}";
}
);
layerId = "DBFADC97-046A-4853-BE6B-B7E9D7A52A7E";
name = "Bold Condensed";
paths = (
{
closed = 1;
nodes = (
"72 0 LINE",
"813 0 LINE",
"813 318 LINE",
"455 318 LINE",
"821 1454 LINE",
"821 1760 LINE",
"105 1760 LINE",
"105 1440 LINE",
"440 1440 LINE",
"72 325 LINE"
);
}
);
width = 878;
}
);
unicode = 005A;
},
{
glyphname = a;
lastChange = "2012-12-22 13:12:40 +0000";
layers = (
{
anchors = (
{
name = ogonek;
position = "{958, 10}";
},
{
name = top;
position = "{552, 1500}";
}
);
layerId = "DBFADC97-046A-4853-BE6B-B7E9D7A52A7E";
name = "Bold Condensed";
paths = (
{
closed = 1;
nodes = (
"607 0 LINE",
"965 0 LINE",
"965 1143 LINE SMOOTH",
"965 1387 OFFCURVE",
"781 1518 OFFCURVE",
"541 1518 CURVE SMOOTH",
"235 1518 OFFCURVE",
"100 1403 OFFCURVE",
"100 1105 CURVE SMOOTH",
"100 1056 LINE",
"449 1056 LINE",
"449 1146 LINE SMOOTH",
"449 1199 OFFCURVE",
"468 1240 OFFCURVE",
"527 1240 CURVE",
"583 1240 OFFCURVE",
"600 1213 OFFCURVE",
"600 1123 CURVE SMOOTH",
"600 377 LINE SMOOTH",
"600 320 OFFCURVE",
"581 260 OFFCURVE",
"523 260 CURVE SMOOTH",
"470 260 OFFCURVE",
"443 304 OFFCURVE",
"443 393 CURVE SMOOTH",
"443 588 LINE SMOOTH",
"443 702 OFFCURVE",
"513 760 OFFCURVE",
"608 800 CURVE",
"608 973 LINE",
"276 860 OFFCURVE",
"78 836 OFFCURVE",
"78 430 CURVE",
"78 406 LINE",
"82 162 OFFCURVE",
"140 -18 OFFCURVE",
"382 -18 CURVE SMOOTH",
"485 -18 OFFCURVE",
"572 53 OFFCURVE",
"607 178 CURVE"
);
}
);
width = 1065;
}
);
unicode = 0061;
},
{
glyphname = ae;
layers = (
{
anchors = (
{
name = top;
position = "{749, 0}";
}
);
layerId = "DBFADC97-046A-4853-BE6B-B7E9D7A52A7E";
name = "Bold Condensed";
paths = (
{
closed = 1;
nodes = (
"38 154 OFFCURVE",
"182 -18 OFFCURVE",
"449 -18 CURVE SMOOTH",
"598 -18 OFFCURVE",
"702 51 OFFCURVE",
"748 148 CURVE",
"789 53 OFFCURVE",
"896 -18 OFFCURVE",
"1036 -18 CURVE SMOOTH",
"1358 -18 OFFCURVE",
"1446 172 OFFCURVE",
"1446 494 CURVE SMOOTH",
"1446 579 LINE",
"1090 579 LINE",
"1091 574 OFFCURVE",
"1092 542 OFFCURVE",
"1092 483 CURVE SMOOTH",
"1092 394 OFFCURVE",
"1094 260 OFFCURVE",
"1008 260 CURVE SMOOTH",
"950 260 OFFCURVE",
"921 338 OFFCURVE",
"921 494 CURVE SMOOTH",
"921 704 LINE",
"1442 704 LINE",
"1445 755 OFFCURVE",
"1446 848 OFFCURVE",
"1446 983 CURVE SMOOTH",
"1446 1092 LINE SMOOTH",
"1446 1376 OFFCURVE",
"1302 1518 OFFCURVE",
"1014 1518 CURVE SMOOTH",
"889 1518 OFFCURVE",
"800 1477 OFFCURVE",
"747 1396 CURVE",
"692 1477 OFFCURVE",
"610 1518 OFFCURVE",
"501 1518 CURVE SMOOTH",
"195 1518 OFFCURVE",
"60 1403 OFFCURVE",
"60 1105 CURVE SMOOTH",
"60 1084 OFFCURVE",
"60 1067 OFFCURVE",
"61 1056 CURVE",
"409 1056 LINE",
"409 1157 LINE SMOOTH",
"409 1212 OFFCURVE",
"434 1239 OFFCURVE",
"483 1239 CURVE SMOOTH",
"578 1239 OFFCURVE",
"560 1079 OFFCURVE",
"560 983 CURVE SMOOTH",
"560 980 LINE",
"224 865 OFFCURVE",
"38 839 OFFCURVE",
"38 430 CURVE SMOOTH"
);
},
{
closed = 1;
nodes = (
"559 322 OFFCURVE",
"541 262 OFFCURVE",
"483 262 CURVE SMOOTH",
"430 262 OFFCURVE",
"403 306 OFFCURVE",
"403 395 CURVE SMOOTH",
"403 570 LINE SMOOTH",
"403 687 OFFCURVE",
"460 734 OFFCURVE",
"559 774 CURVE",
"559 379 LINE SMOOTH"
);
},
{
closed = 1;
nodes = (
"921 931 LINE",
"921 1052 LINE SMOOTH",
"921 1167 OFFCURVE",
"921 1249 OFFCURVE",
"1010 1249 CURVE SMOOTH",
"1063 1249 OFFCURVE",
"1090 1195 OFFCURVE",
"1090 1087 CURVE SMOOTH",
"1090 931 LINE"
);
}
);
width = 1497;
}
);
unicode = 00E6;
},
{
glyphname = b;
layers = (
{
layerId = "DBFADC97-046A-4853-BE6B-B7E9D7A52A7E";
name = "Bold Condensed";
paths = (
{
closed = 1;
nodes = (
"508 41 OFFCURVE",
"580 -18 OFFCURVE",
"677 -18 CURVE SMOOTH",
"901 -18 OFFCURVE",
"993 160 OFFCURVE",
"993 391 CURVE SMOOTH",
"993 1114 LINE SMOOTH",
"993 1360 OFFCURVE",
"910 1518 OFFCURVE",
"666 1518 CURVE SMOOTH",
"593 1518 OFFCURVE",
"506 1482 OFFCURVE",
"464 1407 CURVE",
"464 1769 LINE",
"110 1769 LINE",
"110 0 LINE",
"464 0 LINE",
"464 160 LINE"
);
},
{
closed = 1;
nodes = (
"635 344 OFFCURVE",
"637 260 OFFCURVE",
"558 260 CURVE SMOOTH",
"475 260 OFFCURVE",
"464 346 OFFCURVE",
"464 454 CURVE SMOOTH",
"464 1086 LINE SMOOTH",
"464 1176 OFFCURVE",
"484 1240 OFFCURVE",
"556 1240 CURVE SMOOTH",
"626 1240 OFFCURVE",
"635 1172 OFFCURVE",
"635 1082 CURVE SMOOTH",
"635 454 LINE SMOOTH"
);
}
);
width = 1083;
}
);
unicode = 0062;
},
{
glyphname = c;
lastChange = "2012-12-22 13:12:47 +0000";
layers = (
{
anchors = (
{
name = bottom;
position = "{520, 0}";
},
{
name = top;
position = "{555, 1500}";
}
);
layerId = "DBFADC97-046A-4853-BE6B-B7E9D7A52A7E";
name = "Bold Condensed";
paths = (
{
closed = 1;
nodes = (
"90 158 OFFCURVE",
"211 -18 OFFCURVE",
"547 -18 CURVE SMOOTH",
"797 -18 OFFCURVE",
"955 130 OFFCURVE",
"955 379 CURVE SMOOTH",
"955 614 LINE",
"617 614 LINE",
"617 385 LINE SMOOTH",
"617 318 OFFCURVE",
"596 260 OFFCURVE",
"534 260 CURVE SMOOTH",
"473 260 OFFCURVE",
"448 322 OFFCURVE",
"448 383 CURVE SMOOTH",
"448 1115 LINE SMOOTH",
"448 1198 OFFCURVE",
"477 1240 OFFCURVE",
"536 1240 CURVE SMOOTH",
"603 1240 OFFCURVE",
"617 1186 OFFCURVE",
"617 1117 CURVE SMOOTH",
"617 879 LINE",
"955 879 LINE",
"955 1135 LINE SMOOTH",
"955 1380 OFFCURVE",
"794 1518 OFFCURVE",
"546 1518 CURVE SMOOTH",
"189 1518 OFFCURVE",
"90 1330 OFFCURVE",
"90 954 CURVE SMOOTH",
"90 492 LINE SMOOTH"
);
}
);
width = 1037;
}
);
unicode = 0063;
},
{
glyphname = d;
lastChange = "2012-12-22 13:13:00 +0000";
layers = (
{
anchors = (
{
name = center;
position = "{793, 1617}";
}
);
layerId = "DBFADC97-046A-4853-BE6B-B7E9D7A52A7E";
name = "Bold Condensed";
paths = (
{
closed = 1;
nodes = (
"90 201 OFFCURVE",
"120 -18 OFFCURVE",
"397 -18 CURVE SMOOTH",
"522 -18 OFFCURVE",
"584 51 OFFCURVE",
"624 159 CURVE",
"624 0 LINE",
"978 0 LINE",
"978 1768 LINE",
"624 1768 LINE",
"624 1419 LINE",
"575 1485 OFFCURVE",
"498 1518 OFFCURVE",
"403 1518 CURVE SMOOTH",
"198 1518 OFFCURVE",
"90 1357 OFFCURVE",
"90 1153 CURVE SMOOTH",
"90 477 LINE SMOOTH"
);
},
{
closed = 1;
nodes = (
"624 388 OFFCURVE",
"634 260 OFFCURVE",
"536 260 CURVE SMOOTH",
"479 260 OFFCURVE",
"448 323 OFFCURVE",
"448 448 CURVE SMOOTH",
"448 1084 LINE SMOOTH",
"448 1161 OFFCURVE",
"461 1240 OFFCURVE",
"538 1240 CURVE SMOOTH",
"608 1240 OFFCURVE",
"624 1154 OFFCURVE",
"624 1084 CURVE SMOOTH",
"624 486 LINE SMOOTH"
);
}
);
width = 1088;
}
);
unicode = 0064;
},
{
glyphname = eth;
layers = (
{
layerId = "DBFADC97-046A-4853-BE6B-B7E9D7A52A7E";
name = "Bold Condensed";
paths = (
{
closed = 1;
nodes = (
"81 157 OFFCURVE",
"195 -21 OFFCURVE",
"536 -21 CURVE SMOOTH",
"903 -21 OFFCURVE",
"975 145 OFFCURVE",
"975 543 CURVE SMOOTH",
"975 779 LINE SMOOTH",
"975 1095.5 OFFCURVE",
"902.455 1323.96 OFFCURVE",
"804.313 1484.96 CURVE",
"966 1568.8 LINE",
"891 1734.8 LINE",
"692.286 1631.76 LINE",
"624.966 1702.33 OFFCURVE",
"554.322 1750.52 OFFCURVE",
"491 1781 CURVE",
"248 1622 LINE",
"308.204 1578.06 OFFCURVE",
"360.468 1531.11 OFFCURVE",
"404.875 1482.74 CURVE",
"243 1398.8 LINE",
"318 1232.8 LINE",
"514.66 1334.77 LINE",
"568.398 1241.96 OFFCURVE",
"595 1149.63 OFFCURVE",
"595 1068 CURVE",
"564 1081 OFFCURVE",
"536 1095 OFFCURVE",
"446 1095 CURVE SMOOTH",
"197 1095 OFFCURVE",
"81 916 OFFCURVE",
"81 609 CURVE SMOOTH",
"81 515 LINE SMOOTH"
);
},
{
closed = 1;
nodes = (
"615 331 OFFCURVE",
"591 294 OFFCURVE",
"532 294 CURVE SMOOTH",
"466 294 OFFCURVE",
"441 336 OFFCURVE",
"441 424 CURVE SMOOTH",
"441 665 LINE SMOOTH",
"441 749 OFFCURVE",
"464 792 OFFCURVE",
"525 792 CURVE SMOOTH",
"587 792 OFFCURVE",
"615 755 OFFCURVE",
"615 660 CURVE SMOOTH",
"615 418 LINE SMOOTH"
);
}
);
width = 1080;
}
);
unicode = 00F0;
},
{
glyphname = e;
lastChange = "2012-12-22 13:13:20 +0000";
layers = (
{
anchors = (
{
name = bottom;
position = "{604, 0}";
},
{
name = ogonek;
position = "{748, 10}";
},
{
name = top;
position = "{530, 1499}";
}
);
layerId = "DBFADC97-046A-4853-BE6B-B7E9D7A52A7E";
name = "Bold Condensed";
paths = (
{
closed = 1;
nodes = (
"90 170 OFFCURVE",
"201 -18 OFFCURVE",
"522 -18 CURVE SMOOTH",
"862 -18 OFFCURVE",
"968 138 OFFCURVE",
"968 475 CURVE SMOOTH",
"968 579 LINE",
"616 579 LINE",
"616 431 LINE SMOOTH",
"616 343 OFFCURVE",
"620 260 OFFCURVE",
"534 260 CURVE SMOOTH",
"454 260 OFFCURVE",
"448 346 OFFCURVE",
"448 427 CURVE SMOOTH",
"448 717 LINE",
"968 717 LINE",
"968 1092 LINE SMOOTH",
"968 1376 OFFCURVE",
"828 1518 OFFCURVE",
"540 1518 CURVE SMOOTH",
"260 1518 OFFCURVE",
"90 1371 OFFCURVE",
"90 1092 CURVE SMOOTH",
"90 489 LINE SMOOTH"
);
},
{
closed = 1;
nodes = (
"446 895 LINE",
"446 1081 LINE SMOOTH",
"446 1170 OFFCURVE",
"449 1249 OFFCURVE",
"536 1249 CURVE SMOOTH",
"589 1249 OFFCURVE",
"616 1195 OFFCURVE",
"616 1087 CURVE SMOOTH",
"616 895 LINE"
);
}
);
width = 1056;
}
);
unicode = 0065;
},
{
glyphname = f;
lastChange = "2012-12-22 13:38:16 +0000";
layers = (
{
anchors = (
{
name = top;
position = "{396, 1760}";
}
);
layerId = "DBFADC97-046A-4853-BE6B-B7E9D7A52A7E";
name = "Bold Condensed";
paths = (
{
closed = 1;
nodes = (
"134 0 LINE",
"488 0 LINE",
"488 1190 LINE",
"602 1190 LINE",
"602 1440 LINE",
"488 1440 LINE",
"488 1493 LINE SMOOTH",
"488 1541 OFFCURVE",
"524 1551 OFFCURVE",
"559 1551 CURVE SMOOTH",
"574 1551 OFFCURVE",
"590 1550 OFFCURVE",
"602 1548 CURVE",
"602 1749 LINE",
"573 1761 OFFCURVE",
"502 1780 OFFCURVE",
"415 1780 CURVE SMOOTH",
"254 1780 OFFCURVE",
"136 1686 OFFCURVE",
"136 1525 CURVE SMOOTH",
"136 1440 LINE",
"36 1440 LINE",
"36 1190 LINE",
"134 1190 LINE"
);
}
);
width = 658;
}
);
unicode = 0066;
},
{
glyphname = g;
lastChange = "2012-12-22 13:13:37 +0000";
layers = (
{
anchors = (
{
name = top;
position = "{567, 1500}";
}
);
layerId = "DBFADC97-046A-4853-BE6B-B7E9D7A52A7E";
name = "Bold Condensed";
paths = (
{
closed = 1;
nodes = (
"185 -194 OFFCURVE",
"290 -220 OFFCURVE",
"498 -220 CURVE SMOOTH",
"835 -220 OFFCURVE",
"975 -86 OFFCURVE",
"975 254 CURVE SMOOTH",
"975 1500 LINE",
"621 1500 LINE",
"621 1331 LINE",
"596 1444 OFFCURVE",
"524 1518 OFFCURVE",
"392 1518 CURVE SMOOTH",
"157 1518 OFFCURVE",
"97 1348 OFFCURVE",
"97 1106 CURVE SMOOTH",
"97 543 LINE SMOOTH",
"97 328 OFFCURVE",
"177 174 OFFCURVE",
"392 174 CURVE SMOOTH",
"515 174 OFFCURVE",
"592 211 OFFCURVE",
"621 314 CURVE",
"621 231 LINE SMOOTH",
"621 113 OFFCURVE",
"566 33 OFFCURVE",
"451 33 CURVE SMOOTH",
"364 33 OFFCURVE",
"276 59 OFFCURVE",
"189 111 CURVE",
"68 -96 LINE"
);
},
{
closed = 1;
nodes = (
"621 481 OFFCURVE",
"593 430 OFFCURVE",
"537 430 CURVE SMOOTH",
"463 430 OFFCURVE",
"455 510 OFFCURVE",
"455 582 CURVE SMOOTH",
"455 1116 LINE SMOOTH",
"455 1183 OFFCURVE",
"464 1240 OFFCURVE",
"533 1240 CURVE SMOOTH",
"588 1240 OFFCURVE",
"621 1171 OFFCURVE",
"621 1116 CURVE SMOOTH",
"621 582 LINE SMOOTH"
);
}
);
width = 1077;
}
);
unicode = 0067;
},
{
glyphname = h;
lastChange = "2012-12-22 13:13:51 +0000";
layers = (
{
anchors = (
{
name = center;
position = "{293, 1577}";
},
{
name = top;
position = "{592, 1760}";
}
);
layerId = "DBFADC97-046A-4853-BE6B-B7E9D7A52A7E";
name = "Bold Condensed";
paths = (
{
closed = 1;
nodes = (
"110 0 LINE",
"464 0 LINE",
"464 1056 LINE SMOOTH",
"464 1139 OFFCURVE",
"471 1240 OFFCURVE",
"554 1240 CURVE SMOOTH",
"612 1240 OFFCURVE",
"634 1180 OFFCURVE",
"634 1121 CURVE SMOOTH",
"634 0 LINE",
"988 0 LINE",
"988 1157 LINE SMOOTH",
"988 1379 OFFCURVE",
"898 1518 OFFCURVE",
"690 1518 CURVE SMOOTH",
"561 1518 OFFCURVE",
"490 1423 OFFCURVE",
"464 1309 CURVE",
"464 1769 LINE",
"110 1769 LINE"
);
}
);
width = 1088;
}
);
unicode = 0068;
},
{
glyphname = hbar;
layers = (
{
layerId = "DBFADC97-046A-4853-BE6B-B7E9D7A52A7E";
name = "Bold Condensed";
paths = (
{
closed = 1;
nodes = (
"112 0 LINE",
"468 0 LINE",
"468 910 LINE SMOOTH",
"468 993 OFFCURVE",
"475 1094 OFFCURVE",
"558 1094 CURVE SMOOTH",
"616 1094 OFFCURVE",
"638 1034 OFFCURVE",
"638 975 CURVE SMOOTH",
"638 0 LINE",
"994 0 LINE",
"994 1012 LINE SMOOTH",
"994 1234 OFFCURVE",
"902 1373 OFFCURVE",
"694 1373 CURVE SMOOTH",
"565 1373 OFFCURVE",
"494 1278 OFFCURVE",
"468 1164 CURVE",
"468 1468 LINE",
"816 1468 LINE",
"816 1638 LINE",
"468 1638 LINE",
"468 1769 LINE",
"112 1769 LINE",
"112 1638 LINE",
"0 1638 LINE",
"0 1468 LINE",
"112 1468 LINE"
);
}
);
width = 1099;
}
);
unicode = 0127;
},
{
glyphname = hcircumflex;
layers = (
{
layerId = "DBFADC97-046A-4853-BE6B-B7E9D7A52A7E";
name = "Bold Condensed";
paths = (
{
closed = 1;
nodes = (
"112 0 LINE",
"468 0 LINE",
"468 1055 LINE SMOOTH",
"468 1138 OFFCURVE",
"475 1239 OFFCURVE",
"558 1239 CURVE SMOOTH",
"616 1239 OFFCURVE",
"638 1179 OFFCURVE",
"638 1120 CURVE SMOOTH",
"638 0 LINE",
"994 0 LINE",
"994 1157 LINE SMOOTH",
"994 1379 OFFCURVE",
"902 1518 OFFCURVE",
"694 1518 CURVE SMOOTH",
"565 1518 OFFCURVE",
"494 1423 OFFCURVE",
"468 1309 CURVE",
"468 1769 LINE",
"112 1769 LINE"
);
},
{
closed = 1;
nodes = (
"108 1932 LINE",
"467 1932 LINE",
"553 2217 LINE",
"639 1932 LINE",
"998 1932 LINE",
"757 2335 LINE",
"349 2335 LINE"
);
}
);
width = 1099;
}
);
unicode = 0125;
},
{
glyphname = i;
layers = (
{
layerId = "DBFADC97-046A-4853-BE6B-B7E9D7A52A7E";
name = "Bold Condensed";
paths = (
{
closed = 1;
nodes = (
"110 0 LINE",
"464 0 LINE",
"464 1500 LINE",
"110 1500 LINE"
);
},
{
closed = 1;
nodes = (
"110 1600 LINE",
"464 1600 LINE",
"464 1800 LINE",
"110 1800 LINE"
);
}
);
width = 574;
}
);
unicode = 0069;
},
{
glyphname = dotlessi;
lastChange = "2012-12-22 13:31:48 +0000";
layers = (
{
anchors = (
{
name = ogonek;
position = "{527, 10}";
},
{
name = top;
position = "{293, 1500}";
}
);
layerId = "DBFADC97-046A-4853-BE6B-B7E9D7A52A7E";
name = "Bold Condensed";
paths = (
{
closed = 1;
nodes = (
"115 0 LINE",
"471 0 LINE",
"471 1500 LINE",
"115 1500 LINE"
);
}
);
width = 586;
}
);
unicode = 0131;
},
{
glyphname = uni0237;
lastChange = "2012-12-22 13:35:55 +0000";
layers = (
{
anchors = (
{
name = top;
position = "{321, 1500}";
}
);
layerId = "DBFADC97-046A-4853-BE6B-B7E9D7A52A7E";
name = "Bold Condensed";
paths = (
{
closed = 1;
nodes = (
"66 -167 OFFCURVE",
"146 -176 OFFCURVE",
"223 -176 CURVE SMOOTH",
"429 -176 OFFCURVE",
"505 -47 OFFCURVE",
"505 166 CURVE SMOOTH",
"505 1500 LINE",
"149 1500 LINE",
"149 156 LINE SMOOTH",
"149 119 OFFCURVE",
"129 89 OFFCURVE",
"66 89 CURVE SMOOTH",
"59 89 OFFCURVE",
"50 89 OFFCURVE",
"41 90 CURVE",
"41 -150 LINE"
);
}
);
width = 610;
}
);
unicode = 0237;
},
{
glyphname = k;
lastChange = "2012-12-22 13:14:10 +0000";
layers = (
{
anchors = (
{
name = bottom;
position = "{523, 0}";
}
);
layerId = "DBFADC97-046A-4853-BE6B-B7E9D7A52A7E";
name = "Bold Condensed";
paths = (
{
closed = 1;
nodes = (
"682 0 LINE",
"1040 0 LINE",
"776 767 LINE",
"1024 1500 LINE",
"662 1500 LINE",
"662 1500 OFFCURVE",
"432 777 OFFCURVE",
"432 777 CURVE"
);
},
{
closed = 1;
nodes = (
"110 0 LINE",
"464 0 LINE",
"464 1769 LINE",
"110 1769 LINE"
);
}
);
width = 1045;
}
);
unicode = 006B;
},
{
glyphname = kgreenlandic;
layers = (
{
layerId = "DBFADC97-046A-4853-BE6B-B7E9D7A52A7E";
name = "Bold Condensed";
paths = (
{
closed = 1;
nodes = (
"62 0 LINE",
"416 0 LINE",
"416 634 LINE",
"639 0 LINE",
"1020 0 LINE",
"734 775 LINE",
"959 1500 LINE",
"588 1500 LINE",
"416 910 LINE",
"416 1500 LINE",
"62 1500 LINE"
);
}
);
width = 1040;
}
);
unicode = 0138;
},
{
glyphname = l;
lastChange = "2012-12-22 13:14:25 +0000";
layers = (
{
anchors = (
{
name = bottom;
position = "{292, 0}";
},
{
name = top;
position = "{292, 1760}";
},
{
name = topright;
position = "{590, 1500}";
}
);
layerId = "DBFADC97-046A-4853-BE6B-B7E9D7A52A7E";
name = "Bold Condensed";
paths = (
{
closed = 1;
nodes = (
"115 0 LINE",
"469 0 LINE",
"469 1769 LINE",
"115 1769 LINE"
);
}
);
width = 584;
}
);
unicode = 006C;
},
{
glyphname = lcaron;
layers = (
{
layerId = "DBFADC97-046A-4853-BE6B-B7E9D7A52A7E";
name = "Bold Condensed";
paths = (
{
closed = 1;
nodes = (
"784.5 1123 LINE",
"952.5 1123 LINE",
"1054.5 1460 LINE",
"1054.5 1769 LINE",
"723.5 1769 LINE",
"723.5 1451 LINE",
"850.5 1451 LINE"
);
},
{
closed = 1;
nodes = (
"115 0 LINE",
"479 0 LINE",
"479 1769 LINE",
"115 1769 LINE"
);
}
);
width = 594;
}
);
unicode = 013E;
},
{
glyphname = lslash;
layers = (
{
layerId = "DBFADC97-046A-4853-BE6B-B7E9D7A52A7E";
name = "Bold Condensed";
paths = (
{
closed = 1;
nodes = (
"176 0 LINE",
"540 0 LINE",
"540 886 LINE",
"617 921 LINE",
"617 1153 LINE",
"540 1118 LINE",
"540 1767 LINE",
"176 1767 LINE",
"176 955 LINE",
"101 921 LINE",
"101 689 LINE",
"176 723 LINE"
);
}
);
width = 718;
}
);
unicode = 0142;
},
{
glyphname = m;
lastChange = "2012-12-22 13:37:25 +0000";
layers = (
{
anchors = (
{
name = top;
position = "{908, 1500}";
}
);
layerId = "DBFADC97-046A-4853-BE6B-B7E9D7A52A7E";
name = "Bold Condensed";
paths = (
{
closed = 1;
nodes = (
"110 0 LINE",
"464 0 LINE",
"464 1059 LINE SMOOTH",
"464 1140 OFFCURVE",
"485 1240 OFFCURVE",
"566 1240 CURVE SMOOTH",
"629 1240 OFFCURVE",
"636 1162 OFFCURVE",
"636 1099 CURVE SMOOTH",
"636 0 LINE",
"990 0 LINE",
"990 1095 LINE SMOOTH",
"990 1430 OFFCURVE",
"881 1518 OFFCURVE",
"712 1518 CURVE SMOOTH",
"562 1518 OFFCURVE",
"496 1448 OFFCURVE",
"464 1326 CURVE",
"464 1500 LINE",
"110 1500 LINE"
);
},
{
closed = 1;
nodes = (
"1160 0 LINE",
"1514 0 LINE",
"1514 1096 LINE SMOOTH",
"1514 1343 OFFCURVE",
"1457 1518 OFFCURVE",
"1208 1518 CURVE SMOOTH",
"1070 1518 OFFCURVE",
"1003 1462 OFFCURVE",
"948 1363 CURVE",
"948 1363 OFFCURVE",
"990 1077 OFFCURVE",
"990 1077 CURVE SMOOTH",
"990 1154 OFFCURVE",
"1010 1240 OFFCURVE",
"1087 1240 CURVE SMOOTH",
"1136 1240 OFFCURVE",
"1160 1192 OFFCURVE",
"1160 1095 CURVE SMOOTH"
);
}
);
width = 1614;
}
);
unicode = 006D;
},
{
glyphname = n;
lastChange = "2012-12-22 13:14:46 +0000";
layers = (
{
anchors = (
{
name = bottom;
position = "{547, 0}";
},
{
name = top;
position = "{547, 1500}";
}
);
layerId = "DBFADC97-046A-4853-BE6B-B7E9D7A52A7E";
name = "Bold Condensed";
paths = (
{
closed = 1;
nodes = (
"110 0 LINE",
"464 0 LINE",
"464 1055 LINE SMOOTH",
"464 1138 OFFCURVE",
"475 1240 OFFCURVE",
"558 1240 CURVE SMOOTH",
"616 1240 OFFCURVE",
"640 1179 OFFCURVE",
"640 1120 CURVE SMOOTH",
"640 0 LINE",
"994 0 LINE",
"994 1157 LINE SMOOTH",
"994 1379 OFFCURVE",
"912 1518 OFFCURVE",
"704 1518 CURVE SMOOTH",
"575 1518 OFFCURVE",
"490 1423 OFFCURVE",
"464 1309 CURVE",
"464 1500 LINE",
"110 1500 LINE"
);
}
);
width = 1094;
}
);
unicode = 006E;
},
{
glyphname = o;
lastChange = "2012-12-22 13:14:55 +0000";
layers = (
{
anchors = (
{
name = top;
position = "{527, 1500}";
}
);
layerId = "DBFADC97-046A-4853-BE6B-B7E9D7A52A7E";
name = "Bold Condensed";
paths = (
{
closed = 1;
nodes = (
"606 308 OFFCURVE",
"587 260 OFFCURVE",
"527 260 CURVE SMOOTH",
"467 260 OFFCURVE",
"448 308 OFFCURVE",
"448 375 CURVE SMOOTH",
"448 1108 LINE SMOOTH",
"448 1195 OFFCURVE",
"471 1240 OFFCURVE",
"527 1240 CURVE SMOOTH",
"583 1240 OFFCURVE",
"606 1195 OFFCURVE",
"606 1108 CURVE SMOOTH",
"606 375 LINE SMOOTH"
);
},
{
closed = 1;
nodes = (
"90 134 OFFCURVE",
"228 -18 OFFCURVE",
"527 -18 CURVE SMOOTH",
"828 -18 OFFCURVE",
"964 139 OFFCURVE",
"964 445 CURVE SMOOTH",
"964 1051 LINE SMOOTH",
"964 1334 OFFCURVE",
"808 1518 OFFCURVE",
"527 1518 CURVE SMOOTH",
"247 1518 OFFCURVE",
"90 1333 OFFCURVE",
"90 1051 CURVE SMOOTH",
"90 445 LINE SMOOTH"
);
}
);
width = 1054;
}
);
unicode = 006F;
},
{
glyphname = oslash;
layers = (
{
anchors = (
{
name = top;
position = "{538, 0}";
}
);
layerId = "DBFADC97-046A-4853-BE6B-B7E9D7A52A7E";
name = "Bold Condensed";
paths = (
{
closed = 1;
nodes = (
"340 -173 LINE",
"388 -2 LINE",
"433 -13 OFFCURVE",
"483 -18 OFFCURVE",
"538 -18 CURVE SMOOTH",
"839 -18 OFFCURVE",
"978 143 OFFCURVE",
"978 449 CURVE SMOOTH",
"978 1051 LINE SMOOTH",
"978 1231 OFFCURVE",
"914 1371 OFFCURVE",
"795 1449 CURVE",
"850 1644 LINE",
"749 1672 LINE",
"699 1494 LINE",
"651 1510 OFFCURVE",
"597 1518 OFFCURVE",
"538 1518 CURVE SMOOTH",
"258 1518 OFFCURVE",
"98 1333 OFFCURVE",
"98 1051 CURVE SMOOTH",
"98 449 LINE SMOOTH",
"98 242 OFFCURVE",
"160 103 OFFCURVE",
"290 34 CURVE",
"240 -145 LINE"
);
},
{
closed = 1;
nodes = (
"622 308 OFFCURVE",
"598 260 OFFCURVE",
"538 260 CURVE SMOOTH",
"506 260 OFFCURVE",
"484 274 OFFCURVE",
"471 296 CURVE",
"622 833 LINE",
"622 375 LINE SMOOTH"
);
},
{
closed = 1;
nodes = (
"454 619 LINE",
"454 1108 LINE SMOOTH",
"454 1195 OFFCURVE",
"482 1239 OFFCURVE",
"538 1239 CURVE SMOOTH",
"575 1239 OFFCURVE",
"599 1220 OFFCURVE",
"612 1183 CURVE"
);
}
);
width = 1076;
}
);
unicode = 00F8;
},
{
glyphname = oe;
layers = (
{
anchors = (
{
name = top;
position = "{757, 0}";
}
);
layerId = "DBFADC97-046A-4853-BE6B-B7E9D7A52A7E";
name = "Bold Condensed";
paths = (
{
closed = 1;
nodes = (
"48 138 OFFCURVE",
"197 -18 OFFCURVE",
"496 -18 CURVE SMOOTH",
"606 -18 OFFCURVE",
"696 11 OFFCURVE",
"766 69 CURVE",
"829 11 OFFCURVE",
"911 -18 OFFCURVE",
"1012 -18 CURVE SMOOTH",
"1352 -18 OFFCURVE",
"1462 157 OFFCURVE",
"1462 494 CURVE SMOOTH",
"1462 579 LINE",
"1106 579 LINE",
"1107 574 OFFCURVE",
"1108 542 OFFCURVE",
"1108 483 CURVE SMOOTH",
"1108 395 OFFCURVE",
"1110 260 OFFCURVE",
"1024 260 CURVE SMOOTH",
"944 260 OFFCURVE",
"937 346 OFFCURVE",
"937 427 CURVE SMOOTH",
"937 439 OFFCURVE",
"938 482 OFFCURVE",
"938 494 CURVE SMOOTH",
"938 704 LINE",
"1458 704 LINE",
"1461 755 OFFCURVE",
"1462 848 OFFCURVE",
"1462 983 CURVE SMOOTH",
"1462 1092 LINE SMOOTH",
"1462 1376 OFFCURVE",
"1318 1518 OFFCURVE",
"1030 1518 CURVE SMOOTH",
"919 1518 OFFCURVE",
"829 1486 OFFCURVE",
"761 1422 CURVE",
"686 1486 OFFCURVE",
"598 1518 OFFCURVE",
"496 1518 CURVE SMOOTH",
"216 1518 OFFCURVE",
"48 1333 OFFCURVE",
"48 1051 CURVE SMOOTH",
"48 449 LINE SMOOTH"
);
},
{
closed = 1;
nodes = (
"580 308 OFFCURVE",
"556 260 OFFCURVE",
"496 260 CURVE SMOOTH",
"436 260 OFFCURVE",
"412 308 OFFCURVE",
"412 375 CURVE SMOOTH",
"412 1108 LINE SMOOTH",
"412 1195 OFFCURVE",
"440 1239 OFFCURVE",
"496 1239 CURVE SMOOTH",
"552 1239 OFFCURVE",
"580 1195 OFFCURVE",
"580 1108 CURVE SMOOTH",
"580 375 LINE SMOOTH"
);
},
{
closed = 1;
nodes = (
"938 931 LINE",
"938 955 OFFCURVE",
"936 1033 OFFCURVE",
"936 1057 CURVE SMOOTH",
"936 1146 OFFCURVE",
"939 1249 OFFCURVE",
"1026 1249 CURVE SMOOTH",
"1079 1249 OFFCURVE",
"1106 1195 OFFCURVE",
"1106 1087 CURVE SMOOTH",
"1106 931 LINE"
);
}
);
width = 1513;
}
);
unicode = 0153;
},
{
glyphname = p;
lastChange = "2012-12-22 13:37:50 +0000";
layers = (
{
anchors = (
{
name = top;
position = "{540, 1500}";
}
);
layerId = "DBFADC97-046A-4853-BE6B-B7E9D7A52A7E";
name = "Bold Condensed";
paths = (
{
closed = 1;
nodes = (
"110 -300 LINE",
"464 -300 LINE",
"464 78 LINE",
"511 27 OFFCURVE",
"587 -18 OFFCURVE",
"677 -18 CURVE SMOOTH",
"973 -18 OFFCURVE",
"997 225 OFFCURVE",
"997 521 CURVE SMOOTH",
"997 1075 LINE SMOOTH",
"997 1323 OFFCURVE",
"942 1518 OFFCURVE",
"694 1518 CURVE SMOOTH",
"605 1518 OFFCURVE",
"502 1449 OFFCURVE",
"464 1349 CURVE",
"464 1500 LINE",
"110 1500 LINE"
);
},
{
closed = 1;
nodes = (
"639 344 OFFCURVE",
"628 260 OFFCURVE",
"555 260 CURVE SMOOTH",
"480 260 OFFCURVE",
"464 334 OFFCURVE",
"464 420 CURVE SMOOTH",
"464 1084 LINE SMOOTH",
"464 1188 OFFCURVE",
"497 1240 OFFCURVE",
"553 1240 CURVE SMOOTH",
"630 1240 OFFCURVE",
"639 1157 OFFCURVE",
"639 1080 CURVE SMOOTH",
"639 436 LINE SMOOTH"
);
}
);
width = 1087;
}
);
unicode = 0070;
},
{
glyphname = thorn;
layers = (
{
layerId = "DBFADC97-046A-4853-BE6B-B7E9D7A52A7E";
name = "Bold Condensed";
paths = (
{
closed = 1;
nodes = (
"112 -300 LINE",
"468 -300 LINE",
"468 78 LINE",
"515 27 OFFCURVE",
"585 -18 OFFCURVE",
"675 -18 CURVE SMOOTH",
"971 -18 OFFCURVE",
"993 225 OFFCURVE",
"993 521 CURVE SMOOTH",
"993 1075 LINE SMOOTH",
"993 1323 OFFCURVE",
"940 1518 OFFCURVE",
"692 1518 CURVE SMOOTH",
"603 1518 OFFCURVE",
"506 1449 OFFCURVE",
"468 1349 CURVE",
"468 1769 LINE",
"112 1769 LINE"
);
},
{
closed = 1;
nodes = (
"637 346 OFFCURVE",
"629 262 OFFCURVE",
"556 262 CURVE SMOOTH",
"481 262 OFFCURVE",
"468 336 OFFCURVE",
"468 422 CURVE SMOOTH",
"468 1079 LINE SMOOTH",
"468 1183 OFFCURVE",
"498 1235 OFFCURVE",
"554 1235 CURVE SMOOTH",
"631 1235 OFFCURVE",
"637 1152 OFFCURVE",
"637 1075 CURVE SMOOTH",
"637 438 LINE SMOOTH"
);
}
);
width = 1091;
}
);
unicode = 00FE;
},
{
glyphname = q;
layers = (
{
layerId = "DBFADC97-046A-4853-BE6B-B7E9D7A52A7E";
name = "Bold Condensed";
paths = (
{
closed = 1;
nodes = (
"616 -300 LINE",
"970 -300 LINE",
"970 1500 LINE",
"616 1500 LINE",
"616 1389 LINE",
"578 1474 OFFCURVE",
"491 1518 OFFCURVE",
"401 1518 CURVE SMOOTH",
"176 1518 OFFCURVE",
"90 1322 OFFCURVE",
"90 1075 CURVE SMOOTH",
"90 482 LINE SMOOTH",
"90 191 OFFCURVE",
"146 -18 OFFCURVE",
"411 -18 CURVE SMOOTH",
"503 -18 OFFCURVE",
"589 35 OFFCURVE",
"616 100 CURVE"
);
},
{
closed = 1;
nodes = (
"616 333 OFFCURVE",
"603 260 OFFCURVE",
"527 260 CURVE SMOOTH",
"452 260 OFFCURVE",
"448 344 OFFCURVE",
"448 436 CURVE SMOOTH",
"448 1080 LINE SMOOTH",
"448 1157 OFFCURVE",
"450 1240 OFFCURVE",
"529 1240 CURVE SMOOTH",
"585 1240 OFFCURVE",
"616 1188 OFFCURVE",
"616 1084 CURVE SMOOTH",
"616 420 LINE SMOOTH"
);
}
);
width = 1080;
}
);
unicode = 0071;
},
{
glyphname = r;
lastChange = "2012-12-22 13:15:18 +0000";
layers = (
{
anchors = (
{
name = bottom;
position = "{372, 0}";
},
{
name = top;
position = "{437, 1500}";
}
);
layerId = "DBFADC97-046A-4853-BE6B-B7E9D7A52A7E";
name = "Bold Condensed";
paths = (
{
closed = 1;
nodes = (
"110 0 LINE",
"468 0 LINE",
"468 1147 LINE SMOOTH",
"468 1187 OFFCURVE",
"638 1219 OFFCURVE",
"726 1219 CURVE",
"726 1219 OFFCURVE",
"728 1518 OFFCURVE",
"723 1518 CURVE SMOOTH",
"590 1518 OFFCURVE",
"502 1449 OFFCURVE",
"468 1333 CURVE",
"468 1500 LINE",
"110 1500 LINE"
);
}
);
width = 743.395;
}
);
unicode = 0072;
},
{
glyphname = s;
lastChange = "2012-12-22 13:15:32 +0000";
layers = (
{
anchors = (
{
name = bottom;
position = "{468, 0}";
},
{
name = top;
position = "{494, 1500}";
}
);
layerId = "DBFADC97-046A-4853-BE6B-B7E9D7A52A7E";
name = "Bold Condensed";
paths = (
{
closed = 1;
nodes = (
"68 117 OFFCURVE",
"189 -18 OFFCURVE",
"470 -18 CURVE SMOOTH",
"760 -18 OFFCURVE",
"885 106 OFFCURVE",
"885 396 CURVE",
"885 573 OFFCURVE",
"816 710 OFFCURVE",
"655 852 CURVE SMOOTH",
"462 1023 LINE SMOOTH",
"421 1059 OFFCURVE",
"404 1099 OFFCURVE",
"404 1155 CURVE SMOOTH",
"404 1214 OFFCURVE",
"427 1240 OFFCURVE",
"479 1240 CURVE SMOOTH",
"534 1240 OFFCURVE",
"557 1206 OFFCURVE",
"557 1128 CURVE SMOOTH",
"557 1035 LINE",
"858 1035 LINE",
"858 1132 LINE SMOOTH",
"858 1402 OFFCURVE",
"743 1518 OFFCURVE",
"476 1518 CURVE SMOOTH",
"193 1518 OFFCURVE",
"72 1401 OFFCURVE",
"72 1127 CURVE SMOOTH",
"72 966 OFFCURVE",
"123 853 OFFCURVE",
"243 752 CURVE SMOOTH",
"421 598 LINE SMOOTH",
"505 527 OFFCURVE",
"541 458 OFFCURVE",
"541 368 CURVE SMOOTH",
"541 292 OFFCURVE",
"520 260 OFFCURVE",
"470 260 CURVE SMOOTH",
"415 260 OFFCURVE",
"391 293 OFFCURVE",
"391 369 CURVE SMOOTH",
"391 505 LINE",
"68 505 LINE",
"68 432 LINE SMOOTH"
);
}
);
width = 933;
}
);
unicode = 0073;
},
{
glyphname = germandbls;
layers = (
{
layerId = "DBFADC97-046A-4853-BE6B-B7E9D7A52A7E";
name = "Bold Condensed";
paths = (
{
closed = 1;
nodes = (
"122 0 LINE",
"478 0 LINE",
"478 1390 LINE SMOOTH",
"478 1441 OFFCURVE",
"516 1466 OFFCURVE",
"566 1466 CURVE SMOOTH",
"616 1466 OFFCURVE",
"641 1441 OFFCURVE",
"641 1390 CURVE SMOOTH",
"641 1170 LINE SMOOTH",
"641 1102 OFFCURVE",
"627 1051 OFFCURVE",
"557 1051 CURVE",
"557 803 LINE",
"666 803 OFFCURVE",
"704 764 OFFCURVE",
"704 656 CURVE SMOOTH",
"704 395 LINE SMOOTH",
"704 316 OFFCURVE",
"643 277 OFFCURVE",
"548 277 CURVE",
"548 0 LINE",
"652 0 LINE SMOOTH",
"952 0 OFFCURVE",
"1052 177 OFFCURVE",
"1052 476 CURVE SMOOTH",
"1052 553 LINE SMOOTH",
"1052 752 OFFCURVE",
"1006 906 OFFCURVE",
"842 945 CURVE",
"950 980 OFFCURVE",
"992 1080 OFFCURVE",
"992 1220 CURVE SMOOTH",
"992 1417 LINE SMOOTH",
"992 1678 OFFCURVE",
"825 1781 OFFCURVE",
"566 1781 CURVE SMOOTH",
"283 1781 OFFCURVE",
"122 1660 OFFCURVE",
"122 1417 CURVE SMOOTH"
);
}
);
width = 1109;
}
);
unicode = 00DF;
},
{
glyphname = t;
layers = (
{
anchors = (
{
name = bottom;
position = "{347, 0}";
},
{
name = center;
position = "{347, 0}";
}
);
layerId = "DBFADC97-046A-4853-BE6B-B7E9D7A52A7E";
name = "Bold Condensed";
paths = (
{
closed = 1;
nodes = (
"149 69 OFFCURVE",
"202 -11 OFFCURVE",
"395 -11 CURVE SMOOTH",
"635 -11 LINE",
"635 250 LINE",
"536 250 OFFCURVE",
"503 262 OFFCURVE",
"503 326 CURVE SMOOTH",
"503 1190 LINE",
"625 1190 LINE",
"625 1440 LINE",
"503 1440 LINE",
"503 1761 LINE",
"149 1761 LINE",
"149 1440 LINE",
"48 1440 LINE",
"48 1190 LINE",
"149 1190 LINE",
"149 238 LINE SMOOTH"
);
}
);
width = 693;
}
);
unicode = 0074;
},
{
glyphname = u;
lastChange = "2012-12-22 13:15:41 +0000";
layers = (
{
anchors = (
{
name = ogonek;
position = "{977, 10}";
},
{
name = top;
position = "{543, 1500}";
}
);
layerId = "DBFADC97-046A-4853-BE6B-B7E9D7A52A7E";
name = "Bold Condensed";
paths = (
{
closed = 1;
nodes = (
"100 143 OFFCURVE",
"148 -18 OFFCURVE",
"389 -18 CURVE SMOOTH",
"525 -18 OFFCURVE",
"574 45 OFFCURVE",
"620 160 CURVE",
"620 0 LINE",
"976 0 LINE",
"976 1500 LINE",
"622 1500 LINE",
"620 439 LINE",
"620 356 OFFCURVE",
"619 260 OFFCURVE",
"536 260 CURVE SMOOTH",
"448 260 OFFCURVE",
"456 338 OFFCURVE",
"456 451 CURVE SMOOTH",
"456 1500 LINE",
"100 1500 LINE",
"100 383 LINE SMOOTH"
);
}
);
width = 1086;
}
);
unicode = 0075;
},
{
glyphname = v;
layers = (
{
layerId = "DBFADC97-046A-4853-BE6B-B7E9D7A52A7E";
name = "Bold Condensed";
paths = (
{
closed = 1;
nodes = (
"255 0 LINE",
"706 0 LINE",
"925 1500 LINE",
"591 1500 LINE",
"528 774 LINE",
"503 377 LINE",
"481 377 LINE",
"451 773 LINE",
"371 1500 LINE",
"32 1500 LINE"
);
}
);
width = 956;
}
);
unicode = 0076;
},
{
glyphname = w;
lastChange = "2012-12-22 13:15:57 +0000";
layers = (
{
anchors = (
{
name = top;
position = "{694, 1500}";
}
);
layerId = "DBFADC97-046A-4853-BE6B-B7E9D7A52A7E";
name = "Bold Condensed";
paths = (
{
closed = 1;
nodes = (
"255 0 LINE",
"541 0 LINE",
"541 0 OFFCURVE",
"768 1500 OFFCURVE",
"768 1500 CURVE",
"527 1500 LINE",
"464 1064 LINE",
"425 733 LINE",
"423 733 LINE",
"385 1063 LINE",
"324 1500 LINE",
"34 1500 LINE"
);
},
{
closed = 1;
nodes = (
"851 0 LINE",
"1147 0 LINE",
"1351 1500 LINE",
"1059 1500 LINE",
"998 1058 LINE",
"962 733 LINE",
"960 733 LINE",
"916 1060 LINE",
"848 1500 LINE",
"624 1500 LINE"
);
}
);
width = 1387;
}
);
unicode = 0077;
},
{
glyphname = x;
layers = (
{
layerId = "DBFADC97-046A-4853-BE6B-B7E9D7A52A7E";
name = "Bold Condensed";
paths = (
{
closed = 1;
nodes = (
"4 0 LINE",
"336 0 LINE",
"570 707 LINE",
"628 707 LINE",
"909 1500 LINE",
"605 1500 LINE",
"383 813 LINE",
"299 813 LINE"
);
},
{
closed = 1;
nodes = (
"605 0 LINE",
"933 0 LINE",
"337 1500 LINE",
"20 1500 LINE"
);
}
);
width = 937;
}
);
unicode = 0078;
},
{
glyphname = y;
lastChange = "2012-12-22 13:16:10 +0000";
layers = (
{
anchors = (
{
name = top;
position = "{473, 1500}";
}
);
layerId = "DBFADC97-046A-4853-BE6B-B7E9D7A52A7E";
name = "Bold Condensed";
paths = (
{
closed = 1;
nodes = (
"55 -287 LINE",
"459 -287 LINE SMOOTH",
"588 -287 OFFCURVE",
"640 -229 OFFCURVE",
"656 -115 CURVE SMOOTH",
"934 1501 LINE",
"603 1501 LINE",
"529 754 LINE",
"500 352 LINE",
"471 352 LINE",
"436 754 LINE",
"359 1501 LINE",
"28 1501 LINE",
"259 91 LINE SMOOTH",
"262 69 OFFCURVE",
"264 15 OFFCURVE",
"264 2 CURVE SMOOTH",
"264 -52 OFFCURVE",
"229 -60 OFFCURVE",
"167 -60 CURVE SMOOTH",
"55 -60 LINE"
);
}
);
width = 945;
}
);
unicode = 0079;
},
{
glyphname = z;
lastChange = "2012-12-22 13:16:16 +0000";
layers = (
{
anchors = (
{
name = top;
position = "{447, 1500}";
}
);
layerId = "DBFADC97-046A-4853-BE6B-B7E9D7A52A7E";
name = "Bold Condensed";
paths = (
{
closed = 1;
nodes = (
"61 0 LINE",
"737 0 LINE",
"737 294 LINE",
"422 294 LINE",
"745 1233 LINE",
"745 1500 LINE",
"86 1500 LINE",
"86 1197 LINE",
"392 1197 LINE",
"61 272 LINE"
);
}
);
width = 799;
}
);
unicode = 007A;
},
{
glyphname = uniFB01;
layers = (
{
layerId = "DBFADC97-046A-4853-BE6B-B7E9D7A52A7E";
name = "Bold Condensed";
paths = (
{
closed = 1;
nodes = (
"130 0 LINE",
"486 0 LINE",
"486 1190 LINE",
"768 1190 LINE",
"768 0 LINE",
"1124 0 LINE",
"1124 1440 LINE",
"486 1440 LINE",
"486 1493 LINE SMOOTH",
"486 1541 OFFCURVE",
"522 1551 OFFCURVE",
"557 1551 CURVE SMOOTH",
"572 1551 OFFCURVE",
"588 1550 OFFCURVE",
"600 1548 CURVE",
"600 1749 LINE",
"554 1768 OFFCURVE",
"490 1788 OFFCURVE",
"413 1788 CURVE SMOOTH",
"252 1788 OFFCURVE",
"130 1697 OFFCURVE",
"130 1536 CURVE SMOOTH",
"130 1440 LINE",
"34 1440 LINE",
"34 1190 LINE",
"130 1190 LINE"
);
},
{
closed = 1;
nodes = (
"768 1600 LINE",
"1124 1600 LINE",
"1124 1800 LINE",
"768 1800 LINE"
);
}
);
width = 1239;
}
);
unicode = FB01;
},
{
glyphname = uniFB02;
layers = (
{
layerId = "DBFADC97-046A-4853-BE6B-B7E9D7A52A7E";
name = "Bold Condensed";
paths = (
{
closed = 1;
nodes = (
"130 0 LINE",
"486 0 LINE",
"486 1190 LINE",
"600 1190 LINE",
"600 1440 LINE",
"486 1440 LINE",
"486 1535.25 OFFCURVE",
"510.443 1562.81 OFFCURVE",
"609.224 1562.81 CURVE SMOOTH",
"655.726 1562.81 OFFCURVE",
"711.193 1555.68 OFFCURVE",
"768 1549.54 CURVE",
"768 0 LINE",
"1132 0 LINE",
"1132 1709 LINE",
"987.215 1748.09 OFFCURVE",
"779.206 1781.15 OFFCURVE",
"590.194 1781.15 CURVE SMOOTH",
"270.966 1781.15 OFFCURVE",
"130 1715.79 OFFCURVE",
"130 1440 CURVE",
"34 1440 LINE",
"34 1190 LINE",
"130 1190 LINE"
);
}
);
width = 1247;
}
);
unicode = FB02;
},
{
glyphname = uniFB00;
layers = (
{
layerId = "DBFADC97-046A-4853-BE6B-B7E9D7A52A7E";
name = "Bold Condensed";
paths = (
{
closed = 1;
nodes = (
"130 0 LINE",
"486 0 LINE",
"486 1190 LINE",
"783 1190 LINE",
"783 0 LINE",
"1139 0 LINE",
"1139 1190 LINE",
"1253 1190 LINE",
"1253 1440 LINE",
"1139 1440 LINE",
"1139 1493 LINE SMOOTH",
"1139 1541 OFFCURVE",
"1175 1551 OFFCURVE",
"1210 1551 CURVE SMOOTH",
"1225 1551 OFFCURVE",
"1241 1550 OFFCURVE",
"1253 1548 CURVE",
"1253 1749 LINE",
"1207 1768 OFFCURVE",
"1143 1788 OFFCURVE",
"1066 1788 CURVE SMOOTH",
"905 1788 OFFCURVE",
"783 1697 OFFCURVE",
"783 1536 CURVE SMOOTH",
"783 1440 LINE",
"486 1440 LINE",
"486 1493 LINE SMOOTH",
"486 1541 OFFCURVE",
"522 1551 OFFCURVE",
"557 1551 CURVE SMOOTH",
"572 1551 OFFCURVE",
"588 1550 OFFCURVE",
"600 1548 CURVE",
"600 1749 LINE",
"554 1768 OFFCURVE",
"490 1788 OFFCURVE",
"413 1788 CURVE SMOOTH",
"252 1788 OFFCURVE",
"130 1697 OFFCURVE",
"130 1536 CURVE SMOOTH",
"130 1440 LINE",
"34 1440 LINE",
"34 1190 LINE",
"130 1190 LINE"
);
}
);
width = 1306;
}
);
},
{
glyphname = uniFB03;
layers = (
{
layerId = "DBFADC97-046A-4853-BE6B-B7E9D7A52A7E";
name = "Bold Condensed";
paths = (
{
closed = 1;
nodes = (
"130 0 LINE",
"486 0 LINE",
"486 1190 LINE",
"783 1190 LINE",
"783 0 LINE",
"1139 0 LINE",
"1139 1190 LINE",
"1421 1190 LINE",
"1421 0 LINE",
"1777 0 LINE",
"1777 1440 LINE",
"1139 1440 LINE",
"1139 1493 LINE SMOOTH",
"1139 1541 OFFCURVE",
"1175 1551 OFFCURVE",
"1210 1551 CURVE SMOOTH",
"1225 1551 OFFCURVE",
"1241 1550 OFFCURVE",
"1253 1548 CURVE",
"1253 1749 LINE",
"1207 1768 OFFCURVE",
"1143 1788 OFFCURVE",
"1066 1788 CURVE SMOOTH",
"905 1788 OFFCURVE",
"783 1697 OFFCURVE",
"783 1536 CURVE SMOOTH",
"783 1440 LINE",
"486 1440 LINE",
"486 1493 LINE SMOOTH",
"486 1541 OFFCURVE",
"522 1551 OFFCURVE",
"557 1551 CURVE SMOOTH",
"572 1551 OFFCURVE",
"588 1550 OFFCURVE",
"600 1548 CURVE",
"600 1749 LINE",
"554 1768 OFFCURVE",
"490 1788 OFFCURVE",
"413 1788 CURVE SMOOTH",
"252 1788 OFFCURVE",
"130 1697 OFFCURVE",
"130 1536 CURVE SMOOTH",
"130 1440 LINE",
"34 1440 LINE",
"34 1190 LINE",
"130 1190 LINE"
);
},
{
closed = 1;
nodes = (
"1421 1600 LINE",
"1777 1600 LINE",
"1777 1800 LINE",
"1421 1800 LINE"
);
}
);
width = 1892;
}
);
},
{
glyphname = uniFB04;
layers = (
{
layerId = "DBFADC97-046A-4853-BE6B-B7E9D7A52A7E";
name = "Bold Condensed";
paths = (
{
closed = 1;
nodes = (
"130 0 LINE",
"486 0 LINE",
"486 1190 LINE",
"783 1190 LINE",
"783 0 LINE",
"1139 0 LINE",
"1139 1190 LINE",
"1253 1190 LINE",
"1253 1440 LINE",
"1139 1440 LINE",
"1139 1539 OFFCURVE",
"1222.97 1560.25 OFFCURVE",
"1302.85 1560.25 CURVE SMOOTH",
"1349.46 1560.25 OFFCURVE",
"1394.66 1553.02 OFFCURVE",
"1421 1549.78 CURVE",
"1421 0 LINE",
"1785 0 LINE",
"1785 1729 LINE",
"1587.68 1758.42 OFFCURVE",
"1407.22 1780.55 OFFCURVE",
"1255.48 1780.55 CURVE SMOOTH",
"967.522 1780.55 OFFCURVE",
"783 1700.85 OFFCURVE",
"783 1440 CURVE",
"486 1440 LINE",
"486 1493 LINE SMOOTH",
"486 1541 OFFCURVE",
"522 1551 OFFCURVE",
"557 1551 CURVE SMOOTH",
"572 1551 OFFCURVE",
"588 1550 OFFCURVE",
"600 1548 CURVE",
"600 1749 LINE",
"554 1768 OFFCURVE",
"490 1788 OFFCURVE",
"413 1788 CURVE SMOOTH",
"252 1788 OFFCURVE",
"130 1697 OFFCURVE",
"130 1536 CURVE SMOOTH",
"130 1440 LINE",
"34 1440 LINE",
"34 1190 LINE",
"130 1190 LINE"
);
}
);
width = 1900;
}
);
},
{
glyphname = Delta;
layers = (
{
layerId = "DBFADC97-046A-4853-BE6B-B7E9D7A52A7E";
name = "Bold Condensed";
paths = (
{
closed = 1;
nodes = (
"376 230 LINE",
"443 1044 LINE",
"475 1044 LINE",
"542 230 LINE"
);
},
{
closed = 1;
nodes = (
"34 0 LINE",
"887 0 LINE",
"708 1353 LINE",
"217 1353 LINE"
);
}
);
width = 921;
}
);
unicode = 0394;
},
{
glyphname = uni03A9;
layers = (
{
anchors = (
{
name = topleft;
position = "{20, 0}";
}
);
layerId = "DBFADC97-046A-4853-BE6B-B7E9D7A52A7E";
name = "Bold Condensed";
paths = (
{
closed = 1;
nodes = (
"47 0 LINE",
"463 0 LINE",
"463 247 LINE",
"399 282 OFFCURVE",
"411 441 OFFCURVE",
"411 581 CURVE SMOOTH",
"411 1211 LINE SMOOTH",
"411 1281 OFFCURVE",
"427 1335 OFFCURVE",
"496 1335 CURVE SMOOTH",
"565 1335 OFFCURVE",
"581 1281 OFFCURVE",
"581 1211 CURVE SMOOTH",
"581 581 LINE SMOOTH",
"581 431 OFFCURVE",
"604 285 OFFCURVE",
"529 247 CURVE",
"529 0 LINE",
"945 0 LINE",
"945 246 LINE",
"823 246 LINE",
"888 345 OFFCURVE",
"920 499 OFFCURVE",
"920 710 CURVE SMOOTH",
"920 1189 LINE SMOOTH",
"920 1462 OFFCURVE",
"774 1607 OFFCURVE",
"496 1607 CURVE SMOOTH",
"218 1607 OFFCURVE",
"72 1462 OFFCURVE",
"72 1189 CURVE SMOOTH",
"72 710 LINE SMOOTH",
"72 499 OFFCURVE",
"104 345 OFFCURVE",
"169 246 CURVE",
"47 246 LINE"
);
}
);
width = 992;
}
);
unicode = 03A9;
},
{
glyphname = mu;
layers = (
{
layerId = "DBFADC97-046A-4853-BE6B-B7E9D7A52A7E";
name = "Bold Condensed";
paths = (
{
closed = 1;
nodes = (
"105 -186 LINE",
"445 -186 LINE",
"445 1 LINE",
"532 18 OFFCURVE",
"595 72 OFFCURVE",
"629 160 CURVE",
"629 0 LINE",
"987 0 LINE",
"987 1500 LINE",
"631 1500 LINE",
"629 455 LINE",
"629 443 LINE SMOOTH",
"629 360 OFFCURVE",
"628 264 OFFCURVE",
"545 264 CURVE SMOOTH",
"457 264 OFFCURVE",
"465 342 OFFCURVE",
"465 455 CURVE SMOOTH",
"465 1500 LINE",
"105 1500 LINE"
);
}
);
width = 1099;
}
);
unicode = 03BC;
},
{
glyphname = ordfeminine;
layers = (
{
layerId = "DBFADC97-046A-4853-BE6B-B7E9D7A52A7E";
name = "Bold Condensed";
paths = (
{
closed = 1;
nodes = (
"114 541 OFFCURVE",
"158 389 OFFCURVE",
"356 389 CURVE SMOOTH",
"438 389 OFFCURVE",
"516 461 OFFCURVE",
"533 527 CURVE",
"533 403 LINE",
"815 403 LINE",
"815 1310 LINE SMOOTH",
"815 1504.93 OFFCURVE",
"673.428 1607 OFFCURVE",
"482 1607 CURVE SMOOTH",
"239 1607 OFFCURVE",
"132 1516 OFFCURVE",
"132 1280 CURVE SMOOTH",
"132 1263 OFFCURVE",
"132 1250 OFFCURVE",
"133 1241 CURVE",
"409 1241 LINE",
"409 1321 LINE SMOOTH",
"409 1364 OFFCURVE",
"429 1386 OFFCURVE",
"468 1386 CURVE SMOOTH",
"544 1386 OFFCURVE",
"529 1259 OFFCURVE",
"529 1183 CURVE SMOOTH",
"529 1181 LINE",
"263 1090 OFFCURVE",
"114 1068 OFFCURVE",
"114 744 CURVE SMOOTH"
);
},
{
closed = 1;
nodes = (
"528 659 OFFCURVE",
"514 611 OFFCURVE",
"468 611 CURVE SMOOTH",
"425 611 OFFCURVE",
"404 646 OFFCURVE",
"404 716 CURVE SMOOTH",
"404 855 LINE SMOOTH",
"404 948 OFFCURVE",
"449 986 OFFCURVE",
"528 1017 CURVE",
"528 704 LINE SMOOTH"
);
}
);
width = 927;
}
);
unicode = 00AA;
},
{
glyphname = ordmasculine;
layers = (
{
layerId = "DBFADC97-046A-4853-BE6B-B7E9D7A52A7E";
name = "Bold Condensed";
paths = (
{
closed = 1;
nodes = (
"98 510 OFFCURVE",
"217 387 OFFCURVE",
"454 387 CURVE SMOOTH",
"693 387 OFFCURVE",
"810 515 OFFCURVE",
"810 757 CURVE SMOOTH",
"810 1235 LINE SMOOTH",
"810 1460 OFFCURVE",
"677 1605 OFFCURVE",
"454 1605 CURVE SMOOTH",
"451 1605 LINE SMOOTH",
"230 1605 OFFCURVE",
"98 1456 OFFCURVE",
"98 1235 CURVE SMOOTH",
"98 757 LINE SMOOTH"
);
},
{
closed = 1;
nodes = (
"520 569 OFFCURVE",
"387 586 OFFCURVE",
"387 699 CURVE SMOOTH",
"387 1280 LINE SMOOTH",
"387 1349 OFFCURVE",
"409 1384 OFFCURVE",
"454 1384 CURVE SMOOTH",
"498 1384 OFFCURVE",
"520 1349 OFFCURVE",
"520 1280 CURVE SMOOTH",
"520 699 LINE SMOOTH"
);
}
);
width = 908;
}
);
unicode = 00BA;
},
{
glyphname = zero;
layers = (
{
layerId = "DBFADC97-046A-4853-BE6B-B7E9D7A52A7E";
name = "Bold Condensed";
paths = (
{
closed = 1;
nodes = (
"671 365 OFFCURVE",
"648 294 OFFCURVE",
"571 294 CURVE SMOOTH",
"489 294 OFFCURVE",
"465 358 OFFCURVE",
"465 470 CURVE SMOOTH",
"465 1328 LINE SMOOTH",
"465 1423 OFFCURVE",
"503 1466 OFFCURVE",
"571 1466 CURVE SMOOTH",
"641 1466 OFFCURVE",
"671 1414 OFFCURVE",
"671 1327 CURVE SMOOTH",
"671 470 LINE SMOOTH"
);
},
{
closed = 1;
nodes = (
"105 162 OFFCURVE",
"283 -21 OFFCURVE",
"571 -21 CURVE SMOOTH",
"859 -21 OFFCURVE",
"1031 162 OFFCURVE",
"1031 475 CURVE SMOOTH",
"1031 1316 LINE SMOOTH",
"1031 1619 OFFCURVE",
"853 1781 OFFCURVE",
"571 1781 CURVE SMOOTH",
"289 1781 OFFCURVE",
"105 1619 OFFCURVE",
"105 1316 CURVE SMOOTH",
"105 475 LINE SMOOTH"
);
}
);
width = 1153;
}
);
unicode = 0030;
},
{
glyphname = one;
layers = (
{
layerId = "DBFADC97-046A-4853-BE6B-B7E9D7A52A7E";
name = "Bold Condensed";
paths = (
{
closed = 1;
nodes = (
"248 0 LINE",
"608 0 LINE",
"608 1761 LINE",
"308 1761 LINE",
"252 1629 OFFCURVE",
"136 1556 OFFCURVE",
"30 1541 CURVE",
"30 1260 LINE",
"104 1260 OFFCURVE",
"200 1289 OFFCURVE",
"248 1346 CURVE"
);
}
);
width = 722;
}
);
unicode = 0031;
},
{
glyphname = two;
layers = (
{
layerId = "DBFADC97-046A-4853-BE6B-B7E9D7A52A7E";
name = "Bold Condensed";
paths = (
{
closed = 1;
nodes = (
"140 0 LINE",
"914 0 LINE",
"914 294 LINE",
"476 294 LINE",
"623 705 OFFCURVE",
"955 823 OFFCURVE",
"955 1293 CURVE SMOOTH",
"955 1597 OFFCURVE",
"805 1780 OFFCURVE",
"532 1780 CURVE SMOOTH",
"187 1780 OFFCURVE",
"108 1553 OFFCURVE",
"108 1173 CURVE SMOOTH",
"108 1065 LINE",
"445 1065 LINE",
"445 1280 LINE SMOOTH",
"445 1440 OFFCURVE",
"482 1467 OFFCURVE",
"538 1467 CURVE SMOOTH",
"594 1467 OFFCURVE",
"616 1411 OFFCURVE",
"616 1296 CURVE SMOOTH",
"616 1174 OFFCURVE",
"586 1069 OFFCURVE",
"532 992 CURVE SMOOTH",
"428 844 OFFCURVE",
"346 723 OFFCURVE",
"310 669 CURVE SMOOTH",
"173 464 OFFCURVE",
"140 367 OFFCURVE",
"140 114 CURVE SMOOTH"
);
}
);
width = 1038;
}
);
unicode = 0032;
},
{
glyphname = three;
layers = (
{
layerId = "DBFADC97-046A-4853-BE6B-B7E9D7A52A7E";
name = "Bold Condensed";
paths = (
{
closed = 1;
nodes = (
"92 143 OFFCURVE",
"190 -20 OFFCURVE",
"501 -20 CURVE SMOOTH",
"842 -20 OFFCURVE",
"960 178 OFFCURVE",
"960 530 CURVE SMOOTH",
"960 766 OFFCURVE",
"920 889 OFFCURVE",
"770 962 CURVE",
"896 1007 OFFCURVE",
"956 1140 OFFCURVE",
"956 1313 CURVE SMOOTH",
"956 1627 OFFCURVE",
"815 1780 OFFCURVE",
"515 1780 CURVE SMOOTH",
"204 1780 OFFCURVE",
"91 1636 OFFCURVE",
"91 1313 CURVE SMOOTH",
"91 1240 LINE",
"434 1240 LINE",
"434 1312 LINE SMOOTH",
"434 1396 OFFCURVE",
"435 1467 OFFCURVE",
"529 1467 CURVE SMOOTH",
"593 1467 OFFCURVE",
"611 1419 OFFCURVE",
"611 1311 CURVE SMOOTH",
"611 1188 OFFCURVE",
"599 1070 OFFCURVE",
"485 1070 CURVE SMOOTH",
"382 1070 LINE",
"382 807 LINE",
"488 807 LINE SMOOTH",
"606 807 OFFCURVE",
"608 705 OFFCURVE",
"608 528 CURVE SMOOTH",
"608 391 OFFCURVE",
"602 293 OFFCURVE",
"515 293 CURVE SMOOTH",
"428 293 OFFCURVE",
"420 368 OFFCURVE",
"420 461 CURVE SMOOTH",
"420 645 LINE",
"92 645 LINE",
"92 474 LINE SMOOTH"
);
}
);
width = 1038;
}
);
unicode = 0033;
},
{
glyphname = four;
layers = (
{
layerId = "DBFADC97-046A-4853-BE6B-B7E9D7A52A7E";
name = "Bold Condensed";
paths = (
{
closed = 1;
nodes = (
"542 -1 LINE",
"859 -1 LINE",
"859 278 LINE",
"981 278 LINE",
"981 572 LINE",
"859 572 LINE",
"859 1761 LINE",
"463 1761 LINE",
"80 553 LINE",
"80 278 LINE",
"542 278 LINE"
);
},
{
closed = 1;
nodes = (
"344 572 LINE",
"542 1369 LINE",
"542 572 LINE"
);
}
);
width = 1038;
}
);
unicode = 0034;
},
{
glyphname = five;
layers = (
{
layerId = "DBFADC97-046A-4853-BE6B-B7E9D7A52A7E";
name = "Bold Condensed";
paths = (
{
closed = 1;
nodes = (
"113 107 OFFCURVE",
"255 -20 OFFCURVE",
"526 -20 CURVE SMOOTH",
"937 -20 OFFCURVE",
"967 245 OFFCURVE",
"967 668 CURVE SMOOTH",
"967 987 OFFCURVE",
"929 1265 OFFCURVE",
"661 1265 CURVE SMOOTH",
"564 1265 OFFCURVE",
"477 1224 OFFCURVE",
"447 1163 CURVE",
"447 1440 LINE",
"913 1440 LINE",
"913 1760 LINE",
"113 1760 LINE",
"113 825 LINE",
"436 825 LINE",
"436 922 OFFCURVE",
"461 970 OFFCURVE",
"528 970 CURVE SMOOTH",
"611 970 OFFCURVE",
"614 889 OFFCURVE",
"614 803 CURVE SMOOTH",
"614 466 LINE SMOOTH",
"614 350 OFFCURVE",
"602 293 OFFCURVE",
"526 293 CURVE SMOOTH",
"441 293 OFFCURVE",
"440 363 OFFCURVE",
"440 455 CURVE SMOOTH",
"440 646 LINE",
"113 646 LINE",
"113 384 LINE SMOOTH"
);
}
);
width = 1038;
}
);
unicode = 0035;
},
{
glyphname = six;
layers = (
{
layerId = "DBFADC97-046A-4853-BE6B-B7E9D7A52A7E";
name = "Bold Condensed";
paths = (
{
closed = 1;
nodes = (
"94 166 OFFCURVE",
"175 -21 OFFCURVE",
"542 -21 CURVE SMOOTH",
"883 -21 OFFCURVE",
"970 157 OFFCURVE",
"970 515 CURVE SMOOTH",
"970 597 LINE SMOOTH",
"970 904 OFFCURVE",
"900 1103 OFFCURVE",
"671 1103 CURVE SMOOTH",
"565 1103 OFFCURVE",
"492 1072 OFFCURVE",
"454 1024 CURVE",
"454 1282 LINE SMOOTH",
"454 1402 OFFCURVE",
"462 1465 OFFCURVE",
"541 1465 CURVE SMOOTH",
"615 1465 OFFCURVE",
"621 1403 OFFCURVE",
"621 1279 CURVE SMOOTH",
"621 1240 LINE",
"946 1240 LINE",
"946 1376 LINE SMOOTH",
"946 1698 OFFCURVE",
"780 1781 OFFCURVE",
"558 1781 CURVE SMOOTH",
"277 1781 OFFCURVE",
"94 1677 OFFCURVE",
"94 1239 CURVE SMOOTH",
"94 543 LINE SMOOTH"
);
},
{
closed = 1;
nodes = (
"628 336 OFFCURVE",
"608 294 OFFCURVE",
"542 294 CURVE SMOOTH",
"483 294 OFFCURVE",
"454 337 OFFCURVE",
"454 424 CURVE SMOOTH",
"454 662 LINE SMOOTH",
"454 745 OFFCURVE",
"485 787 OFFCURVE",
"547 787 CURVE SMOOTH",
"601 787 OFFCURVE",
"628 739 OFFCURVE",
"628 643 CURVE SMOOTH",
"628 424 LINE SMOOTH"
);
}
);
width = 1038;
}
);
unicode = 0036;
},
{
glyphname = seven;
layers = (
{
layerId = "DBFADC97-046A-4853-BE6B-B7E9D7A52A7E";
name = "Bold Condensed";
paths = (
{
closed = 1;
nodes = (
"194 1 OFFCURVE",
"302 0 OFFCURVE",
"331 0 CURVE SMOOTH",
"564 1 LINE",
"587 368 OFFCURVE",
"674 676 OFFCURVE",
"779 946 CURVE SMOOTH",
"850 1129 OFFCURVE",
"957 1292 OFFCURVE",
"979 1499 CURVE",
"979 1761 LINE",
"91 1761 LINE",
"91 1435 LINE",
"588 1435 LINE",
"575 1384 OFFCURVE",
"552 1313 OFFCURVE",
"519 1232 CURVE SMOOTH",
"372 866 OFFCURVE",
"198 492 OFFCURVE",
"166 1 CURVE"
);
}
);
width = 1038;
}
);
unicode = 0037;
},
{
glyphname = eight;
layers = (
{
layerId = "DBFADC97-046A-4853-BE6B-B7E9D7A52A7E";
name = "Bold Condensed";
paths = (
{
closed = 1;
nodes = (
"76 140 OFFCURVE",
"234 -21 OFFCURVE",
"522 -21 CURVE SMOOTH",
"810 -21 OFFCURVE",
"962 140 OFFCURVE",
"962 453 CURVE SMOOTH",
"962 653 LINE SMOOTH",
"962 806 OFFCURVE",
"912 921 OFFCURVE",
"825 984 CURVE",
"921 1051 OFFCURVE",
"962 1189.78 OFFCURVE",
"962 1336 CURVE SMOOTH",
"962 1659 OFFCURVE",
"828 1782 OFFCURVE",
"520 1782 CURVE SMOOTH",
"220 1782 OFFCURVE",
"76 1648 OFFCURVE",
"76 1336 CURVE SMOOTH",
"76 1191.34 OFFCURVE",
"125 1054 OFFCURVE",
"220 987 CURVE",
"129 924 OFFCURVE",
"76 809 OFFCURVE",
"76 653 CURVE SMOOTH",
"76 453 LINE SMOOTH"
);
},
{
closed = 1;
nodes = (
"602 359 OFFCURVE",
"599 290 OFFCURVE",
"522 290 CURVE SMOOTH",
"440 290 OFFCURVE",
"436 352 OFFCURVE",
"436 444 CURVE SMOOTH",
"436 707 LINE SMOOTH",
"436 782 OFFCURVE",
"454 845 OFFCURVE",
"522 845 CURVE SMOOTH",
"592 845 OFFCURVE",
"602 773 OFFCURVE",
"602 706 CURVE SMOOTH",
"602 444 LINE SMOOTH"
);
},
{
closed = 1;
nodes = (
"602 1118 OFFCURVE",
"582 1073 OFFCURVE",
"520 1073 CURVE SMOOTH",
"458 1073 OFFCURVE",
"436 1116 OFFCURVE",
"436 1290 CURVE SMOOTH",
"436 1465 OFFCURVE",
"448 1511 OFFCURVE",
"520 1511 CURVE SMOOTH",
"592 1511 OFFCURVE",
"602 1471 OFFCURVE",
"602 1290 CURVE SMOOTH"
);
}
);
width = 1038;
}
);
unicode = 0038;
},
{
glyphname = nine;
layers = (
{
layerId = "DBFADC97-046A-4853-BE6B-B7E9D7A52A7E";
name = "Bold Condensed";
paths = (
{
closed = 1;
nodes = (
"83 62 OFFCURVE",
"263 -20 OFFCURVE",
"485 -20 CURVE SMOOTH",
"766 -20 OFFCURVE",
"944 83 OFFCURVE",
"944 521 CURVE SMOOTH",
"944 1217 LINE SMOOTH",
"944 1615 OFFCURVE",
"880 1781 OFFCURVE",
"513 1781 CURVE SMOOTH",
"172 1781 OFFCURVE",
"67 1603 OFFCURVE",
"67 1245 CURVE SMOOTH",
"67 1151 LINE SMOOTH",
"67 844 OFFCURVE",
"171 665 OFFCURVE",
"420 665 CURVE SMOOTH",
"510 665 OFFCURVE",
"558 679 OFFCURVE",
"589 692 CURVE",
"589 478 LINE SMOOTH",
"589 358 OFFCURVE",
"588 293 OFFCURVE",
"509 293 CURVE SMOOTH",
"435 293 OFFCURVE",
"422 357 OFFCURVE",
"422 481 CURVE SMOOTH",
"422 527 LINE",
"83 527 LINE",
"83 384 LINE SMOOTH"
);
},
{
closed = 1;
nodes = (
"589 1005 OFFCURVE",
"561 968 OFFCURVE",
"499 968 CURVE SMOOTH",
"438 968 OFFCURVE",
"415 1011 OFFCURVE",
"415 1095 CURVE SMOOTH",
"415 1336 LINE SMOOTH",
"415 1424 OFFCURVE",
"440 1467 OFFCURVE",
"506 1467 CURVE SMOOTH",
"565 1467 OFFCURVE",
"589 1429 OFFCURVE",
"589 1342 CURVE SMOOTH",
"589 1100 LINE SMOOTH"
);
}
);
width = 1038;
}
);
unicode = 0039;
},
{
glyphname = fraction;
layers = (
{
layerId = "DBFADC97-046A-4853-BE6B-B7E9D7A52A7E";
name = "Bold Condensed";
paths = (
{
closed = 1;
nodes = (
"29 0 LINE",
"312 0 LINE",
"803 1767 LINE",
"519 1767 LINE"
);
}
);
width = 829;
}
);
unicode = 2044;
},
{
glyphname = onehalf;
layers = (
{
layerId = "DBFADC97-046A-4853-BE6B-B7E9D7A52A7E";
name = "Bold Condensed";
paths = (
{
closed = 1;
nodes = (
"1000 -1 LINE",
"1519 -1 LINE",
"1519 182 LINE",
"1246 182 LINE",
"1336 355 OFFCURVE",
"1526 453 OFFCURVE",
"1526 712 CURVE SMOOTH",
"1526 879 OFFCURVE",
"1428 974 OFFCURVE",
"1263 974 CURVE SMOOTH",
"1052 974 OFFCURVE",
"998 864 OFFCURVE",
"998 646 CURVE SMOOTH",
"1000 586 LINE",
"1210 586 LINE",
"1210 705 LINE SMOOTH",
"1210 763 OFFCURVE",
"1227 792 OFFCURVE",
"1261 792 CURVE SMOOTH",
"1296 792 OFFCURVE",
"1314 764 OFFCURVE",
"1314 709 CURVE SMOOTH",
"1314 640 OFFCURVE",
"1297 586 OFFCURVE",
"1263 546 CURVE SMOOTH",
"1128 383 OFFCURVE",
"1000 258 OFFCURVE",
"1000 46 CURVE SMOOTH"
);
},
{
closed = 1;
nodes = (
"205 656 LINE",
"435 656 LINE",
"435 1607 LINE",
"256 1607 LINE",
"256 1545 OFFCURVE",
"140 1487 OFFCURVE",
"82 1487 CURVE",
"82 1334 LINE",
"125 1334 OFFCURVE",
"166 1344 OFFCURVE",
"205 1364 CURVE"
);
},
{
closed = 1;
nodes = (
"373 0 LINE",
"616 0 LINE",
"1147 1767 LINE",
"903 1767 LINE"
);
}
);
width = 1620;
}
);
unicode = 00BD;
},
{
glyphname = onequarter;
layers = (
{
layerId = "DBFADC97-046A-4853-BE6B-B7E9D7A52A7E";
name = "Bold Condensed";
paths = (
{
closed = 1;
nodes = (
"1193 -1 LINE",
"1400 -1 LINE",
"1400 151 LINE",
"1439 151 LINE",
"1439 322 LINE",
"1400 322 LINE",
"1400 941 LINE",
"1077 941 LINE",
"890 300 LINE",
"890 151 LINE",
"1193 151 LINE"
);
},
{
closed = 1;
nodes = (
"205 656 LINE",
"435 656 LINE",
"435 1607 LINE",
"256 1607 LINE",
"256 1545 OFFCURVE",
"140 1487 OFFCURVE",
"82 1487 CURVE",
"82 1334 LINE",
"125 1334 OFFCURVE",
"166 1344 OFFCURVE",
"205 1364 CURVE"
);
},
{
closed = 1;
nodes = (
"373 0 LINE",
"616 0 LINE",
"1147 1767 LINE",
"903 1767 LINE"
);
},
{
closed = 1;
nodes = (
"1083 322 LINE",
"1193 767 LINE",
"1193 322 LINE"
);
}
);
width = 1535;
}
);
unicode = 00BC;
},
{
glyphname = threequarters;
layers = (
{
layerId = "DBFADC97-046A-4853-BE6B-B7E9D7A52A7E";
name = "Bold Condensed";
paths = (
{
closed = 1;
nodes = (
"30 725 OFFCURVE",
"105 635 OFFCURVE",
"279 635 CURVE SMOOTH",
"471 635 OFFCURVE",
"547 743 OFFCURVE",
"547 935 CURVE SMOOTH",
"547 1066 OFFCURVE",
"536 1132 OFFCURVE",
"452 1170 CURVE",
"522 1194 OFFCURVE",
"544 1258 OFFCURVE",
"544 1351 CURVE SMOOTH",
"544 1521 OFFCURVE",
"460 1606 OFFCURVE",
"292 1606 CURVE SMOOTH",
"118 1606 OFFCURVE",
"36 1532 OFFCURVE",
"35 1351 CURVE",
"36 1317 LINE",
"240 1317 LINE",
"243 1373 OFFCURVE",
"232 1430 OFFCURVE",
"293 1430 CURVE SMOOTH",
"325 1430 OFFCURVE",
"341 1403 OFFCURVE",
"341 1349 CURVE SMOOTH",
"341 1279 OFFCURVE",
"305 1254 OFFCURVE",
"236 1254 CURVE",
"236 1081 LINE",
"241 1082 OFFCURVE",
"247 1082 OFFCURVE",
"256 1082 CURVE SMOOTH",
"332 1082 OFFCURVE",
"340 1011 OFFCURVE",
"340 935 CURVE SMOOTH",
"340 865 OFFCURVE",
"340 813 OFFCURVE",
"289 813 CURVE SMOOTH",
"241 813 OFFCURVE",
"232 851 OFFCURVE",
"232 903 CURVE SMOOTH",
"232 1004 LINE",
"30 1004 LINE",
"30 904 LINE SMOOTH"
);
},
{
closed = 1;
nodes = (
"1213 -1 LINE",
"1420 -1 LINE",
"1420 151 LINE",
"1459 151 LINE",
"1459 322 LINE",
"1420 322 LINE",
"1420 941 LINE",
"1097 941 LINE",
"910 300 LINE",
"910 151 LINE",
"1213 151 LINE"
);
},
{
closed = 1;
nodes = (
"413 0 LINE",
"656 0 LINE",
"1187 1767 LINE",
"943 1767 LINE"
);
},
{
closed = 1;
nodes = (
"1103 322 LINE",
"1213 767 LINE",
"1213 322 LINE"
);
}
);
width = 1555;
}
);
unicode = 00BE;
},
{
glyphname = uni00B9;
layers = (
{
layerId = "DBFADC97-046A-4853-BE6B-B7E9D7A52A7E";
name = "Bold Condensed";
paths = (
{
closed = 1;
nodes = (
"217 681 LINE",
"495 681 LINE",
"495 1760 LINE",
"285 1760 LINE",
"285 1690 OFFCURVE",
"132 1624 OFFCURVE",
"55 1624 CURVE",
"55 1450 LINE",
"112 1450 OFFCURVE",
"166 1462 OFFCURVE",
"217 1484 CURVE"
);
}
);
width = 630;
}
);
unicode = 00B9;
},
{
glyphname = uni00B2;
layers = (
{
layerId = "DBFADC97-046A-4853-BE6B-B7E9D7A52A7E";
name = "Bold Condensed";
paths = (
{
closed = 1;
nodes = (
"124 678 LINE",
"700 678 LINE",
"700 885 LINE",
"397 885 LINE",
"497 1081 OFFCURVE",
"707 1192 OFFCURVE",
"707 1485 CURVE SMOOTH",
"707 1674 OFFCURVE",
"599 1781 OFFCURVE",
"416 1781 CURVE SMOOTH",
"182 1781 OFFCURVE",
"122 1657 OFFCURVE",
"122 1410 CURVE SMOOTH",
"124 1342 LINE",
"357 1342 LINE",
"357 1477 LINE SMOOTH",
"357 1542 OFFCURVE",
"376 1575 OFFCURVE",
"414 1575 CURVE SMOOTH",
"452 1575 OFFCURVE",
"472 1543 OFFCURVE",
"472 1481 CURVE SMOOTH",
"472 1403 OFFCURVE",
"453 1342 OFFCURVE",
"416 1297 CURVE SMOOTH",
"266 1112 OFFCURVE",
"124 971 OFFCURVE",
"124 731 CURVE SMOOTH"
);
}
);
width = 808;
}
);
unicode = 00B2;
},
{
glyphname = uni00B3;
layers = (
{
layerId = "DBFADC97-046A-4853-BE6B-B7E9D7A52A7E";
name = "Bold Condensed";
paths = (
{
closed = 1;
nodes = (
"99 754 OFFCURVE",
"185 649 OFFCURVE",
"413 649 CURVE SMOOTH",
"665 649 OFFCURVE",
"765 775 OFFCURVE",
"765 999 CURVE SMOOTH",
"765 1152 OFFCURVE",
"750 1228 OFFCURVE",
"640 1273 CURVE",
"732 1301 OFFCURVE",
"761 1375 OFFCURVE",
"761 1484 CURVE SMOOTH",
"761 1682 OFFCURVE",
"651 1781 OFFCURVE",
"431 1781 CURVE SMOOTH",
"202 1781 OFFCURVE",
"107 1695 OFFCURVE",
"106 1484 CURVE",
"107 1444 LINE",
"362 1444 LINE",
"366 1509 OFFCURVE",
"352 1576 OFFCURVE",
"432 1576 CURVE SMOOTH",
"474 1576 OFFCURVE",
"495 1544 OFFCURVE",
"495 1481 CURVE SMOOTH",
"495 1400 OFFCURVE",
"464 1351 OFFCURVE",
"357 1351 CURVE",
"357 1170 LINE",
"383 1170 LINE SMOOTH",
"483 1170 OFFCURVE",
"493 1087 OFFCURVE",
"493 999 CURVE SMOOTH",
"493 917 OFFCURVE",
"493 857 OFFCURVE",
"427 857 CURVE SMOOTH",
"364 857 OFFCURVE",
"352 901 OFFCURVE",
"352 962 CURVE SMOOTH",
"352 1079 LINE",
"99 1079 LINE",
"99 963 LINE SMOOTH"
);
}
);
width = 837;
}
);
unicode = 00B3;
},
{
glyphname = uni2074;
layers = (
{
layerId = "DBFADC97-046A-4853-BE6B-B7E9D7A52A7E";
name = "Bold Condensed";
paths = (
{
closed = 1;
nodes = (
"468 644 LINE",
"725 644 LINE",
"725 824 LINE",
"774 824 LINE",
"774 1027 LINE",
"725 1027 LINE",
"725 1762 LINE",
"324 1762 LINE",
"92 1001 LINE",
"92 824 LINE",
"468 824 LINE"
);
},
{
closed = 1;
nodes = (
"332 1027 LINE",
"468 1508 LINE",
"468 1027 LINE"
);
}
);
width = 849;
}
);
unicode = 2074;
},
{
glyphname = asterisk;
layers = (
{
layerId = "DBFADC97-046A-4853-BE6B-B7E9D7A52A7E";
name = "Bold Condensed";
paths = (
{
closed = 1;
nodes = (
"364 741 LINE",
"596 741 LINE",
"560 1036 LINE",
"791 854 LINE",
"907 1054 LINE",
"632 1171 LINE",
"907 1280 LINE",
"791 1480 LINE",
"561 1307 LINE",
"596 1593 LINE",
"364 1593 LINE",
"407 1301 LINE",
"169 1480 LINE",
"53 1280 LINE",
"327 1171 LINE",
"53 1054 LINE",
"169 854 LINE",
"408 1043 LINE"
);
}
);
width = 960;
}
);
unicode = 002A;
},
{
glyphname = backslash;
layers = (
{
layerId = "DBFADC97-046A-4853-BE6B-B7E9D7A52A7E";
name = "Bold Condensed";
paths = (
{
closed = 1;
nodes = (
"478 0 LINE",
"801 0 LINE",
"391 1761 LINE",
"67 1761 LINE"
);
}
);
width = 868;
}
);
unicode = 005C;
},
{
glyphname = bullet;
layers = (
{
layerId = "DBFADC97-046A-4853-BE6B-B7E9D7A52A7E";
name = "Bold Condensed";
paths = (
{
closed = 1;
nodes = (
"117 539 OFFCURVE",
"231 403 OFFCURVE",
"430 403 CURVE SMOOTH",
"629 403 OFFCURVE",
"744 539 OFFCURVE",
"744 741 CURVE SMOOTH",
"744 943 OFFCURVE",
"629 1079 OFFCURVE",
"430 1079 CURVE SMOOTH",
"231 1079 OFFCURVE",
"117 943 OFFCURVE",
"117 741 CURVE SMOOTH"
);
}
);
width = 861;
}
);
unicode = 2022;
},
{
glyphname = colon;
layers = (
{
layerId = "DBFADC97-046A-4853-BE6B-B7E9D7A52A7E";
name = "Bold Condensed";
paths = (
{
closed = 1;
nodes = (
"112 270 LINE",
"443 270 LINE",
"443 568 LINE",
"112 568 LINE"
);
},
{
closed = 1;
nodes = (
"112 1009 LINE",
"443 1009 LINE",
"443 1307 LINE",
"112 1307 LINE"
);
}
);
width = 555;
}
);
unicode = 003A;
},
{
glyphname = comma;
layers = (
{
layerId = "DBFADC97-046A-4853-BE6B-B7E9D7A52A7E";
name = "Bold Condensed";
paths = (
{
closed = 1;
nodes = (
"176 -328 LINE",
"344 -328 LINE",
"446 9 LINE",
"446 318 LINE",
"115 318 LINE",
"115 0 LINE",
"242 0 LINE"
);
}
);
width = 528;
}
);
unicode = 002C;
},
{
glyphname = ellipsis;
layers = (
{
layerId = "DBFADC97-046A-4853-BE6B-B7E9D7A52A7E";
name = "Bold Condensed";
paths = (
{
closed = 1;
nodes = (
"55 1 LINE",
"413 1 LINE",
"413 299 LINE",
"55 299 LINE"
);
},
{
closed = 1;
nodes = (
"546 1 LINE",
"904 1 LINE",
"904 299 LINE",
"546 299 LINE"
);
},
{
closed = 1;
nodes = (
"1037 1 LINE",
"1395 1 LINE",
"1395 299 LINE",
"1037 299 LINE"
);
}
);
width = 1450;
}
);
unicode = 2026;
},
{
glyphname = exclam;
layers = (
{
layerId = "DBFADC97-046A-4853-BE6B-B7E9D7A52A7E";
name = "Bold Condensed";
paths = (
{
closed = 1;
nodes = (
"88 0 LINE",
"406 0 LINE",
"406 298 LINE",
"88 298 LINE"
);
},
{
closed = 1;
nodes = (
"178 466 LINE",
"326 466 LINE",
"426 1761 LINE",
"68 1761 LINE"
);
}
);
width = 494;
}
);
unicode = 0021;
},
{
glyphname = exclamdown;
layers = (
{
layerId = "DBFADC97-046A-4853-BE6B-B7E9D7A52A7E";
name = "Bold Condensed";
paths = (
{
closed = 1;
nodes = (
"100 -257 LINE",
"458 -257 LINE",
"368 1057 LINE",
"180 1057 LINE"
);
},
{
closed = 1;
nodes = (
"120 1206 LINE",
"438 1206 LINE",
"438 1504 LINE",
"120 1504 LINE"
);
}
);
width = 558;
}
);
unicode = 00A1;
},
{
glyphname = numbersign;
layers = (
{
layerId = "DBFADC97-046A-4853-BE6B-B7E9D7A52A7E";
name = "Bold Condensed";
paths = (
{
closed = 1;
nodes = (
"105 0 LINE",
"388 0 LINE",
"487 509 LINE",
"654 509 LINE",
"555 0 LINE",
"838 0 LINE",
"937 509 LINE",
"1091 509 LINE",
"1091 741 LINE",
"983 741 LINE",
"1039 1023 LINE",
"1177 1023 LINE",
"1177 1255 LINE",
"1084 1255 LINE",
"1187 1763 LINE",
"903 1763 LINE",
"800 1255 LINE",
"634 1255 LINE",
"737 1763 LINE",
"453 1763 LINE",
"350 1255 LINE",
"195 1255 LINE",
"195 1023 LINE",
"305 1023 LINE",
"249 741 LINE",
"109 741 LINE",
"109 509 LINE",
"204 509 LINE"
);
},
{
closed = 1;
nodes = (
"533 741 LINE",
"589 1023 LINE",
"755 1023 LINE",
"699 741 LINE"
);
}
);
width = 1288;
}
);
unicode = 0023;
},
{
glyphname = period;
layers = (
{
layerId = "DBFADC97-046A-4853-BE6B-B7E9D7A52A7E";
name = "Bold Condensed";
paths = (
{
closed = 1;
nodes = (
"115 0 LINE",
"417 0 LINE",
"417 318 LINE",
"115 318 LINE"
);
}
);
width = 532;
}
);
unicode = 002E;
},
{
glyphname = periodcentered;
layers = (
{
layerId = "DBFADC97-046A-4853-BE6B-B7E9D7A52A7E";
name = "Bold Condensed";
paths = (
{
closed = 1;
nodes = (
"108 723 LINE",
"386 723 LINE",
"386 1021 LINE",
"108 1021 LINE"
);
}
);
width = 480;
}
);
unicode = 00B7;
},
{
glyphname = question;
layers = (
{
layerId = "DBFADC97-046A-4853-BE6B-B7E9D7A52A7E";
name = "Bold Condensed";
paths = (
{
closed = 1;
nodes = (
"269 494 LINE",
"591 494 LINE",
"591 633 LINE",
"922 729 OFFCURVE",
"964 913 OFFCURVE",
"964 1259 CURVE SMOOTH",
"964 1612 OFFCURVE",
"876 1781 OFFCURVE",
"521 1781 CURVE SMOOTH",
"250 1781 OFFCURVE",
"91 1653 OFFCURVE",
"91 1384 CURVE SMOOTH",
"91 1160 LINE",
"437 1160 LINE",
"437 1306 LINE SMOOTH",
"437 1398 OFFCURVE",
"438 1466 OFFCURVE",
"525 1466 CURVE SMOOTH",
"605 1466 OFFCURVE",
"603 1397 OFFCURVE",
"603 1310 CURVE SMOOTH",
"603 968 OFFCURVE",
"582 870 OFFCURVE",
"269 810 CURVE"
);
},
{
closed = 1;
nodes = (
"281 1 LINE",
"595 1 LINE",
"595 299 LINE",
"281 299 LINE"
);
}
);
width = 1044;
}
);
unicode = 003F;
},
{
glyphname = questiondown;
layers = (
{
layerId = "DBFADC97-046A-4853-BE6B-B7E9D7A52A7E";
name = "Bold Condensed";
paths = (
{
closed = 1;
nodes = (
"91 -109 OFFCURVE",
"179 -278 OFFCURVE",
"534 -278 CURVE SMOOTH",
"805 -278 OFFCURVE",
"964 -150 OFFCURVE",
"964 119 CURVE SMOOTH",
"964 343 LINE",
"618 343 LINE",
"618 197 LINE SMOOTH",
"618 105 OFFCURVE",
"617 37 OFFCURVE",
"530 37 CURVE SMOOTH",
"450 37 OFFCURVE",
"452 106 OFFCURVE",
"452 193 CURVE SMOOTH",
"452 535 OFFCURVE",
"473 633 OFFCURVE",
"786 693 CURVE",
"786 1009 LINE",
"464 1009 LINE",
"464 870 LINE",
"133 774 OFFCURVE",
"91 590 OFFCURVE",
"91 244 CURVE SMOOTH"
);
},
{
closed = 1;
nodes = (
"460 1204 LINE",
"774 1204 LINE",
"774 1502 LINE",
"460 1502 LINE"
);
}
);
width = 1044;
}
);
unicode = 00BF;
},
{
glyphname = quotedbl;
layers = (
{
layerId = "DBFADC97-046A-4853-BE6B-B7E9D7A52A7E";
name = "Bold Condensed";
paths = (
{
closed = 1;
nodes = (
"176 1125 LINE",
"342 1125 LINE",
"408 1761 LINE",
"96 1761 LINE"
);
},
{
closed = 1;
nodes = (
"616 1125 LINE",
"782 1125 LINE",
"848 1761 LINE",
"536 1761 LINE"
);
}
);
width = 944;
}
);
unicode = 0022;
},
{
glyphname = quotesingle;
layers = (
{
layerId = "DBFADC97-046A-4853-BE6B-B7E9D7A52A7E";
name = "Bold Condensed";
paths = (
{
closed = 1;
nodes = (
"141 1125 LINE",
"317 1125 LINE",
"382 1761 LINE",
"81 1761 LINE"
);
}
);
width = 438;
}
);
unicode = 0027;
},
{
glyphname = semicolon;
layers = (
{
layerId = "DBFADC97-046A-4853-BE6B-B7E9D7A52A7E";
name = "Bold Condensed";
paths = (
{
closed = 1;
nodes = (
"176 -113 LINE",
"344 -113 LINE",
"446 224 LINE",
"446 533 LINE",
"115 533 LINE",
"115 215 LINE",
"242 215 LINE"
);
},
{
closed = 1;
nodes = (
"115 930 LINE",
"446 930 LINE",
"446 1274 LINE",
"115 1274 LINE"
);
}
);
width = 561;
}
);
unicode = 003B;
},
{
glyphname = slash;
layers = (
{
layerId = "DBFADC97-046A-4853-BE6B-B7E9D7A52A7E";
name = "Bold Condensed";
paths = (
{
closed = 1;
nodes = (
"84 0 LINE",
"395 0 LINE",
"806 1769 LINE",
"494 1769 LINE"
);
}
);
width = 890;
}
);
unicode = 002F;
},
{
glyphname = underscore;
layers = (
{
layerId = "DBFADC97-046A-4853-BE6B-B7E9D7A52A7E";
name = "Bold Condensed";
paths = (
{
closed = 1;
nodes = (
"48 -232 LINE",
"699 -232 LINE",
"699 0 LINE",
"48 0 LINE"
);
}
);
width = 748;
}
);
unicode = 005F;
},
{
glyphname = braceleft;
layers = (
{
layerId = "DBFADC97-046A-4853-BE6B-B7E9D7A52A7E";
name = "Bold Condensed";
paths = (
{
closed = 1;
nodes = (
"224 -45 OFFCURVE",
"355 -121 OFFCURVE",
"655 -121 CURVE SMOOTH",
"715 -121 LINE",
"715 126 LINE",
"595 126 OFFCURVE",
"576 159 OFFCURVE",
"576 230 CURVE SMOOTH",
"576 476 LINE SMOOTH",
"576 713 OFFCURVE",
"543 795 OFFCURVE",
"426 830 CURVE",
"543 865 OFFCURVE",
"576 947 OFFCURVE",
"576 1184 CURVE SMOOTH",
"576 1430 LINE SMOOTH",
"576 1501 OFFCURVE",
"595 1534 OFFCURVE",
"715 1534 CURVE",
"715 1781 LINE",
"655 1781 LINE SMOOTH",
"355 1781 OFFCURVE",
"224 1705 OFFCURVE",
"224 1443 CURVE SMOOTH",
"224 1168 LINE SMOOTH",
"224 1035 OFFCURVE",
"223 964 OFFCURVE",
"85 964 CURVE",
"85 696 LINE",
"223 696 OFFCURVE",
"224 625 OFFCURVE",
"224 492 CURVE SMOOTH",
"224 217 LINE SMOOTH"
);
}
);
width = 798;
}
);
unicode = 007B;
},
{
glyphname = braceright;
layers = (
{
layerId = "DBFADC97-046A-4853-BE6B-B7E9D7A52A7E";
name = "Bold Condensed";
paths = (
{
closed = 1;
nodes = (
"85 -121 LINE",
"145 -121 LINE SMOOTH",
"445 -121 OFFCURVE",
"576 -45 OFFCURVE",
"576 217 CURVE SMOOTH",
"576 492 LINE SMOOTH",
"576 625 OFFCURVE",
"577 696 OFFCURVE",
"715 696 CURVE",
"715 964 LINE",
"577 964 OFFCURVE",
"576 1035 OFFCURVE",
"576 1168 CURVE SMOOTH",
"576 1443 LINE SMOOTH",
"576 1705 OFFCURVE",
"445 1781 OFFCURVE",
"145 1781 CURVE SMOOTH",
"85 1781 LINE",
"85 1534 LINE",
"205 1534 OFFCURVE",
"224 1501 OFFCURVE",
"224 1430 CURVE SMOOTH",
"224 1184 LINE SMOOTH",
"224 947 OFFCURVE",
"257 865 OFFCURVE",
"374 830 CURVE",
"257 795 OFFCURVE",
"224 713 OFFCURVE",
"224 476 CURVE SMOOTH",
"224 230 LINE SMOOTH",
"224 159 OFFCURVE",
"205 126 OFFCURVE",
"85 126 CURVE"
);
}
);
width = 798;
}
);
unicode = 007D;
},
{
glyphname = bracketleft;
layers = (
{
layerId = "DBFADC97-046A-4853-BE6B-B7E9D7A52A7E";
name = "Bold Condensed";
paths = (
{
closed = 1;
nodes = (
"122 0 LINE",
"676 0 LINE",
"676 281 LINE",
"478 281 LINE",
"478 1480 LINE",
"676 1480 LINE",
"676 1761 LINE",
"122 1761 LINE"
);
}
);
width = 764;
}
);
unicode = 005B;
},
{
glyphname = bracketright;
layers = (
{
layerId = "DBFADC97-046A-4853-BE6B-B7E9D7A52A7E";
name = "Bold Condensed";
paths = (
{
closed = 1;
nodes = (
"88 0 LINE",
"642 0 LINE",
"642 1761 LINE",
"88 1761 LINE",
"88 1480 LINE",
"286 1480 LINE",
"286 281 LINE",
"88 281 LINE"
);
}
);
width = 764;
}
);
unicode = 005D;
},
{
glyphname = parenleft;
layers = (
{
layerId = "DBFADC97-046A-4853-BE6B-B7E9D7A52A7E";
name = "Bold Condensed";
paths = (
{
closed = 1;
nodes = (
"126 -50 OFFCURVE",
"274 -165 OFFCURVE",
"621 -165 CURVE",
"621 102 LINE",
"501 102 OFFCURVE",
"482 191 OFFCURVE",
"482 309 CURVE SMOOTH",
"482 1367 LINE SMOOTH",
"482 1485 OFFCURVE",
"501 1574 OFFCURVE",
"621 1574 CURVE",
"621 1841 LINE",
"274 1841 OFFCURVE",
"126 1726 OFFCURVE",
"126 1363 CURVE SMOOTH",
"126 313 LINE SMOOTH"
);
}
);
width = 697;
}
);
unicode = 0028;
},
{
glyphname = parenright;
layers = (
{
layerId = "DBFADC97-046A-4853-BE6B-B7E9D7A52A7E";
name = "Bold Condensed";
paths = (
{
closed = 1;
nodes = (
"76 -165 LINE",
"423 -165 OFFCURVE",
"571 -50 OFFCURVE",
"571 313 CURVE SMOOTH",
"571 1363 LINE SMOOTH",
"571 1726 OFFCURVE",
"423 1841 OFFCURVE",
"76 1841 CURVE",
"76 1574 LINE",
"196 1574 OFFCURVE",
"215 1485 OFFCURVE",
"215 1367 CURVE SMOOTH",
"215 309 LINE SMOOTH",
"215 191 OFFCURVE",
"196 102 OFFCURVE",
"76 102 CURVE"
);
}
);
width = 697;
}
);
unicode = 0029;
},
{
glyphname = emdash;
layers = (
{
layerId = "DBFADC97-046A-4853-BE6B-B7E9D7A52A7E";
name = "Bold Condensed";
paths = (
{
closed = 1;
nodes = (
"60 509 LINE",
"1092 509 LINE",
"1092 741 LINE",
"60 741 LINE"
);
}
);
width = 1153;
}
);
unicode = 2014;
},
{
glyphname = endash;
layers = (
{
layerId = "DBFADC97-046A-4853-BE6B-B7E9D7A52A7E";
name = "Bold Condensed";
paths = (
{
closed = 1;
nodes = (
"120 509 LINE",
"636 509 LINE",
"636 741 LINE",
"120 741 LINE"
);
}
);
width = 756;
}
);
unicode = 2013;
},
{
glyphname = hyphen;
layers = (
{
layerId = "DBFADC97-046A-4853-BE6B-B7E9D7A52A7E";
name = "Bold Condensed";
paths = (
{
closed = 1;
nodes = (
"90 509 LINE",
"606 509 LINE",
"606 741 LINE",
"90 741 LINE"
);
}
);
width = 696;
}
);
unicode = 002D;
},
{
glyphname = uni00AD;
layers = (
{
layerId = "DBFADC97-046A-4853-BE6B-B7E9D7A52A7E";
name = "Bold Condensed";
paths = (
{
closed = 1;
nodes = (
"90 509 LINE",
"606 509 LINE",
"606 741 LINE",
"90 741 LINE"
);
}
);
width = 696;
}
);
unicode = 00AD;
},
{
glyphname = guillemotleft;
layers = (
{
layerId = "DBFADC97-046A-4853-BE6B-B7E9D7A52A7E";
name = "Bold Condensed";
paths = (
{
closed = 1;
nodes = (
"608 260 LINE",
"608 618 LINE",
"296 749 LINE",
"608 871 LINE",
"608 1230 LINE",
"98 959 LINE",
"98 545 LINE"
);
},
{
closed = 1;
nodes = (
"1186 260 LINE",
"1186 618 LINE",
"874 749 LINE",
"1186 871 LINE",
"1186 1230 LINE",
"676 959 LINE",
"676 545 LINE"
);
}
);
width = 1304;
}
);
unicode = 00AB;
},
{
glyphname = guillemotright;
layers = (
{
layerId = "DBFADC97-046A-4853-BE6B-B7E9D7A52A7E";
name = "Bold Condensed";
paths = (
{
closed = 1;
nodes = (
"118 260 LINE",
"628 545 LINE",
"628 959 LINE",
"118 1230 LINE",
"118 871 LINE",
"430 749 LINE",
"118 618 LINE"
);
},
{
closed = 1;
nodes = (
"695 260 LINE",
"1205 545 LINE",
"1205 959 LINE",
"695 1230 LINE",
"695 871 LINE",
"1007 749 LINE",
"695 618 LINE"
);
}
);
width = 1304;
}
);
unicode = 00BB;
},
{
glyphname = guilsinglleft;
layers = (
{
layerId = "DBFADC97-046A-4853-BE6B-B7E9D7A52A7E";
name = "Bold Condensed";
paths = (
{
closed = 1;
nodes = (
"548 260 LINE",
"548 618 LINE",
"236 749 LINE",
"548 871 LINE",
"548 1230 LINE",
"38 959 LINE",
"38 545 LINE"
);
}
);
width = 606;
}
);
unicode = 2039;
},
{
glyphname = guilsinglright;
layers = (
{
layerId = "DBFADC97-046A-4853-BE6B-B7E9D7A52A7E";
name = "Bold Condensed";
paths = (
{
closed = 1;
nodes = (
"118 260 LINE",
"628 545 LINE",
"628 959 LINE",
"118 1230 LINE",
"118 871 LINE",
"430 749 LINE",
"118 618 LINE"
);
}
);
width = 727;
}
);
unicode = 203A;
},
{
glyphname = quotedblbase;
layers = (
{
layerId = "DBFADC97-046A-4853-BE6B-B7E9D7A52A7E";
name = "Bold Condensed";
paths = (
{
closed = 1;
nodes = (
"188 -330 LINE",
"399 -330 LINE",
"501 8 LINE",
"501 304 LINE",
"127 304 LINE",
"127 0 LINE",
"254 0 LINE"
);
},
{
closed = 1;
nodes = (
"669 -330 LINE",
"880 -330 LINE",
"982 8 LINE",
"982 304 LINE",
"608 304 LINE",
"608 0 LINE",
"735 0 LINE"
);
}
);
width = 1016;
}
);
unicode = 201E;
},
{
glyphname = quotedblleft;
layers = (
{
layerId = "DBFADC97-046A-4853-BE6B-B7E9D7A52A7E";
name = "Bold Condensed";
paths = (
{
closed = 1;
nodes = (
"113 1135 LINE",
"487 1135 LINE",
"487 1440 LINE",
"360 1440 LINE",
"426 1769 LINE",
"215 1769 LINE",
"113 1431 LINE"
);
},
{
closed = 1;
nodes = (
"594 1135 LINE",
"968 1135 LINE",
"968 1440 LINE",
"841 1440 LINE",
"907 1769 LINE",
"696 1769 LINE",
"594 1431 LINE"
);
}
);
width = 1030;
}
);
unicode = 201C;
},
{
glyphname = quotedblright;
layers = (
{
layerId = "DBFADC97-046A-4853-BE6B-B7E9D7A52A7E";
name = "Bold Condensed";
paths = (
{
closed = 1;
nodes = (
"188 1135 LINE",
"399 1135 LINE",
"501 1473 LINE",
"501 1769 LINE",
"127 1769 LINE",
"127 1464 LINE",
"254 1464 LINE"
);
},
{
closed = 1;
nodes = (
"669 1135 LINE",
"880 1135 LINE",
"982 1473 LINE",
"982 1769 LINE",
"608 1769 LINE",
"608 1464 LINE",
"735 1464 LINE"
);
}
);
width = 1077;
}
);
unicode = 201D;
},
{
glyphname = quoteleft;
layers = (
{
layerId = "DBFADC97-046A-4853-BE6B-B7E9D7A52A7E";
name = "Bold Condensed";
paths = (
{
closed = 1;
nodes = (
"425 1768 LINE",
"234 1768 LINE",
"82 1320 LINE",
"82 988 LINE",
"491 988 LINE",
"491 1329 LINE",
"329 1329 LINE"
);
}
);
width = 577;
}
);
unicode = 2018;
},
{
glyphname = quoteright;
layers = (
{
layerId = "DBFADC97-046A-4853-BE6B-B7E9D7A52A7E";
name = "Bold Condensed";
paths = (
{
closed = 1;
nodes = (
"148 988 LINE",
"339 988 LINE",
"491 1436 LINE",
"491 1768 LINE",
"82 1768 LINE",
"82 1427 LINE",
"244 1427 LINE"
);
}
);
width = 577;
}
);
unicode = 2019;
},
{
glyphname = quotesinglbase;
layers = (
{
layerId = "DBFADC97-046A-4853-BE6B-B7E9D7A52A7E";
name = "Bold Condensed";
paths = (
{
closed = 1;
nodes = (
"116 -236 LINE",
"327 -236 LINE",
"429 9 LINE",
"429 298 LINE",
"55 298 LINE",
"55 0 LINE",
"182 0 LINE"
);
}
);
width = 484;
}
);
unicode = 201A;
},
{
glyphname = .notdef;
layers = (
{
layerId = "DBFADC97-046A-4853-BE6B-B7E9D7A52A7E";
name = "Bold Condensed";
paths = (
{
closed = 1;
nodes = (
"204 102 LINE",
"204 990 LINE",
"820 990 LINE",
"820 102 LINE"
);
},
{
closed = 1;
nodes = (
"102 0 LINE",
"922 0 LINE",
"922 1092 LINE",
"102 1092 LINE"
);
}
);
width = 1024;
}
);
},
{
glyphname = florin;
layers = (
{
layerId = "DBFADC97-046A-4853-BE6B-B7E9D7A52A7E";
name = "Bold Condensed";
paths = (
{
closed = 1;
nodes = (
"166 -11 OFFCURVE",
"234 -21 OFFCURVE",
"319 -21 CURVE SMOOTH",
"483 -21 OFFCURVE",
"554 61 OFFCURVE",
"554 221 CURVE SMOOTH",
"554 986 LINE",
"648 986 LINE",
"648 1263 LINE",
"554 1263 LINE",
"554 1455 LINE SMOOTH",
"554 1506 OFFCURVE",
"560 1536 OFFCURVE",
"609 1536 CURVE SMOOTH",
"619 1536 OFFCURVE",
"633 1534 OFFCURVE",
"652 1531 CURVE",
"652 1752 LINE",
"601 1771 OFFCURVE",
"533 1781 OFFCURVE",
"448 1781 CURVE SMOOTH",
"281 1781 OFFCURVE",
"206 1702 OFFCURVE",
"206 1539 CURVE SMOOTH",
"206 1263 LINE",
"107 1263 LINE",
"107 986 LINE",
"206 986 LINE",
"206 305 LINE SMOOTH",
"206 257 OFFCURVE",
"206 224 OFFCURVE",
"158 224 CURVE SMOOTH",
"148 224 OFFCURVE",
"134 226 OFFCURVE",
"115 229 CURVE",
"115 8 LINE"
);
}
);
width = 767;
}
);
unicode = 0192;
},
{
glyphname = cent;
layers = (
{
layerId = "DBFADC97-046A-4853-BE6B-B7E9D7A52A7E";
name = "Bold Condensed";
paths = (
{
closed = 1;
nodes = (
"465 -228 LINE",
"636 -228 LINE",
"636 -13 LINE",
"842 15 OFFCURVE",
"978 157 OFFCURVE",
"978 379 CURVE SMOOTH",
"978 614 LINE",
"623 614 LINE",
"624 389 LINE SMOOTH",
"624.298 322 OFFCURVE",
"602 264 OFFCURVE",
"540 264 CURVE SMOOTH",
"479 264 OFFCURVE",
"454 326 OFFCURVE",
"454 387 CURVE SMOOTH",
"454 1114 LINE SMOOTH",
"454 1197 OFFCURVE",
"483 1239 OFFCURVE",
"542 1239 CURVE SMOOTH",
"609 1239 OFFCURVE",
"622 1185 OFFCURVE",
"622 1116 CURVE SMOOTH",
"622 879 LINE",
"978 879 LINE",
"978 1135 LINE SMOOTH",
"978 1351 OFFCURVE",
"839 1484 OFFCURVE",
"636 1512 CURVE",
"636 1769 LINE",
"465 1769 LINE",
"465 1514 LINE",
"179 1484 OFFCURVE",
"98 1297 OFFCURVE",
"98 954 CURVE SMOOTH",
"98 492 LINE SMOOTH",
"98 190 OFFCURVE",
"198 18 OFFCURVE",
"465 -13 CURVE"
);
}
);
width = 1048;
}
);
unicode = 00A2;
},
{
glyphname = currency;
layers = (
{
layerId = "DBFADC97-046A-4853-BE6B-B7E9D7A52A7E";
name = "Bold Condensed";
paths = (
{
closed = 1;
nodes = (
"274 509 LINE",
"363 598 LINE",
"424 563 OFFCURVE",
"496 545 OFFCURVE",
"579 545 CURVE SMOOTH",
"661 545 OFFCURVE",
"733 562 OFFCURVE",
"795 597 CURVE",
"884 509 LINE",
"1034 658 LINE",
"944 748 LINE",
"980 813 OFFCURVE",
"998 885 OFFCURVE",
"998 964 CURVE SMOOTH",
"998 1043 OFFCURVE",
"980 1114 OFFCURVE",
"944 1179 CURVE",
"1034 1269 LINE",
"884 1418 LINE",
"797 1331 LINE",
"732 1367 OFFCURVE",
"659 1385 OFFCURVE",
"579 1385 CURVE SMOOTH",
"498 1385 OFFCURVE",
"426 1367 OFFCURVE",
"361 1330 CURVE",
"274 1418 LINE",
"125 1268 LINE",
"215 1178 LINE",
"180 1113 OFFCURVE",
"163 1042 OFFCURVE",
"163 964 CURVE SMOOTH",
"163 887 OFFCURVE",
"181 815 OFFCURVE",
"216 750 CURVE",
"125 659 LINE"
);
},
{
closed = 1;
nodes = (
"788 842 OFFCURVE",
"706 741 OFFCURVE",
"579 741 CURVE SMOOTH",
"452 741 OFFCURVE",
"371 840 OFFCURVE",
"371 964 CURVE SMOOTH",
"371 1087 OFFCURVE",
"453 1186 OFFCURVE",
"579 1186 CURVE SMOOTH",
"708 1186 OFFCURVE",
"788 1092 OFFCURVE",
"788 966 CURVE SMOOTH"
);
}
);
width = 1159;
}
);
unicode = 00A4;
},
{
glyphname = dollar;
layers = (
{
components = (
{
name = s;
transform = "{1, 0, 0, 1, 0, 40}";
}
);
layerId = "DBFADC97-046A-4853-BE6B-B7E9D7A52A7E";
name = "Bold Condensed";
paths = (
{
closed = 1;
nodes = (
"410 -180 LINE",
"583 -180 LINE",
"583 80 LINE",
"410 80 LINE"
);
},
{
closed = 1;
nodes = (
"410 1531 LINE",
"583 1531 LINE",
"583 1760 LINE",
"410 1760 LINE"
);
}
);
width = 935;
}
);
unicode = 0024;
},
{
glyphname = sterling;
layers = (
{
layerId = "DBFADC97-046A-4853-BE6B-B7E9D7A52A7E";
name = "Bold Condensed";
paths = (
{
closed = 1;
nodes = (
"82 0 LINE",
"990 0 LINE",
"990 318 LINE",
"506 318 LINE",
"588 358 OFFCURVE",
"675 446 OFFCURVE",
"675 604 CURVE SMOOTH",
"675 646 OFFCURVE",
"669 693 OFFCURVE",
"655 745 CURVE",
"897 745 LINE",
"897 1002 LINE",
"589 1002 LINE",
"544.646 1193.42 OFFCURVE",
"494 1324.45 OFFCURVE",
"494 1414 CURVE SMOOTH",
"494 1479 OFFCURVE",
"532 1500 OFFCURVE",
"588 1500 CURVE SMOOTH",
"641 1500 OFFCURVE",
"671 1466 OFFCURVE",
"671 1393 CURVE SMOOTH",
"671 1246 LINE",
"999 1246 LINE",
"999 1381 LINE SMOOTH",
"999 1649 OFFCURVE",
"882 1781 OFFCURVE",
"599 1781 CURVE SMOOTH",
"329 1781 OFFCURVE",
"159 1647 OFFCURVE",
"159 1380 CURVE SMOOTH",
"159 1307 OFFCURVE",
"204 1145 OFFCURVE",
"256 1002 CURVE",
"87 1002 LINE",
"87 745 LINE",
"308 745 LINE",
"316 704 OFFCURVE",
"320 665 OFFCURVE",
"320 630 CURVE SMOOTH",
"320 476 OFFCURVE",
"245 368 OFFCURVE",
"82 297 CURVE"
);
}
);
width = 1077;
}
);
unicode = 00A3;
},
{
glyphname = yen;
layers = (
{
layerId = "DBFADC97-046A-4853-BE6B-B7E9D7A52A7E";
name = "Bold Condensed";
paths = (
{
closed = 1;
nodes = (
"300 0 LINE",
"632 0 LINE",
"632 202 LINE",
"806 202 LINE",
"806 408 LINE",
"632 408 LINE",
"632 525 LINE",
"806 525 LINE",
"806 729 LINE",
"652 729 LINE",
"912 1761 LINE",
"589 1761 LINE",
"528 1454 LINE",
"474 1156 LINE",
"469 1156 LINE",
"412 1454 LINE",
"346 1761 LINE",
"19 1761 LINE",
"280 729 LINE",
"122 729 LINE",
"122 525 LINE",
"300 525 LINE",
"300 408 LINE",
"122 408 LINE",
"122 202 LINE",
"300 202 LINE"
);
}
);
width = 948;
}
);
unicode = 00A5;
},
{
glyphname = approxequal;
layers = (
{
layerId = "DBFADC97-046A-4853-BE6B-B7E9D7A52A7E";
name = "Bold Condensed";
paths = (
{
closed = 1;
nodes = (
"490 337 OFFCURVE",
"655 213 OFFCURVE",
"769 213 CURVE SMOOTH",
"908 213 OFFCURVE",
"995 299 OFFCURVE",
"1021 514 CURVE SMOOTH",
"1033 612 LINE",
"813 654 LINE",
"786 564 OFFCURVE",
"765 551 OFFCURVE",
"741 547 CURVE",
"735 547 LINE SMOOTH",
"671 547 OFFCURVE",
"461 659 OFFCURVE",
"357 659 CURVE SMOOTH",
"218 659 OFFCURVE",
"134 534 OFFCURVE",
"84 330 CURVE",
"289 244 LINE",
"312 297 OFFCURVE",
"326 325 OFFCURVE",
"354 333 CURVE SMOOTH",
"363 336 OFFCURVE",
"373 337 OFFCURVE",
"384 337 CURVE SMOOTH"
);
},
{
closed = 1;
nodes = (
"490 900 OFFCURVE",
"655 776 OFFCURVE",
"769 776 CURVE SMOOTH",
"908 776 OFFCURVE",
"995 862 OFFCURVE",
"1021 1077 CURVE SMOOTH",
"1033 1175 LINE",
"813 1217 LINE",
"786 1127 OFFCURVE",
"765 1114 OFFCURVE",
"741 1110 CURVE",
"735 1110 LINE SMOOTH",
"671 1110 OFFCURVE",
"461 1222 OFFCURVE",
"357 1222 CURVE SMOOTH",
"218 1222 OFFCURVE",
"134 1097 OFFCURVE",
"84 893 CURVE",
"289 807 LINE",
"312 860 OFFCURVE",
"326 888 OFFCURVE",
"354 896 CURVE SMOOTH",
"363 899 OFFCURVE",
"373 900 OFFCURVE",
"384 900 CURVE SMOOTH"
);
}
);
width = 1117;
}
);
unicode = 2248;
},
{
glyphname = asciitilde;
layers = (
{
layerId = "DBFADC97-046A-4853-BE6B-B7E9D7A52A7E";
name = "Bold Condensed";
paths = (
{
closed = 1;
nodes = (
"490 900 OFFCURVE",
"655 776 OFFCURVE",
"769 776 CURVE SMOOTH",
"908 776 OFFCURVE",
"995 862 OFFCURVE",
"1021 1077 CURVE SMOOTH",
"1033 1175 LINE",
"813 1217 LINE",
"786 1127 OFFCURVE",
"765 1114 OFFCURVE",
"741 1110 CURVE",
"735 1110 LINE SMOOTH",
"671 1110 OFFCURVE",
"461 1222 OFFCURVE",
"357 1222 CURVE SMOOTH",
"218 1222 OFFCURVE",
"134 1097 OFFCURVE",
"84 893 CURVE",
"289 807 LINE",
"316.94 871.384 OFFCURVE",
"325.484 900 OFFCURVE",
"384 900 CURVE SMOOTH"
);
}
);
width = 1117;
}
);
unicode = 007E;
},
{
glyphname = divide;
layers = (
{
layerId = "DBFADC97-046A-4853-BE6B-B7E9D7A52A7E";
name = "Bold Condensed";
paths = (
{
closed = 1;
nodes = (
"253 237 LINE",
"551 237 LINE",
"551 535 LINE",
"253 535 LINE"
);
},
{
closed = 1;
nodes = (
"94 638 LINE",
"710 638 LINE",
"710 870 LINE",
"94 870 LINE"
);
},
{
closed = 1;
nodes = (
"253 976 LINE",
"551 976 LINE",
"551 1274 LINE",
"253 1274 LINE"
);
}
);
width = 804;
}
);
unicode = 00F7;
},
{
glyphname = equal;
layers = (
{
layerId = "DBFADC97-046A-4853-BE6B-B7E9D7A52A7E";
name = "Bold Condensed";
paths = (
{
closed = 1;
nodes = (
"104 509 LINE",
"618 509 LINE",
"618 741 LINE",
"104 741 LINE"
);
},
{
closed = 1;
nodes = (
"104 892 LINE",
"618 892 LINE",
"618 1116 LINE",
"104 1116 LINE"
);
}
);
width = 722;
}
);
unicode = 003D;
},
{
glyphname = greater;
layers = (
{
layerId = "DBFADC97-046A-4853-BE6B-B7E9D7A52A7E";
name = "Bold Condensed";
paths = (
{
closed = 1;
nodes = (
"94 200 LINE",
"664 545 LINE",
"664 959 LINE",
"94 1300 LINE",
"94 941 LINE",
"436 749 LINE",
"94 558 LINE"
);
}
);
width = 730;
}
);
unicode = 003E;
},
{
glyphname = greaterequal;
layers = (
{
layerId = "DBFADC97-046A-4853-BE6B-B7E9D7A52A7E";
name = "Bold Condensed";
paths = (
{
closed = 1;
nodes = (
"112 292 LINE",
"682 637 LINE",
"682 1051 LINE",
"112 1392 LINE",
"112 1033 LINE",
"454 841 LINE",
"112 650 LINE"
);
},
{
closed = 1;
nodes = (
"139 0 LINE",
"655 0 LINE",
"655 232 LINE",
"139 232 LINE"
);
}
);
width = 781;
}
);
unicode = 2265;
},
{
glyphname = infinity;
layers = (
{
layerId = "DBFADC97-046A-4853-BE6B-B7E9D7A52A7E";
name = "Bold Condensed";
paths = (
{
closed = 1;
nodes = (
"696 512 OFFCURVE",
"787 439 OFFCURVE",
"912 439 CURVE SMOOTH",
"1090 439 OFFCURVE",
"1182 559 OFFCURVE",
"1182 744 CURVE SMOOTH",
"1182 927 OFFCURVE",
"1088 1041 OFFCURVE",
"912 1041 CURVE SMOOTH",
"814 1041 OFFCURVE",
"723 989 OFFCURVE",
"639 885 CURVE",
"554 980 OFFCURVE",
"465 1028 OFFCURVE",
"370 1028 CURVE SMOOTH",
"200 1028 OFFCURVE",
"108 920 OFFCURVE",
"108 744 CURVE SMOOTH",
"108 564 OFFCURVE",
"196 452 OFFCURVE",
"370 452 CURVE SMOOTH",
"482 452 OFFCURVE",
"583 522 OFFCURVE",
"639 585 CURVE"
);
},
{
closed = 1;
nodes = (
"528 693 OFFCURVE",
"480 669 OFFCURVE",
"433 669 CURVE SMOOTH",
"374 669 OFFCURVE",
"344 693 OFFCURVE",
"344 740 CURVE SMOOTH",
"344 787 OFFCURVE",
"374 810 OFFCURVE",
"433 810 CURVE SMOOTH",
"481 810 OFFCURVE",
"529 787 OFFCURVE",
"577 740 CURVE"
);
},
{
closed = 1;
nodes = (
"948 693 OFFCURVE",
"916 669 OFFCURVE",
"853 669 CURVE SMOOTH",
"799 669 OFFCURVE",
"748 693 OFFCURVE",
"701 740 CURVE",
"752 787 OFFCURVE",
"802 811 OFFCURVE",
"853 811 CURVE SMOOTH",
"916 811 OFFCURVE",
"948 787 OFFCURVE",
"948 740 CURVE SMOOTH"
);
}
);
width = 1300;
}
);
unicode = 221E;
},
{
glyphname = integral;
layers = (
{
layerId = "DBFADC97-046A-4853-BE6B-B7E9D7A52A7E";
name = "Bold Condensed";
paths = (
{
closed = 1;
nodes = (
"166 -11 OFFCURVE",
"234 -21 OFFCURVE",
"319 -21 CURVE SMOOTH",
"483 -21 OFFCURVE",
"554 61 OFFCURVE",
"554 221 CURVE SMOOTH",
"554 1455 LINE SMOOTH",
"554 1506 OFFCURVE",
"560 1536 OFFCURVE",
"609 1536 CURVE SMOOTH",
"619 1536 OFFCURVE",
"633 1534 OFFCURVE",
"652 1531 CURVE",
"652 1752 LINE",
"601 1771 OFFCURVE",
"533 1781 OFFCURVE",
"448 1781 CURVE SMOOTH",
"281 1781 OFFCURVE",
"206 1702 OFFCURVE",
"206 1539 CURVE SMOOTH",
"206 305 LINE SMOOTH",
"206 257 OFFCURVE",
"206 224 OFFCURVE",
"158 224 CURVE SMOOTH",
"148 224 OFFCURVE",
"134 226 OFFCURVE",
"115 229 CURVE",
"115 8 LINE"
);
}
);
width = 767;
}
);
unicode = 222B;
},
{
glyphname = less;
layers = (
{
layerId = "DBFADC97-046A-4853-BE6B-B7E9D7A52A7E";
name = "Bold Condensed";
paths = (
{
closed = 1;
nodes = (
"636 200 LINE",
"636 558 LINE",
"294 749 LINE",
"636 941 LINE",
"636 1300 LINE",
"66 959 LINE",
"66 545 LINE"
);
}
);
width = 730;
}
);
unicode = 003C;
},
{
glyphname = lessequal;
layers = (
{
layerId = "DBFADC97-046A-4853-BE6B-B7E9D7A52A7E";
name = "Bold Condensed";
paths = (
{
closed = 1;
nodes = (
"669 292 LINE",
"669 650 LINE",
"327 841 LINE",
"669 1033 LINE",
"669 1392 LINE",
"99 1051 LINE",
"99 637 LINE"
);
},
{
closed = 1;
nodes = (
"126 0 LINE",
"642 0 LINE",
"642 232 LINE",
"126 232 LINE"
);
}
);
width = 781;
}
);
unicode = 2264;
},
{
glyphname = logicalnot;
layers = (
{
layerId = "DBFADC97-046A-4853-BE6B-B7E9D7A52A7E";
name = "Bold Condensed";
paths = (
{
closed = 1;
nodes = (
"602 439 LINE",
"826 439 LINE",
"826 979 LINE",
"97 979 LINE",
"97 743 LINE",
"602 743 LINE"
);
}
);
width = 947;
}
);
unicode = 00AC;
},
{
glyphname = minus;
layers = (
{
layerId = "DBFADC97-046A-4853-BE6B-B7E9D7A52A7E";
name = "Bold Condensed";
paths = (
{
closed = 1;
nodes = (
"60 509 LINE",
"576 509 LINE",
"576 741 LINE",
"60 741 LINE"
);
}
);
width = 637;
}
);
unicode = 2212;
},
{
glyphname = multiply;
layers = (
{
layerId = "DBFADC97-046A-4853-BE6B-B7E9D7A52A7E";
name = "Bold Condensed";
paths = (
{
closed = 1;
nodes = (
"208 314 LINE",
"355 461 LINE",
"502 314 LINE",
"666 478 LINE",
"519 625 LINE",
"666 772 LINE",
"502 936 LINE",
"355 789 LINE",
"208 936 LINE",
"44 772 LINE",
"191 625 LINE",
"44 478 LINE"
);
}
);
width = 710;
}
);
unicode = 00D7;
},
{
glyphname = notequal;
layers = (
{
layerId = "DBFADC97-046A-4853-BE6B-B7E9D7A52A7E";
name = "Bold Condensed";
paths = (
{
closed = 1;
nodes = (
"134 0 LINE",
"432 0 LINE",
"536.832 559 LINE",
"782 559 LINE",
"782 791 LINE",
"580.341 791 LINE",
"608.658 942 LINE",
"782 942 LINE",
"782 1166 LINE",
"650.666 1166 LINE",
"763 1765 LINE",
"454 1765 LINE",
"345.399 1166 LINE",
"103 1166 LINE",
"103 942 LINE",
"304.788 942 LINE",
"277.411 791 LINE",
"103 791 LINE",
"103 559 LINE",
"235.348 559 LINE"
);
}
);
width = 884;
}
);
unicode = 2260;
},
{
glyphname = partialdiff;
layers = (
{
layerId = "DBFADC97-046A-4853-BE6B-B7E9D7A52A7E";
name = "Bold Condensed";
paths = (
{
closed = 1;
nodes = (
"37 127 OFFCURVE",
"158 -21 OFFCURVE",
"446 -21 CURVE SMOOTH",
"669 -21 OFFCURVE",
"811 54 OFFCURVE",
"890 196 CURVE SMOOTH",
"977 354 OFFCURVE",
"1030 1074 OFFCURVE",
"1030 1159 CURVE SMOOTH",
"1030 1479 OFFCURVE",
"928 1681 OFFCURVE",
"619 1681 CURVE SMOOTH",
"513 1681 OFFCURVE",
"383 1656 OFFCURVE",
"229 1607 CURVE",
"283 1376 LINE",
"334 1396 OFFCURVE",
"432 1415 OFFCURVE",
"507 1415 CURVE SMOOTH",
"626 1415 OFFCURVE",
"665 1306 OFFCURVE",
"665 1164 CURVE SMOOTH",
"665 1132 OFFCURVE",
"661 1093 OFFCURVE",
"654 1047 CURVE",
"577 1073 OFFCURVE",
"508 1086 OFFCURVE",
"445 1086 CURVE SMOOTH",
"123 1086 OFFCURVE",
"37 735 OFFCURVE",
"37 413 CURVE SMOOTH"
);
},
{
closed = 1;
nodes = (
"585 349 OFFCURVE",
"556 293 OFFCURVE",
"490 293 CURVE SMOOTH",
"432 293 OFFCURVE",
"417 332 OFFCURVE",
"417 391 CURVE SMOOTH",
"417 411 OFFCURVE",
"419 439 OFFCURVE",
"423 475 CURVE SMOOTH",
"440 645 LINE SMOOTH",
"450 744 OFFCURVE",
"481 794 OFFCURVE",
"534 794 CURVE SMOOTH",
"560 794 OFFCURVE",
"589 782 OFFCURVE",
"622 759 CURVE",
"591 419 LINE SMOOTH"
);
}
);
width = 1072;
}
);
unicode = 2202;
},
{
glyphname = percent;
layers = (
{
layerId = "DBFADC97-046A-4853-BE6B-B7E9D7A52A7E";
name = "Bold Condensed";
paths = (
{
closed = 1;
nodes = (
"564 865 OFFCURVE",
"543 807 OFFCURVE",
"471 807 CURVE SMOOTH",
"399 807 OFFCURVE",
"378 865 OFFCURVE",
"378 941 CURVE SMOOTH",
"378 1427 LINE SMOOTH",
"378 1504 OFFCURVE",
"393 1554 OFFCURVE",
"471 1554 CURVE SMOOTH",
"549 1554 OFFCURVE",
"564 1505 OFFCURVE",
"564 1427 CURVE SMOOTH",
"564 941 LINE SMOOTH"
);
},
{
closed = 1;
nodes = (
"91 745 OFFCURVE",
"223 580 OFFCURVE",
"471 580 CURVE SMOOTH",
"720 580 OFFCURVE",
"851 745 OFFCURVE",
"851 1000 CURVE SMOOTH",
"851 1363 LINE SMOOTH",
"851 1632 OFFCURVE",
"734 1781 OFFCURVE",
"471 1781 CURVE SMOOTH",
"208 1781 OFFCURVE",
"91 1632 OFFCURVE",
"91 1363 CURVE SMOOTH",
"91 1000 LINE SMOOTH"
);
},
{
closed = 1;
nodes = (
"1879 264 OFFCURVE",
"1858 206 OFFCURVE",
"1786 206 CURVE SMOOTH",
"1714 206 OFFCURVE",
"1693 264 OFFCURVE",
"1693 340 CURVE SMOOTH",
"1693 826 LINE SMOOTH",
"1693 903 OFFCURVE",
"1708 953 OFFCURVE",
"1786 953 CURVE SMOOTH",
"1864 953 OFFCURVE",
"1879 904 OFFCURVE",
"1879 826 CURVE SMOOTH",
"1879 340 LINE SMOOTH"
);
},
{
closed = 1;
nodes = (
"1406 144 OFFCURVE",
"1538 -21 OFFCURVE",
"1786 -21 CURVE SMOOTH",
"2035 -21 OFFCURVE",
"2166 144 OFFCURVE",
"2166 399 CURVE SMOOTH",
"2166 762 LINE SMOOTH",
"2166 1031 OFFCURVE",
"2049 1180 OFFCURVE",
"1786 1180 CURVE SMOOTH",
"1523 1180 OFFCURVE",
"1406 1031 OFFCURVE",
"1406 762 CURVE SMOOTH",
"1406 399 LINE SMOOTH"
);
},
{
closed = 1;
nodes = (
"678 0 LINE",
"941 0 LINE",
"1581 1761 LINE",
"1327 1761 LINE"
);
}
);
width = 2257;
}
);
unicode = 0025;
},
{
glyphname = perthousand;
layers = (
{
layerId = "DBFADC97-046A-4853-BE6B-B7E9D7A52A7E";
name = "Bold Condensed";
paths = (
{
closed = 1;
nodes = (
"564 865 OFFCURVE",
"543 807 OFFCURVE",
"471 807 CURVE SMOOTH",
"399 807 OFFCURVE",
"378 865 OFFCURVE",
"378 941 CURVE SMOOTH",
"378 1427 LINE SMOOTH",
"378 1504 OFFCURVE",
"393 1554 OFFCURVE",
"471 1554 CURVE SMOOTH",
"549 1554 OFFCURVE",
"564 1505 OFFCURVE",
"564 1427 CURVE SMOOTH",
"564 941 LINE SMOOTH"
);
},
{
closed = 1;
nodes = (
"91 745 OFFCURVE",
"223 580 OFFCURVE",
"471 580 CURVE SMOOTH",
"720 580 OFFCURVE",
"851 745 OFFCURVE",
"851 1000 CURVE SMOOTH",
"851 1363 LINE SMOOTH",
"851 1632 OFFCURVE",
"734 1781 OFFCURVE",
"471 1781 CURVE SMOOTH",
"208 1781 OFFCURVE",
"91 1632 OFFCURVE",
"91 1363 CURVE SMOOTH",
"91 1000 LINE SMOOTH"
);
},
{
closed = 1;
nodes = (
"1879 264 OFFCURVE",
"1858 206 OFFCURVE",
"1786 206 CURVE SMOOTH",
"1714 206 OFFCURVE",
"1693 264 OFFCURVE",
"1693 340 CURVE SMOOTH",
"1693 826 LINE SMOOTH",
"1693 903 OFFCURVE",
"1708 953 OFFCURVE",
"1786 953 CURVE SMOOTH",
"1864 953 OFFCURVE",
"1879 904 OFFCURVE",
"1879 826 CURVE SMOOTH",
"1879 340 LINE SMOOTH"
);
},
{
closed = 1;
nodes = (
"1406 144 OFFCURVE",
"1538 -21 OFFCURVE",
"1786 -21 CURVE SMOOTH",
"2035 -21 OFFCURVE",
"2166 144 OFFCURVE",
"2166 399 CURVE SMOOTH",
"2166 762 LINE SMOOTH",
"2166 1031 OFFCURVE",
"2049 1180 OFFCURVE",
"1786 1180 CURVE SMOOTH",
"1523 1180 OFFCURVE",
"1406 1031 OFFCURVE",
"1406 762 CURVE SMOOTH",
"1406 399 LINE SMOOTH"
);
},
{
closed = 1;
nodes = (
"2828 264 OFFCURVE",
"2807 206 OFFCURVE",
"2735 206 CURVE SMOOTH",
"2663 206 OFFCURVE",
"2642 264 OFFCURVE",
"2642 340 CURVE SMOOTH",
"2642 826 LINE SMOOTH",
"2642 903 OFFCURVE",
"2657 953 OFFCURVE",
"2735 953 CURVE SMOOTH",
"2813 953 OFFCURVE",
"2828 904 OFFCURVE",
"2828 826 CURVE SMOOTH",
"2828 340 LINE SMOOTH"
);
},
{
closed = 1;
nodes = (
"2355 144 OFFCURVE",
"2487 -21 OFFCURVE",
"2735 -21 CURVE SMOOTH",
"2984 -21 OFFCURVE",
"3115 144 OFFCURVE",
"3115 399 CURVE SMOOTH",
"3115 762 LINE SMOOTH",
"3115 1031 OFFCURVE",
"2998 1180 OFFCURVE",
"2735 1180 CURVE SMOOTH",
"2472 1180 OFFCURVE",
"2355 1031 OFFCURVE",
"2355 762 CURVE SMOOTH",
"2355 399 LINE SMOOTH"
);
},
{
closed = 1;
nodes = (
"678 0 LINE",
"941 0 LINE",
"1581 1761 LINE",
"1327 1761 LINE"
);
}
);
width = 3206;
}
);
unicode = 2030;
},
{
glyphname = plus;
layers = (
{
layerId = "DBFADC97-046A-4853-BE6B-B7E9D7A52A7E";
name = "Bold Condensed";
paths = (
{
closed = 1;
nodes = (
"288 301 LINE",
"520 301 LINE",
"520 509 LINE",
"728 509 LINE",
"728 741 LINE",
"520 741 LINE",
"520 949 LINE",
"288 949 LINE",
"288 741 LINE",
"80 741 LINE",
"80 509 LINE",
"288 509 LINE"
);
}
);
width = 808;
}
);
unicode = 002B;
},
{
glyphname = plusminus;
layers = (
{
layerId = "DBFADC97-046A-4853-BE6B-B7E9D7A52A7E";
name = "Bold Condensed";
paths = (
{
closed = 1;
nodes = (
"311 414 LINE",
"543 414 LINE",
"543 622 LINE",
"751 622 LINE",
"751 854 LINE",
"543 854 LINE",
"543 1062 LINE",
"311 1062 LINE",
"311 854 LINE",
"103 854 LINE",
"103 622 LINE",
"311 622 LINE"
);
},
{
closed = 1;
nodes = (
"144 -1 LINE",
"660 -1 LINE",
"660 231 LINE",
"144 231 LINE"
);
}
);
width = 854;
}
);
unicode = 00B1;
},
{
glyphname = product;
layers = (
{
layerId = "DBFADC97-046A-4853-BE6B-B7E9D7A52A7E";
name = "Bold Condensed";
paths = (
{
closed = 1;
nodes = (
"122 0 LINE",
"472 0 LINE",
"472 1460 LINE",
"638 1460 LINE",
"638 0 LINE",
"988 0 LINE",
"988 1761 LINE",
"122 1761 LINE"
);
}
);
width = 1110;
}
);
unicode = 220F;
},
{
glyphname = radical;
layers = (
{
layerId = "DBFADC97-046A-4853-BE6B-B7E9D7A52A7E";
name = "Bold Condensed";
paths = (
{
closed = 1;
nodes = (
"308 0 LINE",
"682 0 LINE",
"878 1269 LINE",
"1442 1269 LINE",
"1442 1500 LINE",
"611 1500 LINE",
"609 1500 LINE",
"472 338 LINE",
"358 741 LINE",
"89 741 LINE"
);
}
);
width = 1537;
}
);
unicode = 221A;
},
{
glyphname = summation;
layers = (
{
layerId = "DBFADC97-046A-4853-BE6B-B7E9D7A52A7E";
name = "Bold Condensed";
paths = (
{
closed = 1;
nodes = (
"102 0 LINE",
"719 0 LINE",
"719 275 LINE",
"466 275 LINE",
"674 880 LINE",
"466 1501 LINE",
"719 1501 LINE",
"719 1761 LINE",
"102 1761 LINE",
"102 1505 LINE",
"317 881 LINE",
"102 271 LINE"
);
}
);
width = 814;
}
);
unicode = 2211;
},
{
glyphname = ampersand;
layers = (
{
layerId = "DBFADC97-046A-4853-BE6B-B7E9D7A52A7E";
name = "Bold Condensed";
paths = (
{
closed = 1;
nodes = (
"84 140 OFFCURVE",
"197 -20 OFFCURVE",
"418 -20 CURVE SMOOTH",
"785 -20 OFFCURVE",
"913 477 OFFCURVE",
"1128 690 CURVE",
"988 934 LINE",
"720 616 OFFCURVE",
"585 289 OFFCURVE",
"483 289 CURVE SMOOTH",
"420 289 OFFCURVE",
"368 360 OFFCURVE",
"368 466 CURVE SMOOTH",
"368 806 OFFCURVE",
"934 1025 OFFCURVE",
"934 1434 CURVE SMOOTH",
"934 1657 OFFCURVE",
"783 1781 OFFCURVE",
"585 1781 CURVE SMOOTH",
"384 1781 OFFCURVE",
"233 1648 OFFCURVE",
"233 1421 CURVE",
"233 1140 OFFCURVE",
"593 355.25 OFFCURVE",
"713 0 CURVE",
"1057 0 LINE",
"557 1348 OFFCURVE",
"551 1278 OFFCURVE",
"551 1441 CURVE SMOOTH",
"551 1515 OFFCURVE",
"591 1552 OFFCURVE",
"636 1552 CURVE SMOOTH",
"686 1552 OFFCURVE",
"715 1525 OFFCURVE",
"715 1427 CURVE SMOOTH",
"715 1328 OFFCURVE",
"653 1239 OFFCURVE",
"607 1191 CURVE SMOOTH",
"555 1138 OFFCURVE",
"374 996 OFFCURVE",
"364 988 CURVE SMOOTH",
"191 845 OFFCURVE",
"84 706 OFFCURVE",
"84 397 CURVE SMOOTH"
);
}
);
width = 1158;
}
);
unicode = 0026;
},
{
glyphname = asciicircum;
layers = (
{
layerId = "DBFADC97-046A-4853-BE6B-B7E9D7A52A7E";
name = "Bold Condensed";
paths = (
{
closed = 1;
nodes = (
"70 576 LINE",
"409 576 LINE",
"515 1211 LINE",
"621 576 LINE",
"960 576 LINE",
"719 1499 LINE",
"311 1499 LINE"
);
}
);
width = 1030;
}
);
unicode = 005E;
},
{
glyphname = at;
layers = (
{
layerId = "DBFADC97-046A-4853-BE6B-B7E9D7A52A7E";
name = "Bold Condensed";
paths = (
{
closed = 1;
nodes = (
"102 189 OFFCURVE",
"385 -64 OFFCURVE",
"804 -64 CURVE SMOOTH",
"875 -64 OFFCURVE",
"935 -54 OFFCURVE",
"1031 -35 CURVE",
"997 176 LINE",
"937 159 OFFCURVE",
"864 148 OFFCURVE",
"808 148 CURVE SMOOTH",
"507 148 OFFCURVE",
"352 379 OFFCURVE",
"352 833 CURVE SMOOTH",
"352 1315 OFFCURVE",
"544 1568 OFFCURVE",
"874 1568 CURVE SMOOTH",
"1187 1568 OFFCURVE",
"1309 1286 OFFCURVE",
"1309 942 CURVE SMOOTH",
"1309 634 OFFCURVE",
"1279 582 OFFCURVE",
"1207 582 CURVE SMOOTH",
"1150 582 OFFCURVE",
"1132 651 OFFCURVE",
"1132 777 CURVE SMOOTH",
"1132 1302 LINE",
"959 1302 LINE",
"928 1180 LINE",
"906 1249 OFFCURVE",
"842 1283 OFFCURVE",
"789 1283 CURVE SMOOTH",
"615 1283 OFFCURVE",
"500 1101 OFFCURVE",
"500 788 CURVE SMOOTH",
"500 503 OFFCURVE",
"611 361 OFFCURVE",
"759 361 CURVE SMOOTH",
"860 361 OFFCURVE",
"921 444 OFFCURVE",
"947 607 CURVE",
"992 422 OFFCURVE",
"1099 378 OFFCURVE",
"1181 378 CURVE SMOOTH",
"1414 378 OFFCURVE",
"1516 572 OFFCURVE",
"1516 910 CURVE SMOOTH",
"1516 1488 OFFCURVE",
"1277 1780 OFFCURVE",
"886 1780 CURVE SMOOTH",
"390 1780 OFFCURVE",
"102 1440 OFFCURVE",
"102 836 CURVE SMOOTH"
);
},
{
closed = 1;
nodes = (
"920 657 OFFCURVE",
"865 605 OFFCURVE",
"810 605 CURVE SMOOTH",
"750 605 OFFCURVE",
"724 667 OFFCURVE",
"724 794 CURVE SMOOTH",
"724 963 OFFCURVE",
"766 1102 OFFCURVE",
"920 1062 CURVE",
"920 759 LINE SMOOTH"
);
}
);
width = 1622;
}
);
unicode = 0040;
},
{
glyphname = bar;
layers = (
{
layerId = "DBFADC97-046A-4853-BE6B-B7E9D7A52A7E";
name = "Bold Condensed";
paths = (
{
closed = 1;
nodes = (
"112 -84 LINE",
"425 -84 LINE",
"425 1683 LINE",
"112 1683 LINE"
);
}
);
width = 537;
}
);
unicode = 007C;
},
{
glyphname = brokenbar;
layers = (
{
layerId = "DBFADC97-046A-4853-BE6B-B7E9D7A52A7E";
name = "Bold Condensed";
paths = (
{
closed = 1;
nodes = (
"122 -84 LINE",
"408 -84 LINE",
"408 724 LINE",
"122 724 LINE"
);
},
{
closed = 1;
nodes = (
"122 931 LINE",
"408 931 LINE",
"408 1761 LINE",
"122 1761 LINE"
);
}
);
width = 530;
}
);
unicode = 00A6;
},
{
glyphname = copyright;
layers = (
{
layerId = "DBFADC97-046A-4853-BE6B-B7E9D7A52A7E";
name = "Bold Condensed";
paths = (
{
closed = 1;
nodes = (
"497 506 OFFCURVE",
"593 423 OFFCURVE",
"732 423 CURVE SMOOTH",
"894 423 OFFCURVE",
"951 496 OFFCURVE",
"951 642 CURVE SMOOTH",
"951 805 LINE",
"782 805 LINE",
"782 656 LINE SMOOTH",
"782 613 OFFCURVE",
"767 591 OFFCURVE",
"736 591 CURVE SMOOTH",
"708 591 OFFCURVE",
"692 626 OFFCURVE",
"692 656 CURVE SMOOTH",
"692 1065 LINE SMOOTH",
"692 1103 OFFCURVE",
"699 1129 OFFCURVE",
"736 1129 CURVE SMOOTH",
"767 1129 OFFCURVE",
"782 1103 OFFCURVE",
"782 1052 CURVE SMOOTH",
"782 951 LINE",
"947 951 LINE",
"947 1104 LINE SMOOTH",
"947 1238 OFFCURVE",
"870 1304 OFFCURVE",
"736 1304 CURVE SMOOTH",
"571 1304 OFFCURVE",
"497 1216 OFFCURVE",
"497 1048 CURVE SMOOTH",
"497 647 LINE SMOOTH"
);
},
{
closed = 1;
nodes = (
"1231 570 OFFCURVE",
"1022 333 OFFCURVE",
"733 333 CURVE SMOOTH",
"444 333 OFFCURVE",
"235 570 OFFCURVE",
"235 861 CURVE SMOOTH",
"235 1152 OFFCURVE",
"444 1389 OFFCURVE",
"733 1389 CURVE SMOOTH",
"1022 1389 OFFCURVE",
"1231 1152 OFFCURVE",
"1231 861 CURVE SMOOTH"
);
},
{
closed = 1;
nodes = (
"76 488 OFFCURVE",
"360 204 OFFCURVE",
"733 204 CURVE SMOOTH",
"1106 204 OFFCURVE",
"1390 488 OFFCURVE",
"1390 861 CURVE SMOOTH",
"1390 1234 OFFCURVE",
"1106 1518 OFFCURVE",
"733 1518 CURVE SMOOTH",
"360 1518 OFFCURVE",
"76 1234 OFFCURVE",
"76 861 CURVE SMOOTH"
);
}
);
width = 1466;
}
);
unicode = 00A9;
},
{
glyphname = dagger;
layers = (
{
layerId = "DBFADC97-046A-4853-BE6B-B7E9D7A52A7E";
name = "Bold Condensed";
paths = (
{
closed = 1;
nodes = (
"274 0 LINE",
"638 0 LINE",
"638 886 LINE",
"818 886 LINE",
"818 1182 LINE",
"638 1182 LINE",
"638 1592 LINE",
"274 1592 LINE",
"274 1182 LINE",
"91 1182 LINE",
"91 886 LINE",
"274 886 LINE"
);
}
);
width = 909;
}
);
unicode = 2020;
},
{
glyphname = daggerdbl;
layers = (
{
layerId = "DBFADC97-046A-4853-BE6B-B7E9D7A52A7E";
name = "Bold Condensed";
paths = (
{
closed = 1;
nodes = (
"283 0 LINE",
"647 0 LINE",
"647 350 LINE",
"827 350 LINE",
"827 646 LINE",
"647 646 LINE",
"647 940 LINE",
"827 940 LINE",
"827 1236 LINE",
"647 1236 LINE",
"647 1592 LINE",
"283 1592 LINE",
"283 1236 LINE",
"100 1236 LINE",
"100 940 LINE",
"283 940 LINE",
"283 646 LINE",
"100 646 LINE",
"100 350 LINE",
"283 350 LINE"
);
}
);
width = 927;
}
);
unicode = 2021;
},
{
glyphname = degree;
layers = (
{
layerId = "DBFADC97-046A-4853-BE6B-B7E9D7A52A7E";
name = "Bold Condensed";
paths = (
{
closed = 1;
nodes = (
"600 1182 OFFCURVE",
"547 1112 OFFCURVE",
"458 1112 CURVE SMOOTH",
"369 1112 OFFCURVE",
"316 1182 OFFCURVE",
"316 1269 CURVE SMOOTH",
"316 1356 OFFCURVE",
"369 1426 OFFCURVE",
"458 1426 CURVE SMOOTH",
"547 1426 OFFCURVE",
"600 1356 OFFCURVE",
"600 1269 CURVE SMOOTH"
);
},
{
closed = 1;
nodes = (
"104 1057 OFFCURVE",
"243 931 OFFCURVE",
"457 931 CURVE SMOOTH",
"671 931 OFFCURVE",
"811 1058 OFFCURVE",
"811 1269 CURVE SMOOTH",
"811 1480 OFFCURVE",
"671 1607 OFFCURVE",
"457 1607 CURVE SMOOTH",
"243 1607 OFFCURVE",
"104 1480 OFFCURVE",
"104 1269 CURVE SMOOTH"
);
}
);
width = 915;
}
);
unicode = 00B0;
},
{
glyphname = paragraph;
layers = (
{
layerId = "DBFADC97-046A-4853-BE6B-B7E9D7A52A7E";
name = "Bold Condensed";
paths = (
{
closed = 1;
nodes = (
"418 0 LINE",
"636 0 LINE",
"636 1455 LINE",
"779 1455 LINE",
"779 0 LINE",
"997 0 LINE",
"997 1761 LINE",
"622 1761 LINE SMOOTH",
"314 1761 OFFCURVE",
"71 1714 OFFCURVE",
"71 1408 CURVE SMOOTH",
"71 1147 OFFCURVE",
"179 1041 OFFCURVE",
"418 1015 CURVE"
);
}
);
width = 1119;
}
);
unicode = 00B6;
},
{
glyphname = registered;
layers = (
{
layerId = "DBFADC97-046A-4853-BE6B-B7E9D7A52A7E";
name = "Bold Condensed";
paths = (
{
closed = 1;
nodes = (
"529 430 LINE",
"719 430 LINE",
"719 818 LINE",
"769 818 OFFCURVE",
"791 812 OFFCURVE",
"791 762 CURVE SMOOTH",
"791 430 LINE",
"975 430 LINE",
"975 751 LINE SMOOTH",
"975 822 OFFCURVE",
"949 863 OFFCURVE",
"896 873 CURVE",
"968 896 OFFCURVE",
"989 951 OFFCURVE",
"989 1043 CURVE SMOOTH",
"989 1187 OFFCURVE",
"963 1282 OFFCURVE",
"818 1282 CURVE SMOOTH",
"529 1282 LINE"
);
},
{
closed = 1;
nodes = (
"1249 571 OFFCURVE",
"1040 334 OFFCURVE",
"751 334 CURVE SMOOTH",
"462 334 OFFCURVE",
"253 571 OFFCURVE",
"253 862 CURVE SMOOTH",
"253 1153 OFFCURVE",
"462 1390 OFFCURVE",
"751 1390 CURVE SMOOTH",
"1040 1390 OFFCURVE",
"1249 1153 OFFCURVE",
"1249 862 CURVE SMOOTH"
);
},
{
closed = 1;
nodes = (
"94 489 OFFCURVE",
"378 205 OFFCURVE",
"751 205 CURVE SMOOTH",
"1124 205 OFFCURVE",
"1408 489 OFFCURVE",
"1408 862 CURVE SMOOTH",
"1408 1235 OFFCURVE",
"1124 1519 OFFCURVE",
"751 1519 CURVE SMOOTH",
"378 1519 OFFCURVE",
"94 1235 OFFCURVE",
"94 862 CURVE SMOOTH"
);
},
{
closed = 1;
nodes = (
"720 965 LINE",
"720 1124 LINE",
"790 1124 OFFCURVE",
"805 1114 OFFCURVE",
"805 1043 CURVE SMOOTH",
"805 991 OFFCURVE",
"793 965 OFFCURVE",
"768 965 CURVE SMOOTH"
);
}
);
width = 1502;
}
);
unicode = 00AE;
},
{
glyphname = section;
layers = (
{
layerId = "DBFADC97-046A-4853-BE6B-B7E9D7A52A7E";
name = "Bold Condensed";
paths = (
{
closed = 1;
nodes = (
"107 90 OFFCURVE",
"243 -20 OFFCURVE",
"488 -20 CURVE SMOOTH",
"714 -20 OFFCURVE",
"855 91 OFFCURVE",
"855 293 CURVE SMOOTH",
"855 429.972 OFFCURVE",
"793.665 511.106 OFFCURVE",
"700 598 CURVE",
"782 674 OFFCURVE",
"852 781 OFFCURVE",
"852 879 CURVE SMOOTH",
"852 1044 OFFCURVE",
"742 1156 OFFCURVE",
"640 1221 CURVE SMOOTH",
"594 1252 OFFCURVE",
"412 1368 OFFCURVE",
"412 1451 CURVE SMOOTH",
"412 1509 OFFCURVE",
"435 1542 OFFCURVE",
"497 1542 CURVE SMOOTH",
"560 1542 OFFCURVE",
"580 1502 OFFCURVE",
"580 1372 CURVE",
"853 1372 LINE",
"853 1667 OFFCURVE",
"725 1781 OFFCURVE",
"487 1781 CURVE SMOOTH",
"292 1781 OFFCURVE",
"125 1662 OFFCURVE",
"125 1433 CURVE SMOOTH",
"125 1328 OFFCURVE",
"166 1218 OFFCURVE",
"248 1143 CURVE",
"166 1067 OFFCURVE",
"125 960 OFFCURVE",
"125 862 CURVE SMOOTH",
"125 697 OFFCURVE",
"238 612 OFFCURVE",
"336 542 CURVE SMOOTH",
"454 457 OFFCURVE",
"566 388 OFFCURVE",
"566 303 CURVE SMOOTH",
"566 240 OFFCURVE",
"543 220 OFFCURVE",
"497 220 CURVE SMOOTH",
"445 220 OFFCURVE",
"406 244 OFFCURVE",
"406 391 CURVE",
"107 391 LINE"
);
},
{
closed = 1;
nodes = (
"586 822 OFFCURVE",
"565 775 OFFCURVE",
"541 735 CURVE",
"467 764 OFFCURVE",
"381 822 OFFCURVE",
"381 902 CURVE SMOOTH",
"381 935 OFFCURVE",
"396 974 OFFCURVE",
"426 1017 CURVE",
"546 967 OFFCURVE",
"586 906 OFFCURVE",
"586 856 CURVE SMOOTH"
);
}
);
width = 950;
}
);
unicode = 00A7;
},
{
glyphname = Euro;
layers = (
{
layerId = "DBFADC97-046A-4853-BE6B-B7E9D7A52A7E";
name = "Bold Condensed";
paths = (
{
closed = 1;
nodes = (
"114 151 OFFCURVE",
"284 -21 OFFCURVE",
"539 -21 CURVE SMOOTH",
"819 -21 OFFCURVE",
"987 116 OFFCURVE",
"987 425 CURVE SMOOTH",
"987 548 LINE",
"631 548 LINE",
"631 420 LINE SMOOTH",
"631 341 OFFCURVE",
"604 294 OFFCURVE",
"544 294 CURVE SMOOTH",
"490 294 OFFCURVE",
"474 339 OFFCURVE",
"474 414 CURVE SMOOTH",
"474 721 LINE",
"838 721 LINE",
"838 869 LINE",
"474 869 LINE",
"474 966 LINE",
"838 966 LINE",
"838 1106 LINE",
"474 1106 LINE",
"474 1326 LINE SMOOTH",
"474 1404 OFFCURVE",
"482 1466 OFFCURVE",
"551 1466 CURVE SMOOTH",
"607 1466 OFFCURVE",
"631 1429 OFFCURVE",
"631 1324 CURVE SMOOTH",
"631 1231 LINE",
"979 1231 LINE",
"979 1368 LINE SMOOTH",
"979 1645 OFFCURVE",
"797 1781 OFFCURVE",
"547 1781 CURVE SMOOTH",
"242 1781 OFFCURVE",
"114 1595 OFFCURVE",
"114 1254 CURVE SMOOTH",
"114 1106 LINE",
"23 1106 LINE",
"23 966 LINE",
"114 966 LINE",
"114 869 LINE",
"23 869 LINE",
"23 721 LINE",
"114 721 LINE",
"114 436 LINE SMOOTH"
);
}
);
width = 1076;
}
);
unicode = 20AC;
},
{
glyphname = uni2215;
layers = (
{
layerId = "DBFADC97-046A-4853-BE6B-B7E9D7A52A7E";
name = "Bold Condensed";
paths = (
{
closed = 1;
nodes = (
"29 0 LINE",
"312 0 LINE",
"803 1767 LINE",
"519 1767 LINE"
);
}
);
width = 829;
}
);
unicode = 2215;
},
{
glyphname = trademark;
layers = (
{
layerId = "DBFADC97-046A-4853-BE6B-B7E9D7A52A7E";
name = "Bold Condensed";
paths = (
{
closed = 1;
nodes = (
"743 554 LINE",
"999 554 LINE",
"999 1425 LINE",
"1146 554 LINE",
"1386 554 LINE",
"1524 1425 LINE",
"1524 554 LINE",
"1783 554 LINE",
"1783 1761 LINE",
"1374 1761 LINE",
"1262 1131 LINE",
"1149 1761 LINE",
"743 1761 LINE"
);
},
{
closed = 1;
nodes = (
"208 554 LINE",
"475 554 LINE",
"475 1529 LINE",
"634 1529 LINE",
"634 1761 LINE",
"50 1761 LINE",
"50 1529 LINE",
"208 1529 LINE"
);
}
);
width = 1885;
}
);
unicode = 2122;
},
{
glyphname = lozenge;
layers = (
{
layerId = "DBFADC97-046A-4853-BE6B-B7E9D7A52A7E";
name = "Bold Condensed";
paths = (
{
closed = 1;
nodes = (
"443 179 LINE",
"309 713 LINE",
"443 1247 LINE",
"475 1247 LINE",
"609 713 LINE",
"475 179 LINE"
);
},
{
closed = 1;
nodes = (
"277 0 LINE",
"648 0 LINE",
"887 713 LINE",
"648 1436 LINE",
"277 1436 LINE",
"34 713 LINE"
);
}
);
width = 921;
}
);
unicode = 25CA;
},
{
glyphname = uni0307;
lastChange = "2012-12-22 12:30:25 +0000";
layers = (
{
anchors = (
{
name = _top;
position = "{286, 1500}";
}
);
layerId = "DBFADC97-046A-4853-BE6B-B7E9D7A52A7E";
name = "Bold Condensed";
paths = (
{
closed = 1;
nodes = (
"107 1700 LINE",
"465 1700 LINE",
"465 1998 LINE",
"107 1998 LINE"
);
}
);
width = 572;
}
);
unicode = 0307;
},
{
glyphname = uni030F;
lastChange = "2012-12-22 12:30:15 +0000";
layers = (
{
anchors = (
{
name = _top;
position = "{412, 1500}";
}
);
layerId = "DBFADC97-046A-4853-BE6B-B7E9D7A52A7E";
name = "Bold Condensed";
paths = (
{
closed = 1;
nodes = (
"287 1650 LINE",
"453 1708 LINE",
"232 2187 LINE",
"-2 2079 LINE"
);
},
{
closed = 1;
nodes = (
"659 1650 LINE",
"825 1708 LINE",
"641 2187 LINE",
"411 2079 LINE"
);
}
);
width = 825;
}
);
unicode = 030F;
},
{
glyphname = uni0311;
lastChange = "2012-12-22 13:33:57 +0000";
layers = (
{
anchors = (
{
name = _top;
position = "{511, 1500}";
}
);
layerId = "DBFADC97-046A-4853-BE6B-B7E9D7A52A7E";
name = "Bold Condensed";
paths = (
{
closed = 1;
nodes = (
"155 1680 LINE",
"373 1680 LINE",
"373 1805 OFFCURVE",
"425 1823 OFFCURVE",
"508 1823 CURVE SMOOTH",
"591 1823 OFFCURVE",
"643 1805 OFFCURVE",
"643 1680 CURVE",
"861 1680 LINE",
"861 1695 LINE SMOOTH",
"861 1912 OFFCURVE",
"744 2013 OFFCURVE",
"510 2013 CURVE SMOOTH",
"270 2013 OFFCURVE",
"155 1916 OFFCURVE",
"155 1693 CURVE SMOOTH"
);
}
);
width = 1016;
}
);
unicode = 0311;
},
{
glyphname = uni0326;
lastChange = "2012-12-22 13:29:25 +0000";
layers = (
{
anchors = (
{
name = _bottom;
position = "{280.5, 0}";
}
);
layerId = "DBFADC97-046A-4853-BE6B-B7E9D7A52A7E";
name = "Bold Condensed";
paths = (
{
closed = 1;
nodes = (
"146 -824 LINE",
"314 -824 LINE",
"416 -487 LINE",
"416 -178 LINE",
"85 -178 LINE",
"85 -496 LINE",
"212 -496 LINE"
);
}
);
width = 528;
}
);
unicode = 0326;
},
{
glyphname = uni02C9;
layers = (
{
layerId = "DBFADC97-046A-4853-BE6B-B7E9D7A52A7E";
name = "Bold Condensed";
paths = (
{
closed = 1;
nodes = (
"90 509 LINE",
"606 509 LINE",
"606 741 LINE",
"90 741 LINE"
);
}
);
width = 696;
}
);
unicode = 02C9;
},
{
glyphname = acute;
lastChange = "2012-12-22 13:21:47 +0000";
layers = (
{
anchors = (
{
name = _top;
position = "{332, 1500}";
}
);
layerId = "DBFADC97-046A-4853-BE6B-B7E9D7A52A7E";
name = "Bold Condensed";
paths = (
{
closed = 1;
nodes = (
"101 1642 LINE",
"576 1736 LINE",
"576 2083 LINE",
"101 1865 LINE"
);
}
);
width = 650;
}
);
unicode = 00B4;
},
{
glyphname = breve;
lastChange = "2012-12-22 13:01:44 +0000";
layers = (
{
anchors = (
{
name = _top;
position = "{508, 1500}";
}
);
layerId = "DBFADC97-046A-4853-BE6B-B7E9D7A52A7E";
name = "Bold Condensed";
paths = (
{
closed = 1;
nodes = (
"155 1713 OFFCURVE",
"272 1612 OFFCURVE",
"506 1612 CURVE SMOOTH",
"746 1612 OFFCURVE",
"861 1709 OFFCURVE",
"861 1932 CURVE SMOOTH",
"861 1945 LINE",
"643 1945 LINE",
"643 1820 OFFCURVE",
"591 1802 OFFCURVE",
"508 1802 CURVE SMOOTH",
"425 1802 OFFCURVE",
"373 1820 OFFCURVE",
"373 1945 CURVE",
"155 1945 LINE",
"155 1930 LINE SMOOTH"
);
}
);
width = 1016;
}
);
unicode = 02D8;
},
{
glyphname = caron;
lastChange = "2012-12-22 13:20:33 +0000";
layers = (
{
anchors = (
{
name = _top;
position = "{485, 1500}";
}
);
layerId = "DBFADC97-046A-4853-BE6B-B7E9D7A52A7E";
name = "Bold Condensed";
paths = (
{
closed = 1;
nodes = (
"281 1632 LINE",
"689 1632 LINE",
"930 2035 LINE",
"571 2035 LINE",
"485 1750 LINE",
"399 2035 LINE",
"40 2035 LINE"
);
}
);
width = 970;
}
);
unicode = 02C7;
},
{
glyphname = cedilla;
layers = (
{
anchors = (
{
name = _bottom;
position = "{514.818, 0}";
}
);
layerId = "DBFADC97-046A-4853-BE6B-B7E9D7A52A7E";
name = "Bold Condensed";
paths = (
{
closed = 1;
nodes = (
"330 -658 OFFCURVE",
"396 -671 OFFCURVE",
"464 -671 CURVE SMOOTH",
"666.468 -671 OFFCURVE",
"763.637 -545 OFFCURVE",
"763.637 -411 CURVE SMOOTH",
"763.637 -284 OFFCURVE",
"666.108 -179 OFFCURVE",
"498 -136 CURVE",
"478 0 LINE",
"377 0 LINE",
"337 -196 LINE",
"419 -214 OFFCURVE",
"497 -269 OFFCURVE",
"497 -359 CURVE SMOOTH",
"497 -434 OFFCURVE",
"455 -501 OFFCURVE",
"266 -501 CURVE",
"266 -631 LINE"
);
}
);
width = 1015;
}
);
unicode = 00B8;
},
{
glyphname = circumflex;
lastChange = "2012-12-22 13:20:39 +0000";
layers = (
{
anchors = (
{
name = _top;
position = "{485, 1500}";
}
);
layerId = "DBFADC97-046A-4853-BE6B-B7E9D7A52A7E";
name = "Bold Condensed";
paths = (
{
closed = 1;
nodes = (
"40 1632 LINE",
"399 1632 LINE",
"485 1916 LINE",
"571 1632 LINE",
"930 1632 LINE",
"689 2034 LINE",
"281 2034 LINE"
);
}
);
width = 970;
}
);
unicode = 02C6;
},
{
glyphname = dieresis;
lastChange = "2012-12-22 13:21:08 +0000";
layers = (
{
anchors = (
{
name = _top;
position = "{488, 1500}";
}
);
layerId = "DBFADC97-046A-4853-BE6B-B7E9D7A52A7E";
name = "Bold Condensed";
paths = (
{
closed = 1;
nodes = (
"67 1632 LINE",
"425 1632 LINE",
"425 1930 LINE",
"67 1930 LINE"
);
},
{
closed = 1;
nodes = (
"551 1632 LINE",
"909 1632 LINE",
"909 1930 LINE",
"551 1930 LINE"
);
}
);
width = 976;
}
);
unicode = 00A8;
},
{
glyphname = dotaccent;
lastChange = "2012-12-22 13:21:22 +0000";
layers = (
{
anchors = (
{
name = _top;
position = "{286, 1500}";
}
);
layerId = "DBFADC97-046A-4853-BE6B-B7E9D7A52A7E";
name = "Bold Condensed";
paths = (
{
closed = 1;
nodes = (
"107 1632 LINE",
"465 1632 LINE",
"465 1930 LINE",
"107 1930 LINE"
);
}
);
width = 572;
}
);
unicode = 02D9;
},
{
glyphname = grave;
lastChange = "2012-12-22 13:21:30 +0000";
layers = (
{
anchors = (
{
name = _top;
position = "{317, 1500}";
}
);
layerId = "DBFADC97-046A-4853-BE6B-B7E9D7A52A7E";
name = "Bold Condensed";
paths = (
{
closed = 1;
nodes = (
"554 1673 LINE",
"554 1896 LINE",
"79 2114 LINE",
"79 1767 LINE"
);
}
);
width = 650;
}
);
unicode = 0060;
},
{
glyphname = hungarumlaut;
lastChange = "2012-12-22 13:01:22 +0000";
layers = (
{
anchors = (
{
name = _top;
position = "{661, 1500}";
}
);
layerId = "DBFADC97-046A-4853-BE6B-B7E9D7A52A7E";
name = "Bold Condensed";
paths = (
{
closed = 1;
nodes = (
"393 1682 LINE",
"672 2112 LINE",
"431 2223 LINE",
"247 1744 LINE"
);
},
{
closed = 1;
nodes = (
"795 1682 LINE",
"1135 2112 LINE",
"890 2223 LINE",
"649 1744 LINE"
);
}
);
width = 1300;
}
);
unicode = 02DD;
},
{
glyphname = macron;
lastChange = "2012-12-22 13:30:50 +0000";
layers = (
{
anchors = (
{
name = _center;
position = "{347, 1799}";
},
{
name = _top;
position = "{348, 1500}";
}
);
layerId = "DBFADC97-046A-4853-BE6B-B7E9D7A52A7E";
name = "Bold Condensed";
paths = (
{
closed = 1;
nodes = (
"90 1696 LINE",
"606 1696 LINE",
"606 1878 LINE",
"90 1878 LINE"
);
}
);
width = 696;
}
);
unicode = 00AF;
},
{
glyphname = ogonek;
layers = (
{
anchors = (
{
name = _ogonek;
position = "{812, 10}";
}
);
layerId = "DBFADC97-046A-4853-BE6B-B7E9D7A52A7E";
name = "Bold Condensed";
paths = (
{
closed = 1;
nodes = (
"336 -534 OFFCURVE",
"453 -626 OFFCURVE",
"643 -626 CURVE SMOOTH",
"711 -626 OFFCURVE",
"789 -604 OFFCURVE",
"812 -591 CURVE",
"812 -418 LINE",
"788 -423 OFFCURVE",
"762 -426 OFFCURVE",
"737 -426 CURVE SMOOTH",
"657 -426 OFFCURVE",
"581 -396 OFFCURVE",
"581 -299 CURVE SMOOTH",
"581 -189 OFFCURVE",
"657 -90 OFFCURVE",
"731 0 CURVE",
"590 0 LINE",
"414 -99 OFFCURVE",
"336 -239 OFFCURVE",
"336 -360 CURVE SMOOTH"
);
}
);
width = 1015;
}
);
unicode = 02DB;
},
{
glyphname = ring;
lastChange = "2012-12-22 12:31:22 +0000";
layers = (
{
anchors = (
{
name = _top;
position = "{462, 1500}";
}
);
layerId = "DBFADC97-046A-4853-BE6B-B7E9D7A52A7E";
name = "Bold Condensed";
paths = (
{
closed = 1;
nodes = (
"290 2230 OFFCURVE",
"179 2119 OFFCURVE",
"179 1950 CURVE SMOOTH",
"179 1780 OFFCURVE",
"290 1670 OFFCURVE",
"461 1670 CURVE SMOOTH",
"632 1670 OFFCURVE",
"744 1781 OFFCURVE",
"744 1950 CURVE SMOOTH",
"744 2119 OFFCURVE",
"632 2230 OFFCURVE",
"461 2230 CURVE SMOOTH"
);
},
{
closed = 1;
nodes = (
"552 2102 OFFCURVE",
"597 2026 OFFCURVE",
"597 1950 CURVE SMOOTH",
"597 1874 OFFCURVE",
"552 1798 OFFCURVE",
"462 1798 CURVE SMOOTH",
"372 1798 OFFCURVE",
"327 1874 OFFCURVE",
"327 1950 CURVE SMOOTH",
"327 2026 OFFCURVE",
"372 2102 OFFCURVE",
"462 2102 CURVE SMOOTH"
);
}
);
width = 923;
}
);
unicode = 02DA;
},
